<svg width="28" height="37" viewBox="0 0 28 37" fill="none" xmlns="http://www.w3.org/2000/svg">
<rect x="1.5" y="1.35718" width="25.7619" height="25.7619" rx="12.881" fill="#FFEBE3" stroke="#EE8253"/>
<mask id="mask0_4060_24500" style="mask-type:alpha" maskUnits="userSpaceOnUse" x="2" y="1" width="25" height="26">
<rect x="2.13265" y="1.98983" width="24.4966" height="24.4966" rx="12.2483" fill="#FFEBE3" stroke="#EE8253" stroke-width="0.265306"/>
</mask>
<g mask="url(#mask0_4060_24500)">
<path d="M-1.35518 50.9488C1.95049 51.0913 9.00543 52.1617 14.1508 52.0736C17.429 52.0163 19.567 51.1406 19.9894 47.8916C20.7 42.5646 21.9727 37.3278 23.7862 32.2688C27.1205 33.0541 34.9024 33.3564 40.1749 29.0524C43.595 26.2619 47.4988 21.7771 50.2836 15.9763C47.5303 15.4674 44.8944 13.6615 42.3672 10.6426C42.3672 10.6426 37.1668 15.7553 34.0277 18.5355C33.4502 19.0468 32.7748 19.4356 32.0426 19.6782C31.3104 19.9209 30.5365 20.0123 29.7679 19.9471C25.9791 19.6283 18.8852 19.0358 17.4754 18.9505C13.6975 18.7216 7.05008 18.543 1.20063 19.5275C0.205906 19.6955 -0.732565 20.1044 -1.5328 20.7187C-2.33304 21.3329 -2.97071 22.1338 -3.3901 23.0513C-4.95106 26.4623 -7.58013 32.3358 -9.36033 36.9912C-10.5538 40.1137 -9.80166 43.0873 -5.3071 45.4056C-5.3071 45.4056 -3.54007 46.2762 -3.33801 49.0118C-3.19662 50.9402 -3.28248 50.8658 -1.35518 50.9488Z" fill="#F7F7FF"/>
<path d="M13.5417 52.2039C10.3574 52.2039 6.52626 51.8112 3.41006 51.4924C1.48849 51.2955 -0.1715 51.1255 -1.36097 51.074L-1.55902 51.066C-3.27282 50.9944 -3.32605 50.9435 -3.44797 49.2486L-3.464 49.0265C-3.65862 46.3985 -5.34665 45.5285 -5.36383 45.5205C-9.46113 43.4025 -10.8452 40.5199 -9.47831 36.9458C-7.66835 32.2119 -4.95627 26.1753 -3.50521 22.9979C-3.07723 22.061 -2.42607 21.2434 -1.60877 20.6166C-0.791474 19.9898 0.167039 19.5729 1.18282 19.4025C7.1313 18.4014 13.9504 18.6103 17.4862 18.8244C18.8771 18.9086 25.7861 19.485 29.7815 19.821C30.5331 19.8832 31.2895 19.7931 32.0053 19.556C32.7212 19.3188 33.3818 18.9395 33.9475 18.4409C37.0477 15.6933 42.2297 10.6029 42.2818 10.5519C42.2942 10.5397 42.309 10.5302 42.3252 10.524C42.3414 10.5177 42.3588 10.515 42.3762 10.5158C42.3935 10.5166 42.4105 10.521 42.4261 10.5287C42.4417 10.5364 42.4555 10.5472 42.4667 10.5605C44.9899 13.576 47.6287 15.3562 50.3087 15.8519C50.3278 15.8553 50.3457 15.8631 50.3612 15.8747C50.3767 15.8862 50.3894 15.9012 50.3981 15.9185C50.4069 15.9357 50.4115 15.9547 50.4117 15.9741C50.4119 15.9934 50.4076 16.0125 50.3992 16.0299C47.0729 22.9561 42.6144 27.2234 40.2566 29.149C37.9424 31.0379 34.8354 32.2623 31.2698 32.6928C27.6064 33.1347 24.7953 32.6241 23.868 32.4157C22.0801 37.4344 20.8223 42.6263 20.1153 47.9068C19.9069 49.4981 19.283 50.6034 18.2069 51.284C17.2738 51.8759 15.9853 52.1661 14.1513 52.1999C13.9521 52.2026 13.7489 52.2039 13.5417 52.2039ZM11.647 18.8982C8.42266 18.8982 4.67566 19.07 1.22518 19.651C0.249922 19.8144 -0.670365 20.2146 -1.45505 20.8163C-2.23973 21.4181 -2.86487 22.2031 -3.27568 23.1026C-4.72845 26.2772 -7.43538 32.3087 -9.24247 37.0356C-10.5745 40.5187 -9.26823 43.2176 -5.24934 45.2955C-5.17665 45.3316 -3.41763 46.2291 -3.21271 49.0076L-3.19611 49.2302C-3.13887 50.0127 -3.1114 50.406 -2.92536 50.5851C-2.73933 50.7643 -2.34036 50.7809 -1.54815 50.8141L-1.34952 50.8227C-0.15261 50.8742 1.51253 51.0442 3.4364 51.2417C6.74779 51.5811 10.8703 52.0036 14.149 51.9469C17.8405 51.8839 19.4976 50.7036 19.868 47.8742C20.5823 42.5389 21.8568 37.2938 23.6705 32.2257C23.6811 32.1966 23.702 32.1725 23.7292 32.1577C23.7564 32.143 23.788 32.1386 23.8182 32.1455C27.6762 33.0539 35.1965 32.9543 40.0987 28.9538C42.4261 27.0551 46.805 22.8656 50.1021 16.0677C47.4495 15.5273 44.8468 13.7655 42.362 10.8267C41.6333 11.5411 36.9847 16.0866 34.1147 18.6292C33.5235 19.1504 32.8331 19.5469 32.085 19.7947C31.3369 20.0426 30.5464 20.1368 29.7609 20.0717C25.7672 19.7357 18.8594 19.1593 17.4713 19.0757C16.0002 18.9864 13.9573 18.8982 11.647 18.8982Z" fill="#252B4A"/>
<path d="M18.7369 24.4447L18.41 20.2867L8.58864 18.1733L-9.26367 57.8539L8.03913 57.8259L18.7369 24.4447Z" fill="#F7F7FF"/>
<path d="M6.75643 18.1721C-0.876648 18.1721 -7.84974 19.9277 -11.7604 26.9872C-14.508 31.9454 -17.6918 38.0616 -20.0947 42.8647V57.7829H-6.92931L9.27275 18.3164C9.11248 18.2723 6.92014 18.1721 6.75643 18.1721Z" fill="#F7F7FF"/>
<path d="M-5.69094 57.9055C-5.71124 57.9051 -5.73116 57.8999 -5.74899 57.8902C-5.76681 57.8805 -5.782 57.8666 -5.79327 57.8497C-5.80453 57.8328 -5.81152 57.8134 -5.81364 57.7932C-5.81576 57.773 -5.81294 57.7526 -5.80542 57.7337L10.3337 18.4201C9.81449 18.376 8.17225 18.3005 7.99766 18.3005C-1.25305 18.3005 -7.10193 21.0806 -10.4093 27.0497C-12.9308 31.601 -16.047 37.5374 -18.7442 42.9295C-18.7517 42.9443 -18.7621 42.9575 -18.7747 42.9683C-18.7873 42.9791 -18.8019 42.9873 -18.8177 42.9925C-18.8335 42.9976 -18.8501 42.9996 -18.8667 42.9984C-18.8832 42.9971 -18.8994 42.9926 -18.9142 42.985C-18.929 42.9775 -18.9422 42.9672 -18.953 42.9546C-18.9638 42.9419 -18.972 42.9273 -18.9771 42.9115C-18.9823 42.8958 -18.9843 42.8791 -18.983 42.8625C-18.9817 42.846 -18.9772 42.8298 -18.9697 42.815C-16.2702 37.4201 -13.1529 31.4813 -10.6297 26.9261C-8.77909 23.5861 -6.18665 21.2592 -2.70468 19.8168C0.167099 18.6256 3.66796 18.0469 7.99938 18.0469C8.12416 18.0469 10.3646 18.1436 10.5466 18.1917C10.5639 18.1961 10.5801 18.2043 10.5941 18.2155C10.608 18.2268 10.6193 18.2409 10.6273 18.257C10.6353 18.273 10.6398 18.2907 10.6405 18.3086C10.6412 18.3266 10.6381 18.3445 10.6313 18.3611L-5.57417 57.8276C-5.58371 57.8507 -5.59991 57.8705 -5.62071 57.8843C-5.6415 57.8982 -5.66595 57.9055 -5.69094 57.9055Z" fill="#252B4A"/>
<path d="M12.413 35.7467L14.1141 39.0002L15.909 36.7397C15.9748 35.2657 16.0175 33.7546 16.0372 32.2063C16.0749 29.0408 16.0034 30.2843 15.8494 27.4005C16.2488 26.7596 16.6479 26.1188 17.0467 25.4779L15.0234 22.324L12.4102 24.8396L13.7733 27.4986C13.5303 31.6931 13.0763 31.5985 12.413 35.7467Z" fill="#EE8253"/>
<path d="M17.2205 26.9325L14.9489 23.3258L12.6427 27.2479L7.5459 20.6569L9.85403 18.3184L16.1569 18.8048L18.0782 21.2926L17.2205 26.9325Z" fill="#F7F7FF"/>
<path d="M12.6404 27.3624C12.6242 27.3624 12.6082 27.3588 12.5937 27.3517C12.5792 27.3446 12.5665 27.3343 12.5565 27.3215L7.45267 20.718C7.43702 20.6977 7.42927 20.6724 7.43087 20.6468C7.43246 20.6213 7.44329 20.5971 7.46134 20.5789L9.77362 18.236C9.78431 18.2249 9.79734 18.2164 9.81175 18.211C9.82617 18.2055 9.84161 18.2034 9.85696 18.2047L16.1676 18.6921C16.1823 18.6933 16.1967 18.6975 16.2097 18.7046C16.2227 18.7116 16.2341 18.7213 16.2432 18.733L18.1701 21.2255C18.1787 21.2369 18.185 21.2498 18.1886 21.2636C18.1921 21.2774 18.1929 21.2918 18.1908 21.3059L17.3314 26.9564C17.3278 26.9772 17.318 26.9965 17.3032 27.0118C17.2885 27.027 17.2695 27.0375 17.2488 27.0418C17.228 27.0462 17.2065 27.0442 17.1868 27.0362C17.1672 27.0281 17.1505 27.0144 17.1387 26.9968L16.6136 26.163C16.5987 26.1392 16.5938 26.1105 16.6001 26.0831C16.6064 26.0557 16.6233 26.032 16.6471 26.017C16.671 26.0021 16.6997 25.9972 16.7272 26.0035C16.7546 26.0098 16.7784 26.0267 16.7933 26.0505L17.1662 26.6432L17.9721 21.3184L16.1045 18.8989L9.8902 18.4178L7.67859 20.6598L12.6298 27.0661L13.0836 26.2963C13.0977 26.2721 13.121 26.2544 13.1482 26.2473C13.1754 26.2402 13.2043 26.2441 13.2286 26.2583C13.2528 26.2725 13.2705 26.2957 13.2776 26.3228C13.2848 26.35 13.2808 26.3789 13.2666 26.4031L12.7333 27.3109C12.7245 27.3258 12.7122 27.3384 12.6974 27.3474C12.6826 27.3565 12.6659 27.3618 12.6486 27.3629L12.6404 27.3624Z" fill="#252B4A"/>
<path d="M18.4532 16.4783L15.4441 23.1039L10.3926 18.4016L13.2403 12.3552C13.2403 12.3552 16.8225 13.9505 18.4532 16.4783Z" fill="#F7F7FF"/>
<path d="M15.4425 23.2295C15.4107 23.2294 15.38 23.2173 15.3567 23.1957L10.3057 18.4928C10.2862 18.4746 10.2729 18.4506 10.2679 18.4244C10.2628 18.3981 10.2663 18.371 10.2777 18.3468L13.1254 12.301C13.1394 12.2711 13.1645 12.2478 13.1955 12.2362C13.2264 12.2247 13.2607 12.2257 13.2909 12.2392C13.3269 12.2558 16.9257 13.8797 18.557 16.4092C18.5684 16.427 18.5752 16.4473 18.5768 16.4684C18.5784 16.4895 18.5748 16.5107 18.5662 16.53L15.557 23.1556C15.5487 23.1738 15.5363 23.1897 15.5206 23.2021C15.505 23.2146 15.4867 23.2231 15.4672 23.2272C15.459 23.2285 15.4508 23.2293 15.4425 23.2295ZM10.545 18.3708L15.4002 22.8929L18.3092 16.4893C16.8633 14.3016 13.9102 12.8133 13.3 12.522L10.545 18.3708Z" fill="#252B4A"/>
<path d="M10.1828 9.87256C9.6631 9.00078 9.19659 8.04085 9.22807 7.0254C9.25955 6.00994 9.94415 4.9527 10.9499 4.81876C10.6734 3.65047 11.1399 2.33908 12.0947 1.60869C13.0495 0.878292 14.4347 0.767819 15.4914 1.33851C16.6471 0.0128103 18.7106 -0.352964 20.3208 0.353389C21.931 1.05974 23.0346 2.71859 23.2309 4.46616C23.3151 5.21659 23.2395 6.00823 22.8663 6.66535C22.3437 7.58464 21.3036 8.11527 20.2584 8.27955C19.6631 8.37285 18.9865 8.39403 18.5824 8.84165C18.3311 9.11927 18.2452 9.50279 18.1245 9.85711C17.9088 10.4843 17.5664 11.0604 17.1187 11.5497C16.6709 12.039 16.1273 12.431 15.5217 12.7014C14.5355 13.1347 12.8314 13.3923 11.8583 12.7672C11.4805 12.5251 11.4101 12.0637 11.2258 11.6751C10.927 11.0489 10.5383 10.4696 10.1828 9.87256Z" fill="#252B4A"/>
<path d="M21.7971 10.563C22.2768 12.2229 22.4462 14.1119 21.5406 15.5795C20.7524 16.8583 19.1709 17.5973 17.6837 17.3821C16.1966 17.1668 14.8898 16.0083 14.4966 14.5595C13.0879 14.5458 11.7444 13.5429 11.33 12.1966C11.1743 11.6906 11.1823 11.0518 11.6088 10.7358C12.0959 10.3763 12.7725 10.6614 13.3306 10.8961C13.8887 11.1308 14.3082 11.5481 14.6047 11.0197C14.3941 9.68545 13.3701 7.41356 15.3306 6.75529C16.0604 6.50858 20.1428 5.80737 20.1428 5.80737C20.1428 5.80737 21.5389 9.67 21.7971 10.563Z" fill="#F7F7FF"/>
<path d="M18.1998 17.5417C18.0217 17.5418 17.8438 17.529 17.6675 17.5033C16.1661 17.2864 14.8369 16.1296 14.4048 14.6796C12.9692 14.6224 11.6372 13.6058 11.2136 12.2303C11.0487 11.6945 11.047 10.9927 11.5376 10.631C12.0825 10.2303 12.8032 10.5325 13.3824 10.7764C13.5129 10.8336 13.632 10.8937 13.7471 10.9538C14.1661 11.1731 14.3269 11.2292 14.4763 10.9916C14.438 10.7626 14.3756 10.4999 14.3097 10.2257C14.0046 8.9521 13.5868 7.20798 15.2943 6.63213C16.0247 6.386 19.9583 5.70826 20.1254 5.67964C20.1545 5.67489 20.1844 5.6804 20.2098 5.69523C20.2353 5.71005 20.2548 5.73327 20.2651 5.76092C20.3223 5.91891 21.6652 9.63728 21.9216 10.5245C22.5335 12.6373 22.4425 14.3597 21.652 15.6419C20.9308 16.8096 19.5656 17.5417 18.1998 17.5417ZM12.1661 10.6888C11.9939 10.6837 11.8248 10.7352 11.6847 10.8353C11.3 11.1215 11.3189 11.7254 11.4517 12.1576C11.8524 13.4621 13.1352 14.418 14.4992 14.4318C14.5267 14.4322 14.5532 14.4415 14.5749 14.4583C14.5966 14.4752 14.6122 14.4986 14.6194 14.5251C14.9995 15.9252 16.2674 17.0483 17.7036 17.2561C19.1397 17.4638 20.6738 16.746 21.4351 15.5114C22.1872 14.2921 22.2685 12.6379 21.6778 10.5961C21.4488 9.7947 20.2817 6.55829 20.0619 5.94753C19.4208 6.06201 16.0201 6.65388 15.3721 6.87254C13.8839 7.37512 14.2388 8.85937 14.5519 10.1685C14.6234 10.4661 14.691 10.7466 14.7305 10.9985C14.7348 11.0265 14.7296 11.0551 14.7156 11.0798C14.4259 11.5949 14.0024 11.3745 13.628 11.1788C13.5175 11.1215 13.403 11.0643 13.2846 11.0105C12.9171 10.8565 12.5187 10.6888 12.1661 10.6888Z" fill="#252B4A"/>
<path d="M13.943 12.8918C13.9249 12.8919 13.907 12.8881 13.8905 12.8807C13.874 12.8733 13.8593 12.8624 13.8474 12.8489C13.6938 12.6746 13.5017 12.5384 13.2865 12.4511C13.0712 12.3638 12.8386 12.3277 12.607 12.3457C12.5904 12.3476 12.5736 12.3461 12.5576 12.3413C12.5416 12.3365 12.5268 12.3285 12.514 12.3178C12.5012 12.3071 12.4907 12.2939 12.4832 12.279C12.4756 12.2642 12.4712 12.2479 12.4701 12.2312C12.4674 12.198 12.4779 12.1651 12.4994 12.1396C12.5208 12.1141 12.5514 12.0981 12.5846 12.095C12.8559 12.0737 13.1285 12.1157 13.3807 12.2178C13.6329 12.32 13.858 12.4794 14.038 12.6834C14.0597 12.7088 14.0705 12.7417 14.0682 12.775C14.0658 12.8084 14.0505 12.8394 14.0254 12.8615C14.0024 12.8811 13.9732 12.8919 13.943 12.8918Z" fill="#252B4A"/>
<path d="M20.2073 10.312C20.3624 11.0968 21.0258 11.6286 21.6887 11.4964C22.3515 11.3641 22.7631 10.6229 22.608 9.83637C22.4529 9.04988 21.79 8.51983 21.1272 8.65206C20.4643 8.78429 20.0527 9.52956 20.2073 10.312Z" fill="#F7F7FF"/>
<path d="M21.4907 11.6417C20.8416 11.6417 20.2383 11.0996 20.0877 10.336C19.9195 9.48367 20.374 8.676 21.1061 8.52947C21.2879 8.49578 21.4749 8.50284 21.6537 8.55016C21.8324 8.59747 21.9985 8.68385 22.1398 8.80307C22.451 9.05899 22.6619 9.4166 22.7351 9.8128C22.9034 10.6646 22.4489 11.4728 21.7163 11.6193C21.642 11.6341 21.5664 11.6416 21.4907 11.6417ZM21.3339 8.759C21.2737 8.75902 21.2138 8.76476 21.1547 8.77617C20.5611 8.89352 20.1931 9.57125 20.3345 10.2868C20.4758 11.0023 21.0729 11.4888 21.6676 11.3743C22.2623 11.2599 22.6292 10.5798 22.4879 9.86375C22.4256 9.52713 22.2469 9.22316 21.983 9.00514C21.8012 8.85109 21.5721 8.76419 21.3339 8.759Z" fill="#252B4A"/>
<path d="M17.7281 12.3816C17.0343 12.3816 16.4024 11.8509 16.253 11.0942C16.0847 10.2425 16.5913 9.4222 17.3818 9.26593C18.1723 9.10966 18.9525 9.67577 19.1208 10.5252C19.2036 10.9271 19.1317 11.3454 18.9193 11.6964C18.8193 11.8647 18.685 12.0101 18.5253 12.1233C18.3656 12.2365 18.1839 12.3149 17.992 12.3535C17.9051 12.3716 17.8168 12.381 17.7281 12.3816ZM17.6462 9.49203C17.5738 9.49204 17.5015 9.49913 17.4304 9.51321C16.7762 9.64486 16.3583 10.3318 16.5003 11.0455C16.6422 11.7593 17.2885 12.2379 17.9433 12.1091C18.1011 12.077 18.2503 12.0122 18.3814 11.9188C18.5126 11.8254 18.6227 11.7056 18.7046 11.567C18.8846 11.2703 18.9459 10.9167 18.8763 10.5767C18.7481 9.93966 18.2215 9.49203 17.6462 9.49203Z" fill="#252B4A"/>
<path d="M18.9961 10.6772C18.9732 10.6771 18.9508 10.6708 18.9314 10.6588C18.9032 10.6415 18.8829 10.6138 18.8749 10.5817C18.8668 10.5496 18.8717 10.5157 18.8884 10.4871C19.0785 10.1729 19.3086 9.99598 19.5753 9.96164C19.972 9.9107 20.2851 10.2101 20.2983 10.2227C20.3223 10.246 20.336 10.2778 20.3365 10.3113C20.337 10.3447 20.3242 10.377 20.3009 10.401C20.2776 10.4249 20.2457 10.4387 20.2122 10.4392C20.1788 10.4397 20.1465 10.4268 20.1226 10.4035C20.1174 10.399 19.8804 10.1746 19.6074 10.2118C19.4242 10.2364 19.2565 10.3726 19.1088 10.6176C19.097 10.6367 19.0804 10.6522 19.0605 10.6627C19.0407 10.6732 19.0184 10.6782 18.9961 10.6772Z" fill="#252B4A"/>
<path d="M16.3793 11.1942H16.3655L13.9328 10.9303C13.9008 10.9253 13.8719 10.9082 13.8522 10.8826C13.8325 10.8569 13.8234 10.8246 13.8269 10.7924C13.8304 10.7602 13.8461 10.7306 13.8708 10.7097C13.8956 10.6888 13.9274 10.6782 13.9597 10.6802L16.393 10.944C16.4244 10.9482 16.4531 10.9641 16.4733 10.9886C16.4935 11.013 16.5038 11.0441 16.5021 11.0758C16.5003 11.1074 16.4867 11.1372 16.464 11.1593C16.4412 11.1814 16.411 11.194 16.3793 11.1948V11.1942Z" fill="#252B4A"/>
</g>
<path d="M12.413 33.7464L14.1141 36.9999L15.909 34.7394C15.9748 33.2655 16 32.5484 16 31C16 30 15.909 28.5987 15.8494 27.4003C16.2488 26.7594 16.6479 26.1185 17.0467 25.4777L15.0234 22.3237L12.4102 24.8394L13.7733 27.4983C13.7733 28.7636 13.0763 29.5983 12.413 33.7464Z" fill="#4F56B2"/>
<path d="M17.2215 26.9325L14.9499 23.3258L12.6437 27.2479L7.54688 20.6569L9.855 18.3184L16.1579 18.8048L18.0792 21.2926L17.2215 26.9325Z" fill="#F7F7FF"/>
<path d="M12.6413 27.3619C12.6252 27.3619 12.6092 27.3583 12.5947 27.3512C12.5802 27.3441 12.5674 27.3338 12.5575 27.321L7.45364 20.7175C7.43799 20.6972 7.43025 20.6719 7.43185 20.6463C7.43344 20.6208 7.44427 20.5966 7.46232 20.5784L9.7746 18.2355C9.78529 18.2244 9.79831 18.2159 9.81273 18.2105C9.82715 18.2051 9.84259 18.2029 9.85794 18.2042L16.1685 18.6916C16.1833 18.6928 16.1977 18.697 16.2107 18.7041C16.2237 18.7111 16.2351 18.7208 16.2442 18.7325L18.1711 21.225C18.1797 21.2364 18.186 21.2493 18.1896 21.2631C18.1931 21.2769 18.1939 21.2913 18.1918 21.3054L17.3324 26.9559C17.3288 26.9767 17.3189 26.996 17.3042 27.0113C17.2895 27.0265 17.2705 27.037 17.2498 27.0413C17.229 27.0457 17.2074 27.0437 17.1878 27.0357C17.1682 27.0277 17.1514 27.0139 17.1397 26.9963L16.6146 26.1625C16.5997 26.1388 16.5948 26.11 16.6011 26.0826C16.6074 26.0552 16.6243 26.0315 16.6481 26.0165C16.6719 26.0016 16.7007 25.9967 16.7281 26.003C16.7556 26.0093 16.7794 26.0262 16.7943 26.05L17.1672 26.6427L17.9731 21.3179L16.1054 18.8985L9.89118 18.4174L7.67957 20.6593L12.6307 27.0656L13.0845 26.2958C13.0987 26.2716 13.122 26.254 13.1492 26.2468C13.1763 26.2397 13.2053 26.2436 13.2295 26.2578C13.2538 26.272 13.2715 26.2952 13.2786 26.3223C13.2857 26.3495 13.2818 26.3784 13.2676 26.4026L12.7343 27.3105C12.7255 27.3254 12.7132 27.3379 12.6984 27.3469C12.6836 27.356 12.6668 27.3613 12.6495 27.3624L12.6413 27.3619Z" fill="#252B4A"/>
<path d="M18.4532 16.478L15.4441 23.1037L10.3926 18.4013L13.2403 12.355C13.2403 12.355 16.8225 13.9503 18.4532 16.478Z" fill="white"/>
<path d="M15.4425 23.2292C15.4107 23.2292 15.38 23.2171 15.3567 23.1954L10.3057 18.4925C10.2862 18.4743 10.2729 18.4504 10.2679 18.4241C10.2628 18.3979 10.2663 18.3707 10.2777 18.3466L13.1254 12.3008C13.1394 12.2708 13.1645 12.2476 13.1955 12.236C13.2264 12.2244 13.2607 12.2255 13.2909 12.2389C13.3269 12.2555 16.9257 13.8795 18.557 16.4089C18.5684 16.4267 18.5752 16.4471 18.5768 16.4682C18.5784 16.4893 18.5748 16.5104 18.5662 16.5297L15.557 23.1554C15.5487 23.1735 15.5363 23.1894 15.5206 23.2019C15.505 23.2143 15.4867 23.2229 15.4672 23.2269C15.459 23.2283 15.4508 23.229 15.4425 23.2292ZM10.545 18.3706L15.4002 22.8926L18.3092 16.4891C16.8633 14.3013 13.9102 12.8131 13.3 12.5217L10.545 18.3706Z" fill="#252B4A"/>
<path d="M10.1838 9.87232C9.66408 9.00054 9.19756 8.04061 9.22905 7.02516C9.26053 6.0097 9.94513 4.95246 10.9509 4.81851C10.6744 3.65023 11.1409 2.33884 12.0957 1.60844C13.0505 0.878048 14.4357 0.767574 15.4924 1.33827C16.648 0.0125661 18.7116 -0.353208 20.3218 0.353145C21.932 1.0595 23.0356 2.71835 23.2319 4.46591C23.316 5.21634 23.2405 6.00798 22.8673 6.66511C22.3447 7.5844 21.3046 8.11503 20.2594 8.27931C19.6641 8.37261 18.9875 8.39379 18.5834 8.84141C18.3321 9.11903 18.2462 9.50254 18.1254 9.85686C17.9097 10.484 17.5674 11.0602 17.1196 11.5495C16.6719 12.0388 16.1283 12.4308 15.5227 12.7012C14.5364 13.1345 12.8324 13.3921 11.8593 12.767C11.4815 12.5249 11.4111 12.0635 11.2268 11.6748C10.928 11.0486 10.5393 10.4693 10.1838 9.87232Z" fill="#4F56B2"/>
<path d="M21.798 10.5627C22.2777 12.2227 22.4472 14.1116 21.5416 15.5793C20.7534 16.8581 19.1718 17.5971 17.6847 17.3818C16.1976 17.1666 14.8908 16.008 14.4975 14.5593C13.0888 14.5455 11.7454 13.5427 11.331 12.1964C11.1753 11.6904 11.1833 11.0515 11.6097 10.7356C12.0968 10.3761 12.7734 10.6612 13.3315 10.8959C13.8896 11.1305 14.3092 11.5478 14.6057 11.0195C14.3951 9.68521 13.371 7.41331 15.3315 6.75504C16.0614 6.50833 20.1438 5.80713 20.1438 5.80713C20.1438 5.80713 21.5399 9.66975 21.798 10.5627Z" fill="white"/>
<path d="M18.1998 17.5414C18.0217 17.5415 17.8438 17.5287 17.6675 17.5031C16.1661 17.2861 14.8369 16.1293 14.4048 14.6794C12.9692 14.6222 11.6372 13.6056 11.2136 12.2301C11.0487 11.6943 11.047 10.9925 11.5376 10.6307C12.0825 10.2301 12.8032 10.5323 13.3824 10.7761C13.5129 10.8334 13.632 10.8935 13.7471 10.9536C14.1661 11.1728 14.3269 11.2289 14.4763 10.9914C14.438 10.7624 14.3756 10.4997 14.3097 10.2255C14.0046 8.95186 13.5868 7.20773 15.2943 6.63189C16.0247 6.38575 19.9583 5.70802 20.1254 5.6794C20.1545 5.67464 20.1844 5.68015 20.2098 5.69498C20.2353 5.70981 20.2548 5.73303 20.2651 5.76068C20.3223 5.91866 21.6652 9.63704 21.9216 10.5243C22.5335 12.637 22.4425 14.3594 21.652 15.6416C20.9308 16.8093 19.5656 17.5414 18.1998 17.5414ZM12.1661 10.6886C11.9939 10.6835 11.8248 10.735 11.6847 10.8351C11.3 11.1213 11.3189 11.7252 11.4517 12.1574C11.8524 13.4619 13.1352 14.4178 14.4992 14.4315C14.5267 14.4319 14.5532 14.4413 14.5749 14.4581C14.5966 14.4749 14.6122 14.4984 14.6194 14.5248C14.9995 15.925 16.2674 17.048 17.7036 17.2558C19.1397 17.4636 20.6738 16.7458 21.4351 15.5111C22.1872 14.2919 22.2685 12.6376 21.6778 10.5958C21.4488 9.79445 20.2817 6.55804 20.0619 5.94728C19.4208 6.06176 16.0201 6.65364 15.3721 6.8723C13.8839 7.37487 14.2388 8.85913 14.5519 10.1682C14.6234 10.4659 14.691 10.7464 14.7305 10.9982C14.7348 11.0262 14.7296 11.0549 14.7156 11.0795C14.4259 11.5947 14.0024 11.3743 13.628 11.1785C13.5175 11.1213 13.403 11.0641 13.2846 11.0103C12.9171 10.8563 12.5187 10.6886 12.1661 10.6886Z" fill="#252B4A"/>
<path d="M13.943 12.8918C13.9249 12.8919 13.907 12.8881 13.8905 12.8807C13.874 12.8733 13.8593 12.8624 13.8474 12.8489C13.6938 12.6746 13.5017 12.5384 13.2865 12.4511C13.0712 12.3638 12.8386 12.3277 12.607 12.3457C12.5904 12.3476 12.5736 12.3461 12.5576 12.3413C12.5416 12.3365 12.5268 12.3285 12.514 12.3178C12.5012 12.3071 12.4907 12.2939 12.4832 12.279C12.4756 12.2642 12.4712 12.2479 12.4701 12.2312C12.4674 12.198 12.4779 12.1651 12.4994 12.1396C12.5208 12.1141 12.5514 12.0981 12.5846 12.095C12.8559 12.0737 13.1285 12.1157 13.3807 12.2178C13.6329 12.32 13.858 12.4794 14.038 12.6834C14.0597 12.7088 14.0705 12.7417 14.0682 12.775C14.0658 12.8084 14.0505 12.8394 14.0254 12.8615C14.0024 12.8811 13.9732 12.8919 13.943 12.8918Z" fill="#252B4A"/>
<path d="M20.2083 10.312C20.3634 11.0968 21.0268 11.6286 21.6897 11.4964C22.3525 11.3641 22.7641 10.6229 22.609 9.83637C22.4538 9.04988 21.791 8.51983 21.1281 8.65206C20.4653 8.78429 20.0537 9.52956 20.2083 10.312Z" fill="white"/>
<path d="M21.4907 11.6414C20.8416 11.6414 20.2383 11.0993 20.0877 10.3357C19.9195 9.48343 20.374 8.67576 21.1061 8.52922C21.2879 8.49553 21.4749 8.5026 21.6537 8.54991C21.8324 8.59723 21.9985 8.68361 22.1398 8.80283C22.451 9.05875 22.6619 9.41635 22.7351 9.81256C22.9034 10.6643 22.4489 11.4726 21.7163 11.6191C21.642 11.6339 21.5664 11.6414 21.4907 11.6414ZM21.3339 8.75876C21.2737 8.75877 21.2138 8.76452 21.1547 8.77593C20.5611 8.89327 20.1931 9.57101 20.3345 10.2865C20.4758 11.002 21.0729 11.4886 21.6676 11.3741C22.2623 11.2596 22.6292 10.5796 22.4879 9.86351C22.4256 9.52689 22.2469 9.22292 21.983 9.00489C21.8012 8.85085 21.5721 8.76395 21.3339 8.75876Z" fill="#252B4A"/>
<path d="M17.7291 12.3813C17.0353 12.3813 16.4034 11.8507 16.254 11.094C16.0857 10.2422 16.5923 9.42195 17.3827 9.26568C18.1732 9.10942 18.9534 9.67553 19.1217 10.525C19.2046 10.9268 19.1326 11.3451 18.9202 11.6961C18.8202 11.8644 18.686 12.0099 18.5263 12.1231C18.3666 12.2363 18.1849 12.3147 17.9929 12.3533C17.9061 12.3713 17.8177 12.3807 17.7291 12.3813ZM17.6472 9.49178C17.5748 9.49179 17.5025 9.49889 17.4314 9.51296C16.7771 9.64462 16.3593 10.3315 16.5012 11.0453C16.6432 11.7591 17.2894 12.2376 17.9443 12.1088C18.102 12.0767 18.2513 12.0119 18.3824 11.9185C18.5136 11.8252 18.6236 11.7053 18.7056 11.5668C18.8855 11.2701 18.9469 10.9164 18.8773 10.5765C18.7491 9.93941 18.2225 9.49178 17.6472 9.49178Z" fill="#252B4A"/>
<path d="M18.997 10.6769C18.9742 10.6769 18.9518 10.6705 18.9323 10.6586C18.9042 10.6413 18.8839 10.6136 18.8758 10.5815C18.8678 10.5494 18.8727 10.5154 18.8894 10.4869C19.0795 10.1726 19.3096 9.99574 19.5763 9.9614C19.973 9.91045 20.2861 10.2098 20.2993 10.2224C20.3232 10.2457 20.337 10.2776 20.3375 10.311C20.338 10.3445 20.3251 10.3767 20.3018 10.4007C20.2785 10.4247 20.2467 10.4384 20.2132 10.4389C20.1798 10.4394 20.1475 10.4266 20.1235 10.4033C20.1184 10.3987 19.8814 10.1743 19.6084 10.2115C19.4252 10.2362 19.2575 10.3724 19.1098 10.6174C19.098 10.6364 19.0813 10.652 19.0615 10.6625C19.0417 10.6729 19.0194 10.6779 18.997 10.6769Z" fill="#252B4A"/>
<path d="M16.3793 11.1939H16.3655L13.9328 10.9301C13.9008 10.9251 13.8719 10.908 13.8522 10.8823C13.8325 10.8566 13.8234 10.8243 13.8269 10.7921C13.8304 10.76 13.8461 10.7303 13.8708 10.7094C13.8956 10.6885 13.9274 10.678 13.9597 10.6799L16.393 10.9438C16.4244 10.948 16.4531 10.9639 16.4733 10.9883C16.4935 11.0127 16.5038 11.0439 16.5021 11.0755C16.5003 11.1072 16.4867 11.137 16.464 11.1591C16.4412 11.1811 16.411 11.1938 16.3793 11.1945V11.1939Z" fill="#252B4A"/>
</svg>
