<svg width="50" height="30" viewBox="0 0 50 30" fill="none" xmlns="http://www.w3.org/2000/svg">
<path d="M46.7302 0H3.26984C1.46396 0 0 1.39548 0 3.11688V26.8831C0 28.6045 1.46396 30 3.26984 30H46.7302C48.536 30 50 28.6045 50 26.8831V3.11688C50 1.39548 48.536 0 46.7302 0Z" fill="white"/>
<path d="M9.61881 10L5 19.7433H10.5293L11.2149 18.1899H12.7818L13.4675 19.7433H19.5537V18.5577L20.0959 19.7433H23.244L23.7861 18.5324V19.7433H36.444L37.9832 18.2299L39.4247 19.7433L45.9261 19.756L41.2924 14.8988L45.9261 10H39.5257L38.0274 11.485L36.6316 10H22.8613L21.6787 12.515L20.4685 10H14.9504V11.1455L14.3365 10H9.61828H9.61881ZM10.6887 11.3836H13.384L16.4476 17.9908V11.3836H19.4001L21.7664 16.1208L23.9472 11.3836H26.8848V18.3754H25.0974L25.083 12.897L22.477 18.3754H20.8777L18.2569 12.897V18.3754H14.5794L13.882 16.8078H10.1152L9.41949 18.3738H7.44919L10.6882 11.3836H10.6887ZM28.5208 11.3836H35.7897L38.013 13.6727L40.3081 11.3836H42.5313L39.1536 14.8977L42.5313 18.3713H40.2071L37.9838 16.0554L35.677 18.3713H28.5208V11.3842V11.3836ZM12 12.5667L10.7589 15.3588H13.2394L12 12.5667ZM30.3157 12.8311V14.1074H34.2813V15.53H30.3157V16.9233H34.7634L36.8299 14.8709L34.8511 12.8296H30.3157V12.8306V12.8311Z" fill="#595959"/>
</svg>
