<svg width="38" height="22" viewBox="0 0 38 22" fill="none" xmlns="http://www.w3.org/2000/svg">
<rect x="0.392857" y="0.392857" width="37.2143" height="21.2143" rx="4.32143" stroke="#CCCFD3" stroke-width="0.785714"/>
<path d="M27.6733 6.18472L26.968 7.79339H28.3824L27.6733 6.18472ZM19.5352 7.18158C19.6681 7.1163 19.7464 6.9743 19.7464 6.79795C19.7464 6.62515 19.6642 6.49999 19.5313 6.44118C19.4102 6.37599 19.2239 6.36846 19.0453 6.36846H17.7836V7.26478H19.0284C19.2277 7.26482 19.3943 7.26207 19.5352 7.18158ZM3.36784 6.18472L2.67057 7.79339H4.06931L3.36784 6.18472ZM35.8315 16.4903H33.8527V15.6248H35.8235C36.0189 15.6248 36.1557 15.6007 36.2381 15.5248C36.316 15.4572 36.36 15.3616 36.3592 15.2617C36.3592 15.144 36.3096 15.0506 36.234 14.9948C36.1598 14.9332 36.0514 14.9051 35.873 14.9051C34.9109 14.8744 33.7106 14.9331 33.7106 13.6558C33.7106 13.0705 34.1055 12.4543 35.1808 12.4543H37.2218V11.6512H35.3255C34.7532 11.6512 34.3374 11.7802 34.0431 11.9809V11.6512H31.2382C30.7898 11.6512 30.2633 11.7558 30.0143 11.9809V11.6512H25.0053V11.9809C24.6067 11.7101 23.934 11.6512 23.6237 11.6512H20.3197V11.9809C20.0044 11.6934 19.303 11.6512 18.8757 11.6512H15.178L14.332 12.5132L13.5395 11.6512H8.01598V17.2835H13.4353L14.3071 16.4077L15.1284 17.2835L18.4688 17.2863V15.9613H18.7974C19.2405 15.968 19.7633 15.9511 20.2246 15.7634V17.2833H22.9799V15.8153H23.1128C23.2824 15.8153 23.2992 15.822 23.2992 15.9815V17.283H31.6695C32.201 17.283 32.7565 17.1551 33.064 16.9225V17.283H35.7191C36.2716 17.283 36.8112 17.2101 37.2217 17.0235V15.9743C36.9729 16.3169 36.4878 16.4903 35.8315 16.4903ZM18.8412 15.1604H17.5627V16.5142H15.5711L14.3094 15.1781L12.9982 16.5142H8.93951V12.478H13.0607L14.3213 13.8011L15.6246 12.478H18.8987C19.7119 12.478 20.6255 12.69 20.6255 13.8078C20.6255 14.929 19.7369 15.1604 18.8412 15.1604ZM24.9891 14.9774C25.1338 15.1744 25.1547 15.3583 25.1589 15.7142V16.5143H24.1301V16.0094C24.1301 15.7665 24.155 15.407 23.9645 15.2193C23.8149 15.0748 23.5866 15.0402 23.2127 15.0402H22.1177V16.5143H21.0882V12.4781H23.4537C23.9726 12.4781 24.3503 12.4998 24.6866 12.6685C25.01 12.8524 25.2135 13.1044 25.2135 13.5648C25.2134 14.209 24.757 14.5376 24.4873 14.6386C24.7152 14.7178 24.9016 14.8598 24.9891 14.9774ZM29.2217 13.3128H26.8223V14.0465H29.1631V14.8701H26.8223V15.6732L29.2217 15.6767V16.5142H25.8019V12.478H29.2217V13.3128ZM31.8547 16.5142H29.8591V15.6487H31.8468C32.0412 15.6487 32.179 15.6245 32.2653 15.5487C32.3357 15.4863 32.3864 15.3955 32.3864 15.2856C32.3864 15.1679 32.3315 15.0745 32.2613 15.0185C32.1829 14.957 32.0747 14.9291 31.8964 14.9291C30.9382 14.8982 29.7381 14.9569 29.7381 13.6798C29.7381 13.0943 30.1289 12.4781 31.2031 12.4781H33.2574V13.337H31.3777C31.1914 13.337 31.0702 13.3437 30.9672 13.4101C30.8548 13.4755 30.8133 13.5724 30.8133 13.7004C30.8133 13.8526 30.9086 13.9563 31.0374 14.001C31.1456 14.0364 31.2616 14.0468 31.4362 14.0468L31.9878 14.0609C32.5439 14.0735 32.9258 14.1642 33.158 14.3854C33.3573 14.5797 33.4645 14.8252 33.4645 15.2405C33.4644 16.1088 32.888 16.5142 31.8547 16.5142ZM23.9077 13.3779C23.7839 13.3087 23.6012 13.305 23.4189 13.305H22.1571V14.2114H23.402C23.6013 14.2114 23.7708 14.2048 23.9077 14.1283C24.0405 14.0527 24.12 13.9135 24.12 13.7409C24.12 13.5682 24.0405 13.4433 23.9077 13.3779ZM35.3562 13.3049C35.1698 13.3049 35.0459 13.3115 34.9416 13.3778C34.8334 13.4433 34.7919 13.5402 34.7919 13.6682C34.7919 13.8204 34.8832 13.924 35.016 13.9689C35.1241 14.0043 35.2401 14.0146 35.4107 14.0146L35.9662 14.0285C36.5265 14.0416 36.9007 14.1324 37.1288 14.3536C37.1704 14.3843 37.1953 14.4188 37.2239 14.4534V13.305L35.3562 13.3049ZM18.8767 13.3049H17.5407V14.3329H18.8648C19.2585 14.3329 19.5033 14.149 19.5035 13.7998C19.5033 13.4468 19.2466 13.3049 18.8767 13.3049ZM9.96006 13.3049V14.0387H12.2095V14.8623H9.96006V15.6653H12.4793L13.6497 14.4812L12.529 13.3049H9.96006ZM16.5383 16.1274V12.8916L14.9652 14.4835L16.5383 16.1274ZM10.046 9.64713V10.3426H18.6066L18.6026 8.87133H18.7683C18.8843 8.87514 18.9181 8.8852 18.9181 9.06549V10.3426H23.3457V10.0001C23.7028 10.1802 24.2582 10.3426 24.9891 10.3426H26.8518L27.2504 9.44636H28.1342L28.5241 10.3426H32.1135V9.49126L32.6569 10.3426H35.5334V4.71484H32.6868V5.37949L32.2882 4.71484H29.3672V5.37949L29.0012 4.71484H25.0555C24.395 4.71484 23.8146 4.80162 23.3456 5.04347V4.71484H20.6227V5.04347C20.3243 4.79418 19.9176 4.71484 19.4656 4.71484H9.51808L8.85068 6.16847L8.16523 4.71484H5.0321V5.37949L4.68783 4.71484H2.01578L0.774949 7.39071V9.53112L2.60978 5.49583H4.13221L5.87479 9.31639V5.49583H7.54722L8.88816 8.23326L10.1201 5.49583H11.8261V9.53112H10.7758L10.772 6.37075L9.28611 9.53112H8.38646L6.89683 6.36795V9.53112H4.81265L4.41895 8.63103H2.28551L1.88774 9.53112H0.774949L0.774902 10.3429H2.52571L2.92044 9.44659H3.8043L4.198 10.3429H7.64265V9.6576L7.95009 10.3458H9.73828L10.046 9.64713ZM23.5357 5.96619C23.8668 5.64412 24.3857 5.4956 25.0918 5.4956H26.0837V6.36024H25.1126C24.7388 6.36024 24.5274 6.41258 24.3242 6.59934C24.1494 6.76921 24.0296 7.09041 24.0296 7.51334C24.0296 7.94568 24.1209 8.25737 24.3113 8.46098C24.469 8.62066 24.7558 8.66909 25.0255 8.66909H25.4858L26.9299 5.49574H28.4651L30.1999 9.31249V5.49579H31.7601L33.5612 8.30612V5.49579H34.6108V9.53093H33.1588L31.2165 6.50229V9.53093H29.1297L28.731 8.63085H26.6025L26.2156 9.53093H25.0165C24.5185 9.53093 23.8879 9.42727 23.5308 9.08459C23.1707 8.742 22.9835 8.27789 22.9835 7.54414C22.9833 6.9456 23.0951 6.39853 23.5357 5.96619ZM21.4281 5.49565H22.4736V9.53093H21.4281V5.49565ZM16.7144 5.49565H19.0711C19.5947 5.49565 19.9807 5.50873 20.312 5.68893C20.6361 5.86918 20.8305 6.13234 20.8305 6.58236C20.8305 7.2258 20.3742 7.55814 20.1086 7.658C20.3327 7.73834 20.5243 7.88025 20.6155 7.99779C20.7602 8.19851 20.7851 8.37779 20.7851 8.73814V9.53089H19.7517L19.7478 9.02201C19.7478 8.77914 19.7725 8.42994 19.5861 8.23593C19.4364 8.09406 19.2081 8.06316 18.8392 8.06316H17.7392V9.53093H16.7146L16.7144 5.49565ZM12.5838 5.49565H16.0068V6.33595H13.6085V7.06332H15.9492V7.89049H13.6085V8.69637H16.0068V9.53089H12.5838V5.49565Z" fill="#CCCFD3"/>
</svg>
