<svg width="50" height="30" viewBox="0 0 50 30" fill="none" xmlns="http://www.w3.org/2000/svg">
<path d="M46.7302 0H3.26984C1.46396 0 0 1.39547 0 3.11688V26.8831C0 28.6045 1.46396 30 3.26984 30H46.7302C48.536 30 50 28.6045 50 26.8831V3.11688C50 1.39547 48.536 0 46.7302 0Z" fill="white"/>
<path d="M16.928 15.4635C16.3763 14.7502 16.1898 13.9552 16.3652 13.0879C16.4917 12.4621 16.8515 11.9596 17.3304 11.5279C17.4654 11.4058 17.6041 11.2877 17.7407 11.1677C17.7354 11.1575 17.7327 11.1494 17.7274 11.1433C17.6695 11.0785 17.6121 11.0136 17.5531 10.9498C17.0832 10.4411 16.5225 10.0769 15.8124 9.94564C15.2639 9.84431 14.7239 9.88737 14.1924 10.0378C13.8347 10.1392 13.4807 10.2527 13.1224 10.353C12.8684 10.4239 12.609 10.4528 12.3464 10.3895C12.1625 10.3449 11.977 10.3074 11.7953 10.2567C11.3589 10.1356 10.9241 10.01 10.4692 9.96691C9.55496 9.88078 8.77577 10.1432 8.14275 10.7826C7.53151 11.3997 7.20783 12.1465 7.07602 12.9744C6.92667 13.9127 7.00107 14.8398 7.26682 15.7533C7.56553 16.7808 8.05293 17.7226 8.69286 18.5936C8.94799 18.9411 9.24296 19.2568 9.61555 19.4969C9.98495 19.735 10.3878 19.8663 10.8332 19.7654C11.1165 19.7011 11.3913 19.6018 11.6656 19.5055C12.0254 19.3789 12.3874 19.2674 12.7775 19.2765C13.0927 19.2836 13.3951 19.3546 13.6944 19.4427C13.9846 19.5283 14.2726 19.619 14.5639 19.7001C15.1475 19.8622 15.6657 19.7249 16.1281 19.3682C16.2642 19.2634 16.3971 19.1514 16.5151 19.0283C17.1481 18.3671 17.6121 17.6046 17.9687 16.7808C18.0299 16.6394 18.0804 16.494 18.1372 16.3461C18.074 16.3233 18.0224 16.3056 17.9714 16.2858C17.5334 16.1156 17.2044 15.8197 16.9286 15.463L16.928 15.4635ZM13.3265 9.96083C13.6624 9.83417 13.934 9.61834 14.1801 9.37211C14.7255 8.82696 15.0359 8.17947 15.0911 7.42659C15.1012 7.28878 15.0795 7.14845 15.072 7C13.3515 7.33793 12.4613 8.42519 12.4187 10.1062C12.4235 10.1088 12.4288 10.1138 12.4331 10.1133C12.7366 10.0921 13.0406 10.0687 13.3265 9.96134V9.96083ZM27.4987 9.68471C26.8284 9.10967 25.7723 8.78998 24.3309 8.78998C23.1578 8.78998 22.2357 8.88573 21.532 8.9977V19.6383H22.9899V15.3247C23.3253 15.4047 23.7276 15.4204 24.1629 15.4204C25.5874 15.4204 26.8444 15.0212 27.6156 14.2384C28.1854 13.6791 28.4873 12.9126 28.4873 11.9378C28.4873 10.963 28.1184 10.1964 27.4981 9.68522L27.4987 9.68471ZM24.1969 14.3018C23.7111 14.3018 23.3088 14.2699 22.9899 14.1898V10.0039C23.2413 9.94006 23.7276 9.89193 24.3644 9.89193C25.9733 9.89193 27.0293 10.5789 27.0293 12.0011C27.0293 13.4233 25.9568 14.3018 24.1969 14.3018ZM41.3737 11.9053L39.7648 16.4429C39.5639 17.0022 39.3959 17.5929 39.245 18.0565H39.2115C39.0776 17.5929 38.8761 16.986 38.6917 16.4748L36.9154 11.9053H35.3065L38.3069 19.0308C38.3739 19.2066 38.4073 19.3186 38.4073 19.3981C38.4073 19.4777 38.3574 19.5896 38.2899 19.7335C37.9545 20.4525 37.4517 20.9956 37.0493 21.2991C36.6135 21.6507 36.1277 21.8741 35.7588 21.9861L36.1277 23.1686C36.4966 23.1047 37.2173 22.8651 37.938 22.2581C38.9436 21.4272 39.6644 20.0694 40.7205 17.4171L42.9331 11.9053H41.3742H41.3737ZM34.9563 14.893C34.9563 13.3432 34.353 11.7295 31.8724 11.7295C30.8498 11.7295 29.8782 12.0011 29.2075 12.4165L29.5428 13.3432C30.1126 12.9916 30.9003 12.7682 31.6545 12.7682C33.3139 12.7682 33.4983 13.9182 33.4983 14.5576V14.7172C30.364 14.701 28.6207 15.7239 28.6207 17.5929C28.6207 18.7111 29.4589 19.8136 31.1012 19.8136C32.2578 19.8136 33.1295 19.2704 33.5818 18.6635H33.6323L33.7497 19.6383H35.0907C34.9903 19.1109 34.9568 18.4558 34.9568 17.785V14.893H34.9563ZM33.5318 17.0341C33.5318 17.178 33.4983 17.3376 33.4478 17.4815C33.2134 18.1366 32.5427 18.7755 31.4871 18.7755C30.7329 18.7755 30.0961 18.3443 30.0961 17.4333C30.0961 15.9317 31.9229 15.6601 33.5323 15.692V17.0341H33.5318Z" fill="#595959"/>
</svg>
