<svg width="38" height="22" viewBox="0 0 38 22" fill="none" xmlns="http://www.w3.org/2000/svg">
<rect x="0.392857" y="0.392857" width="37.2143" height="21.2143" rx="4.32143" stroke="#CCCFD3" stroke-width="0.785714"/>
<path fill-rule="evenodd" clip-rule="evenodd" d="M10.3881 7.01693C10.07 7.41435 9.561 7.72781 9.05202 7.68303C8.98839 7.14567 9.23759 6.57472 9.52919 6.22208C9.84731 5.81346 10.404 5.52239 10.8547 5.5C10.9077 6.05975 10.7009 6.60831 10.3881 7.01693ZM10.8493 7.78937C10.4008 7.76212 9.99169 7.93174 9.66121 8.06874C9.44853 8.15691 9.26843 8.23157 9.13142 8.23157C8.97766 8.23157 8.79013 8.15292 8.57957 8.06461C8.30368 7.94889 7.98825 7.8166 7.65748 7.82295C6.8993 7.83415 6.19414 8.28754 5.8071 9.00962C5.0118 10.4538 5.60032 12.592 6.3691 13.7675C6.74554 14.3496 7.19621 14.9878 7.79003 14.9654C8.05127 14.955 8.23919 14.8708 8.43368 14.7837C8.65758 14.6833 8.89018 14.5791 9.25336 14.5791C9.60396 14.5791 9.82638 14.6806 10.0399 14.778C10.2429 14.8707 10.4379 14.9596 10.7273 14.9542C11.3423 14.943 11.7294 14.372 12.1058 13.7899C12.5121 13.1651 12.6906 12.5553 12.7177 12.4628L12.7208 12.4521C12.7208 12.4521 12.7152 12.449 12.7063 12.4447C12.5705 12.3791 11.5326 11.8774 11.5226 10.5321C11.5126 9.403 12.3459 8.83091 12.4771 8.74085C12.485 8.73537 12.4904 8.73167 12.4929 8.72975C11.9627 7.90132 11.1356 7.81176 10.8493 7.78937ZM15.1068 14.8926V6.16609H18.2085C19.8096 6.16609 20.9284 7.33037 20.9284 9.03201C20.9284 10.7337 19.7884 11.9091 18.166 11.9091H16.3899V14.8926H15.1068ZM16.3896 7.308H17.8689C18.9823 7.308 19.6185 7.93492 19.6185 9.03763C19.6185 10.1403 18.9823 10.7729 17.8636 10.7729H16.3896V7.308ZM25.1645 13.8459C24.8252 14.5288 24.0776 14.9598 23.2717 14.9598C22.0788 14.9598 21.2463 14.2097 21.2463 13.079C21.2463 11.9595 22.0522 11.3158 23.5421 11.2207L25.1433 11.1199V10.6385C25.1433 9.92763 24.7032 9.5414 23.9185 9.5414C23.2717 9.5414 22.7998 9.89404 22.7044 10.4314H21.5486C21.5857 9.30071 22.593 8.47787 23.9556 8.47787C25.4243 8.47787 26.3786 9.28951 26.3786 10.549V14.8926H25.191V13.8459H25.1645ZM23.6164 13.9242C22.9324 13.9242 22.4977 13.5772 22.4977 13.0454C22.4977 12.4969 22.9165 12.1778 23.7171 12.1274L25.1433 12.0323V12.5249C25.1433 13.3421 24.4859 13.9242 23.6164 13.9242ZM30.318 15.2341C29.8037 16.7622 29.2152 17.266 27.9639 17.266C27.8685 17.266 27.5504 17.2548 27.4761 17.2324V16.1856C27.5557 16.1968 27.7519 16.208 27.8526 16.208C28.4199 16.208 28.738 15.9561 28.9342 15.3012L29.0508 14.915L26.877 8.56183H28.2184L29.7295 13.7171H29.756L31.267 8.56183H32.5713L30.318 15.2341Z" fill="#CCCFD3"/>
</svg>
