<svg width="38" height="22" viewBox="0 0 38 22" fill="none" xmlns="http://www.w3.org/2000/svg">
<rect x="0.392857" y="0.392857" width="37.2143" height="21.2143" rx="4.32143" stroke="#CCCFD3" stroke-width="0.785714"/>
<path fill-rule="evenodd" clip-rule="evenodd" d="M17.9467 14.3573V11.0343H19.6395C20.3332 11.0343 20.9187 10.7988 21.396 10.3344L21.5105 10.2166C22.3824 9.25504 22.3251 7.75706 21.396 6.86742C20.9314 6.39644 20.295 6.14133 19.6395 6.15441H16.9221V14.3573H17.9467ZM17.9467 10.0269V7.16174H19.6653C20.0344 7.16174 20.3845 7.30565 20.6455 7.56731C21.1992 8.11679 21.212 9.03258 20.6773 9.60169C20.4163 9.88297 20.0472 10.04 19.6653 10.0269H17.9467Z" fill="#CCCFD3"/>
<path fill-rule="evenodd" clip-rule="evenodd" d="M26.29 9.18306C25.8508 8.77095 25.2526 8.56162 24.4953 8.56162C23.5216 8.56162 22.7898 8.92794 22.3061 9.65404L23.2098 10.2362C23.5407 9.73908 23.9926 9.4905 24.5653 9.4905C24.9281 9.4905 25.2781 9.62787 25.5517 9.87645C25.819 10.1119 25.9718 10.4521 25.9718 10.8119V11.0539C25.5772 10.8315 25.0808 10.7137 24.4699 10.7137C23.7571 10.7137 23.1844 10.8838 22.758 11.2305C22.3316 11.5772 22.1152 12.0351 22.1152 12.6173C22.1025 13.1472 22.3252 13.6508 22.7198 13.991C23.1207 14.3573 23.6298 14.5405 24.228 14.5405C24.9344 14.5405 25.4945 14.2199 25.9208 13.5789H25.9654V14.3573H26.9454V10.8969C26.9454 10.1708 26.7291 9.59517 26.29 9.18306ZM23.5091 13.3238C23.2991 13.1668 23.1718 12.9117 23.1718 12.6369C23.1718 12.3295 23.3118 12.0744 23.5855 11.8716C23.8656 11.6688 24.2156 11.5642 24.6294 11.5642C25.2022 11.5576 25.6477 11.6884 25.966 11.9501C25.966 12.3949 25.7941 12.7809 25.4568 13.1079C25.1513 13.4219 24.7376 13.5985 24.3047 13.5985C24.0183 13.6051 23.7383 13.507 23.5091 13.3238Z" fill="#CCCFD3"/>
<path d="M29.1474 16.8234L32.5712 8.74477H31.4575L29.8729 12.7743H29.8538L28.231 8.74477H27.1173L29.3638 13.9975L28.091 16.8234H29.1474Z" fill="#CCCFD3"/>
<path d="M14.4095 10.3148C14.4095 9.99423 14.384 9.6737 14.3331 9.35971H10.012V11.1717H12.4876C12.3857 11.7539 12.0548 12.2772 11.5712 12.6043V13.7817H13.0476C13.9131 12.964 14.4095 11.7539 14.4095 10.3148Z" fill="#4285F4"/>
<path d="M10.0122 14.9199C11.2468 14.9199 12.2903 14.5013 13.0476 13.7817L11.5712 12.6043C11.1575 12.8921 10.6295 13.0556 10.0122 13.0556C8.81576 13.0556 7.80389 12.2249 7.44114 11.1128H5.92016V12.3295C6.69656 13.9191 8.28118 14.9199 10.0122 14.9199Z" fill="#34A853"/>
<path d="M7.44114 11.1128C7.2502 10.5306 7.25043 9.89612 7.44138 9.30739V8.09723H5.92016C5.26457 9.42514 5.26457 10.9951 5.92016 12.323L7.44114 11.1128Z" fill="#FBBC04"/>
<path d="M10.0122 7.36459C10.6677 7.35151 11.2977 7.60662 11.7686 8.07106L13.0796 6.72353C12.2459 5.92548 11.1513 5.4872 10.0122 5.50028C8.28118 5.50028 6.69656 6.50766 5.92016 8.09723L7.44114 9.31393C7.80389 8.19535 8.81576 7.36459 10.0122 7.36459Z" fill="#CCCFD3"/>
</svg>
