<svg width="50" height="30" viewBox="0 0 50 30" fill="none" xmlns="http://www.w3.org/2000/svg">
<path d="M46.7302 0H3.26981C1.46393 0 0 1.39547 0 3.11688V26.8831C0 28.6045 1.46393 30 3.26981 30H46.7302C48.536 30 50 28.6045 50 26.8831V3.11688C50 1.39547 48.536 0 46.7302 0Z" fill="white"/>
<path d="M24.3406 9.91915V13.2204H26.4767C26.9853 13.2204 27.4063 13.0573 27.739 12.7315C28.0813 12.4063 28.2519 12.0182 28.2519 11.5693C28.2519 11.1204 28.0813 10.746 27.739 10.4202C27.4058 10.0858 26.9853 9.91813 26.4767 9.91813H24.3406V9.91915ZM24.3406 14.3832V18.2129H23.0649V8.7569H26.449C27.309 8.7569 28.0377 9.02998 28.6394 9.57564C29.2506 10.1213 29.5557 10.786 29.5557 11.5693C29.5557 12.3526 29.2512 13.0401 28.6394 13.5766C28.0478 14.1142 27.3175 14.3822 26.449 14.3822H24.3406V14.3832Z" fill="#595959"/>
<path d="M30.8449 16.2315C30.8449 16.5491 30.9858 16.8126 31.268 17.0244C31.5508 17.2351 31.8803 17.341 32.2598 17.341C32.7966 17.341 33.2739 17.1515 33.6943 16.7731C34.1153 16.3941 34.3258 15.9503 34.3258 15.4401C33.9282 15.1402 33.3733 14.9907 32.6616 14.9907C32.1439 14.9907 31.7113 15.1098 31.3653 15.3474C31.0187 15.585 30.8449 15.8788 30.8449 16.231M32.4958 11.5298C33.4392 11.5298 34.1833 11.7694 34.7292 12.2497C35.275 12.73 35.5466 13.3877 35.5466 14.2236V18.212H34.3263V17.3142H34.271C33.7443 18.0534 33.0416 18.4227 32.1636 18.4227C31.4147 18.4227 30.787 18.2119 30.2842 17.7894C29.7798 17.3664 29.5278 16.8389 29.5278 16.2036C29.5278 15.5348 29.7931 15.0024 30.3246 14.6067C30.8566 14.2105 31.5662 14.0119 32.4538 14.0119C33.2117 14.0119 33.8362 14.1441 34.3258 14.4081V14.1304C34.3258 13.7079 34.1504 13.3497 33.799 13.0543C33.4472 12.7589 33.0369 12.612 32.5649 12.612C31.8527 12.612 31.2893 12.8977 30.8731 13.4708L29.7489 12.7969C30.3692 11.9518 31.284 11.5293 32.4958 11.5293" fill="#595959"/>
<path d="M42.5513 11.7415L38.2923 21.0648H36.9752L38.5565 17.803L35.7549 11.7415H37.1426L39.1671 16.39H39.1943L41.1635 11.7415H42.5513Z" fill="#595959"/>
<path d="M10.5023 14.4734C10.387 14.1451 10.3232 13.795 10.3232 13.4332C10.3232 13.0715 10.3864 12.7219 10.5023 12.3931V10.9932H8.6075C8.2195 11.7268 8 12.5552 8 13.4327C8 14.3102 8.2195 15.1396 8.6075 15.8722L10.5023 14.4724V14.4734Z" fill="#595959"/>
<path d="M19.1849 13.5574C19.1849 13.1749 19.1509 12.8055 19.0866 12.4524H13.7056V14.5448H16.7878C16.6554 15.2273 16.2558 15.8074 15.6482 16.196V17.5548H17.4878C18.5646 16.6089 19.1849 15.2106 19.1849 13.5574Z" fill="#595959"/>
<path d="M13.7056 18.867C15.2454 18.867 16.5418 18.3852 17.4879 17.5548L15.6483 16.196C15.1365 16.5243 14.4769 16.7163 13.7056 16.7163C12.2174 16.7163 10.954 15.7608 10.5022 14.4734H8.60742V15.8733C9.5466 17.6485 11.4765 18.8675 13.7056 18.8675" fill="#595959"/>
<path d="M13.7056 10.1507C14.5465 10.1507 15.3002 10.4258 15.8949 10.9654V10.9664L17.5235 9.41556C16.5343 8.53856 15.2449 8 13.7056 8C11.4765 8 9.54606 9.21848 8.60742 10.9933L10.5022 12.3931C10.954 11.1057 12.2174 10.1507 13.7056 10.1507Z" fill="#595959"/>
</svg>
