<svg width="50" height="30" viewBox="0 0 50 30" fill="none" xmlns="http://www.w3.org/2000/svg">
<path d="M46.7302 0H3.26984C1.46395 0 0 1.39547 0 3.11688V26.8831C0 28.6045 1.46395 30 3.26984 30H46.7302C48.536 30 50 28.6045 50 26.8831V3.11688C50 1.39547 48.536 0 46.7302 0Z" fill="white"/>
<path d="M28.8342 8.76917H21.2427V21.7717H28.8342V8.76917Z" fill="#868686"/>
<path d="M21.7242 15.27C21.7242 12.6283 23.0254 10.2851 25.026 8.7687C23.5558 7.66624 21.7003 7 19.6758 7C14.88 7 11 10.6985 11 15.27C11 19.8414 14.88 23.5399 19.6758 23.5399C21.7003 23.5399 23.5558 22.8737 25.026 21.7713C23.0259 20.2782 21.7242 17.9121 21.7242 15.27Z" fill="#595959"/>
<path d="M39.0767 15.27C39.0767 19.8414 35.1967 23.5399 30.4009 23.5399C28.3764 23.5399 26.5209 22.8737 25.0508 21.7713C27.0753 20.2549 28.3525 17.9121 28.3525 15.27C28.3525 12.6278 27.0514 10.2851 25.0508 8.7687C26.5209 7.66624 28.3764 7 30.4009 7C35.1967 7 39.0767 10.7213 39.0767 15.27Z" fill="#B1B1B1"/>
</svg>
