<svg width="38" height="22" viewBox="0 0 38 22" fill="none" xmlns="http://www.w3.org/2000/svg">
<rect x="0.392857" y="0.392857" width="37.2143" height="21.2143" rx="4.32143" stroke="#CCCFD3" stroke-width="0.785714"/>
<path d="M19.0114 15.7094C17.9321 16.6311 16.5321 17.1875 15.0022 17.1875C11.5887 17.1875 8.82153 14.4173 8.82153 11C8.82153 7.58274 11.5887 4.8125 15.0022 4.8125C16.5321 4.8125 17.9321 5.36892 19.0114 6.29063C20.0906 5.36892 21.4906 4.8125 23.0205 4.8125C26.434 4.8125 29.2012 7.58274 29.2012 11C29.2012 14.4173 26.434 17.1875 23.0205 17.1875C21.4906 17.1875 20.0906 16.6311 19.0114 15.7094Z" fill="#B8B9BA"/>
<path d="M19.0115 15.7093C20.3404 14.5744 21.183 12.8857 21.183 11C21.183 9.11427 20.3404 7.42556 19.0115 6.29066C20.0908 5.36893 21.4908 4.8125 23.0206 4.8125C26.4341 4.8125 29.2013 7.58274 29.2013 11C29.2013 14.4173 26.4341 17.1875 23.0206 17.1875C21.4908 17.1875 20.0908 16.6311 19.0115 15.7093Z" fill="#CCCFD3"/>
<path d="M19.0114 15.7094C20.3403 14.5745 21.183 12.8858 21.183 11C21.183 9.11427 20.3403 7.42555 19.0114 6.29065C17.6825 7.42555 16.8398 9.11427 16.8398 11C16.8398 12.8858 17.6825 14.5745 19.0114 15.7094Z" fill="#B8B9BA"/>
</svg>
