<svg width="50" height="30" viewBox="0 0 50 30" fill="none" xmlns="http://www.w3.org/2000/svg">
<path d="M46.7302 0H3.26984C1.46396 0 0 1.39548 0 3.11688V26.8831C0 28.6045 1.46396 30 3.26984 30H46.7302C48.536 30 50 28.6045 50 26.8831V3.11688C50 1.39548 48.536 0 46.7302 0Z" fill="white"/>
<path d="M7 9H12.8719V14.6036H7V9Z" fill="#595959"/>
<path d="M13.4849 9H19.3568V14.6036H13.4849V9Z" fill="#595959"/>
<path d="M7 15.1885H12.8719V20.792H7V15.1885Z" fill="#595959"/>
<path d="M13.4849 15.1885H19.3568V20.792H13.4849V15.1885Z" fill="#595959"/>
<path d="M24.7756 16.3834V19.7535H23.0659V10.1795H26.0599C26.6737 10.1795 27.2054 10.2545 27.6548 10.4046C28.1043 10.5547 28.4752 10.7644 28.7676 11.0336C29.06 11.3029 29.2751 11.6251 29.4152 12.0003C29.5554 12.3755 29.6255 12.786 29.6255 13.2318C29.6255 13.6952 29.5506 14.1213 29.4032 14.5097C29.2545 14.8937 29.0322 15.2247 28.735 15.5028C28.439 15.7809 28.068 15.9972 27.6234 16.1517C27.1788 16.3062 26.6568 16.3834 26.0599 16.3834H24.7756ZM24.7756 14.993H26.0599C26.3729 14.993 26.6472 14.9533 26.8791 14.8739C27.1123 14.7899 27.3056 14.673 27.4579 14.5229C27.6101 14.3684 27.7249 14.1831 27.801 13.9668C27.8771 13.7461 27.9158 13.5011 27.9158 13.2318C27.9158 12.9758 27.8771 12.744 27.801 12.5366C27.7249 12.3291 27.6101 12.1526 27.4579 12.0069C27.3056 11.8613 27.1123 11.7509 26.8791 11.6759C26.6472 11.5964 26.3729 11.5567 26.0599 11.5567H24.7756V14.993Z" fill="#595959"/>
<path d="M35.6508 19.7536H34.9451C34.7977 19.7536 34.6805 19.7316 34.596 19.6874C34.5114 19.6389 34.4474 19.544 34.4051 19.4027L34.2661 18.9194C34.1006 19.0739 33.9375 19.2108 33.7768 19.3299C33.6197 19.4446 33.4566 19.5418 33.2874 19.6212C33.1171 19.7007 32.937 19.7603 32.7461 19.8C32.5564 19.8397 32.3438 19.8596 32.1106 19.8596C31.8363 19.8596 31.5814 19.8221 31.3482 19.747C31.115 19.6676 30.9144 19.5506 30.7453 19.3961C30.5798 19.2415 30.4505 19.0496 30.3574 18.8201C30.2644 18.5906 30.2173 18.3235 30.2173 18.0189C30.2173 17.7629 30.2813 17.5113 30.4082 17.2641C30.5399 17.0125 30.755 16.7874 31.0558 16.5888C31.3567 16.3858 31.7578 16.218 32.2568 16.0855C32.757 15.9532 33.3781 15.8781 34.1199 15.8604V15.4632C34.1199 15.0085 34.0269 14.6731 33.8396 14.4568C33.6572 14.2361 33.3913 14.1257 33.0385 14.1257C32.7848 14.1257 32.5734 14.1566 32.403 14.2184C32.2338 14.2802 32.0852 14.3508 31.9584 14.4303C31.8363 14.5053 31.7215 14.5738 31.6152 14.6356C31.5101 14.6974 31.3929 14.7283 31.266 14.7283C31.1597 14.7283 31.0691 14.6996 30.993 14.6422C30.9169 14.5848 30.8552 14.5142 30.8081 14.4303L30.5218 13.9072C31.2721 13.1921 32.1771 12.8346 33.2367 12.8346C33.6173 12.8346 33.9568 12.9009 34.2528 13.0333C34.5537 13.1612 34.8074 13.3423 35.0152 13.5762C35.223 13.8057 35.3801 14.0816 35.4864 14.4038C35.5964 14.726 35.6508 15.0792 35.6508 15.4632V19.7536ZM32.6012 18.734C32.7618 18.734 32.9105 18.7185 33.0458 18.6876C33.1811 18.6567 33.308 18.6104 33.4264 18.5486C33.5496 18.4868 33.6656 18.4117 33.7768 18.3235C33.8903 18.2308 34.0051 18.1227 34.1199 17.9991V16.8537C33.662 16.8757 33.279 16.9176 32.9697 16.9795C32.664 17.0368 32.4187 17.1118 32.2314 17.2045C32.0454 17.2972 31.9124 17.4054 31.8315 17.529C31.7554 17.6526 31.7167 17.7871 31.7167 17.9329C31.7167 18.2197 31.7977 18.425 31.9584 18.5486C32.1239 18.6722 32.3378 18.734 32.6012 18.734Z" fill="#595959"/>
<path d="M39.2846 21.6204C39.2375 21.7352 39.1758 21.8213 39.0997 21.8786C39.0272 21.9404 38.9149 21.9714 38.7626 21.9714H37.5931L38.8134 19.2502L36.1758 12.9601H37.5496C37.6764 12.9601 37.7731 12.991 37.8419 13.0528C37.9096 13.1146 37.9604 13.1853 37.9942 13.2648L39.3861 16.7871C39.432 16.902 39.4731 17.0209 39.5069 17.1445C39.5407 17.2682 39.5697 17.3918 39.5951 17.5154C39.6289 17.3874 39.6652 17.2638 39.7039 17.1445C39.7461 17.0254 39.7908 16.9041 39.8368 16.7805L41.1465 13.2648C41.1803 13.1764 41.2347 13.1037 41.3108 13.0463C41.3918 12.9889 41.4812 12.9601 41.5778 12.9601H42.8368L39.2846 21.6204Z" fill="#595959"/>
</svg>
