<svg width="50" height="30" viewBox="0 0 50 30" fill="none" xmlns="http://www.w3.org/2000/svg">
<path d="M46.7302 0H3.26983C1.46395 0 0 1.39548 0 3.11688V26.8831C0 28.6045 1.46395 30 3.26983 30H46.7302C48.536 30 50 28.6045 50 26.8831V3.11688C50 1.39548 48.536 0 46.7302 0Z" fill="white"/>
<path d="M24.8836 10.1743L22.7405 19.7246H20.1484L22.2914 10.1743H24.883H24.8836ZM35.788 16.3412L37.1524 12.7546L37.9374 16.3412H35.788ZM38.681 19.7246H41.0776L38.9834 10.1743H36.7723C36.2743 10.1743 35.8544 10.4499 35.6684 10.8745L31.7788 19.7246H34.5007L35.0412 18.2983H38.3663L38.6805 19.7246H38.681ZM31.9144 16.6067C31.9261 14.0861 28.2592 13.9468 28.2836 12.8205C28.2916 12.478 28.6339 12.1137 29.3828 12.0205C29.7543 11.9749 30.778 11.9379 31.9393 12.4481L32.3933 10.422C31.7698 10.2072 30.9672 10 29.969 10C27.4066 10 25.6038 11.2975 25.5894 13.1569C25.5729 14.5319 26.8773 15.2985 27.8574 15.7565C28.8683 16.2246 29.2069 16.5251 29.2021 16.9431C29.1952 17.584 28.3958 17.8672 27.6522 17.8783C26.3479 17.8976 25.5926 17.5424 24.9899 17.2749L24.5195 19.3684C25.1259 19.6329 26.2437 19.8634 27.4008 19.875C30.1248 19.875 31.9059 18.5927 31.9138 16.6072M21.179 10.1748L16.979 19.7251H14.2396L12.1726 12.1031C12.0471 11.6344 11.9382 11.4622 11.5571 11.2641C10.9336 10.9413 9.90463 10.6394 9 10.4519L9.06112 10.1748H13.4716C14.0334 10.1748 14.5388 10.531 14.6675 11.1481L15.7592 16.6751L18.4555 10.1748H21.1784H21.179Z" fill="#595959"/>
</svg>
