<svg width="38" height="22" viewBox="0 0 38 22" fill="none" xmlns="http://www.w3.org/2000/svg">
<rect x="0.392857" y="0.392857" width="37.2143" height="21.2143" rx="4.32143" stroke="#CCCFD3" stroke-width="0.785714"/>
<path d="M23.3986 6.1875C24.2917 6.1875 25.014 6.39565 25.4694 6.58417L25.1554 8.59612L24.9466 8.49718C24.5288 8.30879 23.9774 8.12054 23.2268 8.14043C22.3153 8.14043 21.9065 8.54659 21.897 8.94313C21.897 9.37932 22.3916 9.66678 23.199 10.0931C24.5292 10.7572 25.1462 11.5699 25.137 12.6306C25.1183 14.5635 23.5412 15.8125 21.1187 15.8125C20.083 15.8025 19.0854 15.574 18.5439 15.3166L18.867 13.2251L19.171 13.374C19.9215 13.7212 20.4154 13.8696 21.3371 13.8696C22.0018 13.8696 22.7145 13.5819 22.7236 12.9577C22.7236 12.5513 22.42 12.2536 21.5268 11.7977C20.6529 11.3515 19.4844 10.6082 19.5034 9.26998C19.5132 7.45617 21.1187 6.1875 23.3986 6.1875Z" fill="#CCCFD3"/>
<path d="M14.7914 15.6736H17.1001L18.544 6.3564H16.2354L14.7914 15.6736Z" fill="#CCCFD3"/>
<path fill-rule="evenodd" clip-rule="evenodd" d="M31.3876 6.3564H29.6018C29.0511 6.3564 28.6327 6.52476 28.3951 7.12945L24.9659 15.6735H27.3883C27.3883 15.6735 27.7871 14.5235 27.8729 14.2759H30.837C30.9033 14.603 31.1125 15.6735 31.1125 15.6735H33.2501L31.3876 6.3564ZM28.5378 12.3729C28.7279 11.8376 29.4595 9.76598 29.4595 9.76598C29.4557 9.77402 29.4859 9.68663 29.5308 9.55674C29.597 9.36504 29.6953 9.08072 29.7633 8.87397L29.9246 9.67679C29.9246 9.67679 30.3618 11.907 30.4568 12.3729H28.5378Z" fill="#CCCFD3"/>
<path d="M10.6021 12.7099L12.8631 6.3564H15.3043L11.6754 15.6638H9.23406L7.16309 7.51585C8.62605 8.31907 9.93701 9.93448 10.355 11.4213L10.6021 12.7099Z" fill="#CCCFD3"/>
<path d="M8.50247 6.35632H4.788L4.75 6.54458C7.64752 7.31777 9.56649 9.18151 10.3549 11.4216L9.54743 7.13952C9.41449 6.54445 9.00595 6.37595 8.50247 6.35632Z" fill="#CCCFD3"/>
</svg>
