<svg width="369" height="214" viewBox="0 0 369 214" fill="none"
    xmlns="http://www.w3.org/2000/svg">
    <mask id="mask0_157_2220" style="mask-type:alpha" maskUnits="userSpaceOnUse" x="0" y="0" width="369" height="214">
        <rect width="369" height="214" fill="white"/>
    </mask>
    <g mask="url(#mask0_157_2220)">
        <ellipse opacity="0.5" cx="297.765" cy="78.5" rx="107.113" ry="104.5" fill="#FFFADD"/>
        <g opacity="0.5">
            <path d="M285.882 125.32L267.82 111.634L299.548 71.694L317.609 85.3795L285.882 125.32Z" fill="#F4ECA8"/>
            <path d="M311.522 81.62L293.461 67.9345L325.189 27.994L343.25 41.6795L311.522 81.62Z" fill="#FFFDF3"/>
            <path d="M259.329 131.32L262.039 106.533L283.23 122.568L259.329 131.32V131.32Z" fill="white"/>
            <path d="M259.33 131.67C259.33 131.67 259.691 128.616 260.113 124.622C260.173 124.152 260.233 123.623 260.293 123.095C260.293 123.212 267.759 128.616 267.759 128.557C268.662 128.087 259.33 131.67 259.33 131.67V131.67Z" fill="#757072"/>
        </g>
    </g>
</svg>
