<svg width="369" height="214" viewBox="0 0 369 214" fill="none"
    xmlns="http://www.w3.org/2000/svg">
    <mask id="mask0_839_894" style="mask-type:alpha" maskUnits="userSpaceOnUse" x="0" y="0" width="369" height="214">
        <rect y="6.10352e-05" width="369" height="214" fill="white"/>
    </mask>
    <g mask="url(#mask0_839_894)">
        <ellipse opacity="0.5" cx="297.765" cy="78.5001" rx="107.113" ry="104.5" fill="#FFFADD"/>
        <g opacity="0.3">
            <path d="M285.878 125.324L267.816 111.639L299.544 71.6983L317.605 85.3838L285.878 125.324Z" fill="#D98C93"/>
            <path d="M311.522 81.6248L293.461 67.9393L325.189 27.9988L343.25 41.6843L311.522 81.6248Z" fill="#F4BABF"/>
            <path d="M259.329 131.316L262.039 106.53L283.23 122.565L259.329 131.316V131.316Z" fill="#D8D3D3"/>
            <path d="M259.33 131.668C259.33 131.668 259.691 128.614 260.113 124.62C260.173 124.15 260.233 123.621 260.293 123.093C260.293 123.21 267.759 128.614 267.759 128.555C268.662 128.085 259.33 131.668 259.33 131.668V131.668Z" fill="#757072"/>
        </g>
    </g>
</svg>