<svg width="14" height="14" viewBox="0 0 14 14" fill="none"
  xmlns="http://www.w3.org/2000/svg">
  <g clip-path="url(#clip0_441_2646)">
    <path d="M9.99998 2.50098H1.5C0.671572 2.50098 0 3.17255 0 4.00098V12.501C0 13.3294 0.671572 14.001 1.5 14.001H9.99998C10.8284 14.001 11.5 13.3294 11.5 12.501V4.00098C11.5 3.17255 10.8284 2.50098 9.99998 2.50098Z" fill="white"/>
    <path d="M12.5 9.68561e-10H3.5C2.67605 -2.92959e-05 2.00633 0.66457 2 1.48849C2 1.4925 2 1.49599 2 1.5H10C11.38 1.50164 12.4984 2.61996 12.5 3.99999V12C12.504 12 12.5075 12 12.5115 12C13.3354 11.9937 14 11.3239 14 10.5V1.5C14 0.671572 13.3284 9.68561e-10 12.5 9.68561e-10Z" fill="white"/>
  </g>
  <defs>
    <clipPath id="clip0_441_2646">
      <rect width="14" height="14" fill="white"/>
    </clipPath>
  </defs>
</svg>
