<svg width="20" height="20" viewBox="0 0 20 20" fill="none" xmlns="http://www.w3.org/2000/svg">
<g clip-path="url(#clip0_161_1956)">
<path d="M0.250553 9.76729C-0.111996 9.36855 -0.0769863 8.75742 0.328722 8.40263L9.26698 0.5816C9.67269 0.22681 10.3231 0.234242 10.7203 0.598355L19.6889 8.81961C20.0861 9.18373 20.1056 9.79408 19.7321 10.1823L19.5072 10.4165C19.1342 10.8047 18.5312 10.851 18.1613 10.5196L17.491 9.91932V18.7071C17.491 19.2462 17.0542 19.6827 16.5154 19.6827H13.0194C12.4806 19.6827 12.0438 19.2462 12.0438 18.7071V12.5592H7.58457V18.7071C7.59232 19.2458 7.20683 19.6823 6.66806 19.6823H2.96317C2.42441 19.6823 1.98754 19.2458 1.98754 18.7067V10.0431C1.98754 10.0431 1.80238 10.2053 1.57401 10.406C1.34602 10.6063 0.867165 10.4457 0.504616 10.0466L0.250553 9.76729Z" fill="#2F2F2F"/>
</g>
<defs>
<clipPath id="clip0_161_1956">
<rect width="20" height="20" fill="white" transform="matrix(-1 0 0 1 20 0)"/>
</clipPath>
</defs>
</svg>