<svg width="24" height="25" viewBox="0 0 24 25" fill="none" xmlns="http://www.w3.org/2000/svg">
<path d="M11.8 10.1C11.1635 10.1 10.553 10.3529 10.1029 10.8029C9.65286 11.253 9.4 11.8635 9.4 12.5C9.4 13.1365 9.65286 13.747 10.1029 14.1971C10.553 14.6471 11.1635 14.9 11.8 14.9C12.4365 14.9 13.047 14.6471 13.4971 14.1971C13.9471 13.747 14.2 13.1365 14.2 12.5C14.2 11.8635 13.9471 11.253 13.4971 10.8029C13.047 10.3529 12.4365 10.1 11.8 10.1ZM11.8 16.5C10.7391 16.5 9.72172 16.0786 8.97157 15.3284C8.22143 14.5783 7.8 13.5609 7.8 12.5C7.8 11.4391 8.22143 10.4217 8.97157 9.67157C9.72172 8.92143 10.7391 8.5 11.8 8.5C12.8609 8.5 13.8783 8.92143 14.6284 9.67157C15.3786 10.4217 15.8 11.4391 15.8 12.5C15.8 13.5609 15.3786 14.5783 14.6284 15.3284C13.8783 16.0786 12.8609 16.5 11.8 16.5ZM11.8 6.5C7.8 6.5 4.384 8.988 3 12.5C4.384 16.012 7.8 18.5 11.8 18.5C15.8 18.5 19.216 16.012 20.6 12.5C19.216 8.988 15.8 6.5 11.8 6.5Z" fill="#8287A1"/>
</svg>
