<svg width="16" height="16" viewBox="0 0 16 16" fill="none" xmlns="http://www.w3.org/2000/svg">
<g clip-path="url(#clip0_161_2278)">
<path d="M8 3.23047C4.94303 3.23047 2.17081 4.90297 0.125192 7.61955C-0.0417306 7.84211 -0.0417306 8.15304 0.125192 8.37561C2.17081 11.0955 4.94303 12.768 8 12.768C11.057 12.768 13.8292 11.0955 15.8748 8.37888C16.0417 8.15631 16.0417 7.84538 15.8748 7.62282C13.8292 4.90297 11.057 3.23047 8 3.23047ZM8.21929 11.3573C6.19004 11.4849 4.51427 9.81245 4.64191 7.77992C4.74665 6.10415 6.10494 4.74586 7.78071 4.64113C9.80996 4.51348 11.4857 6.18598 11.3581 8.2185C11.2501 9.891 9.89179 11.2493 8.21929 11.3573ZM8.11783 9.8059C7.02465 9.87463 6.1213 8.97456 6.19331 7.88138C6.24895 6.97804 6.9821 6.24816 7.88545 6.18925C8.97862 6.12052 9.88197 7.02059 9.80996 8.11377C9.75105 9.02038 9.0179 9.75026 8.11783 9.8059Z" fill="#2F2F2F"/>
</g>
<defs>
<clipPath id="clip0_161_2278">
<rect width="16" height="16" fill="white"/>
</clipPath>
</defs>
</svg>
