<svg width="99" height="316" viewBox="0 0 99 316" fill="none" xmlns="http://www.w3.org/2000/svg">
<mask id="mask0_1161_908" style="mask-type:alpha" maskUnits="userSpaceOnUse" x="-1" y="0" width="768" height="316">
<path d="M-1 0H767V316H-1V0Z" fill="#FFFDF3"/>
</mask>
<g mask="url(#mask0_1161_908)">
<path d="M-39.5 396C36.9915 396 99 333.991 99 257.5C99 181.009 36.9915 119 -39.5 119C-115.991 119 -178 181.009 -178 257.5C-178 333.991 -115.991 396 -39.5 396Z" fill="#F4BABF"/>
</g>
<path d="M17.9879 167.604L8 177.208L8 158L17.9879 167.604V167.604Z" fill="#757072"/>
<path d="M17.9879 205.248L8 214.852L8 195.645L17.9879 205.248V205.248Z" fill="#757072"/>
<path d="M17.9879 243.667L8 253.271L8 234.063L17.9879 243.667V243.667Z" fill="#757072"/>
<path d="M17.9879 281.314L8 290.918L8 271.71L17.9879 281.314V281.314Z" fill="#757072"/>
<path d="M37.1988 186.808L27.2109 196.412L27.2109 177.204L37.1988 186.808Z" fill="#757072"/>
<path d="M37.1949 225.226L27.207 234.83L27.207 215.623L37.1949 225.226Z" fill="#757072"/>
<path d="M37.1949 262.871L27.207 272.475L27.207 253.268L37.1949 262.871Z" fill="#757072"/>
<path d="M56.402 206.022L46.4141 215.626V196.418L56.402 206.022Z" fill="#757072"/>
<path d="M56.402 243.667L46.4141 253.271V234.063L56.402 243.667Z" fill="#757072"/>
<path d="M75.609 225.226L65.6211 234.83V215.623L75.609 225.226Z" fill="#757072"/>
</svg>
