<svg width="86" height="241" viewBox="0 0 86 241" fill="none" xmlns="http://www.w3.org/2000/svg">
<path d="M-20.1172 48.3755L76.1496 144.642L-20.1172 240.909L-116.384 144.642L-20.1172 48.3755Z" fill="#F4BABF"/>
<path d="M15.9961 0H38.9961V23H15.9961V0Z" fill="#F4ECA8"/>
<path d="M12.069 177.591L20.3568 186.21L3.78125 186.21L12.069 177.591Z" fill="#757072"/>
<path d="M45.2213 177.591L53.5091 186.21L36.9336 186.21L45.2213 177.591Z" fill="#757072"/>
<path d="M77.7057 177.591L85.9935 186.21L69.418 186.21L77.7057 177.591Z" fill="#757072"/>
<path d="M-3.84506 161.015L4.44269 169.634L-12.1328 169.634L-3.84506 161.015Z" fill="#757072"/>
<path d="M29.3073 161.015L37.595 169.634L21.0195 169.634L29.3073 161.015Z" fill="#757072"/>
<path d="M61.7917 161.015L70.0794 169.634L53.5039 169.634L61.7917 161.015Z" fill="#757072"/>
<path d="M12.7331 144.441L21.0208 153.06L4.44531 153.06L12.7331 144.441Z" fill="#757072"/>
<path d="M45.2213 144.441L53.5091 153.06L36.9336 153.06L45.2213 144.441Z" fill="#757072"/>
<path d="M29.3073 127.865L37.595 136.484L21.0195 136.484L29.3073 127.865Z" fill="#757072"/>
</svg>
