<svg width="74" height="194" viewBox="0 0 74 194" fill="none" xmlns="http://www.w3.org/2000/svg">
<path d="M99.9961 194C153.568 194 196.996 150.572 196.996 97C196.996 43.4284 153.568 0 99.9961 0C46.4245 0 2.99609 43.4284 2.99609 97C2.99609 150.572 46.4245 194 99.9961 194Z" fill="#F4ECA8"/>
<path d="M89.6328 137.509L28.0115 137.509L28.0115 132.294L89.6328 132.294L89.6328 137.509Z" fill="white"/>
<path d="M89.6328 118.074L28.0115 118.074L28.0115 112.86L89.6328 112.86L89.6328 118.074Z" fill="white"/>
<path d="M89.6328 98.6398L28.0115 98.6397L28.0115 93.4257L89.6328 93.4257L89.6328 98.6398Z" fill="white"/>
<path d="M21.8947 88.5433L7.67439 77.4989L32.6547 45.2662L46.875 56.3107L21.8947 88.5433Z" fill="#D98C93"/>
<path d="M42.09 53.2771L27.8697 42.2327L52.85 10L67.0703 21.0444L42.09 53.2771Z" fill="#F4BABF"/>
<path d="M0.99432 93.3776L3.12737 73.3744L19.8125 86.3148L0.99432 93.3776Z" fill="#757072"/>
<path d="M0.995098 93.6627C0.995098 93.6627 1.2795 91.1979 1.61131 87.9746C1.65871 87.5954 1.7061 87.1688 1.7535 86.7422C1.7535 86.837 7.63122 91.1979 7.63122 91.1505C8.34224 90.7713 0.995098 93.6627 0.995098 93.6627Z" fill="#757072"/>
</svg>
