<svg width="328" height="420" viewBox="0 0 328 420" fill="none" xmlns="http://www.w3.org/2000/svg">
<path fill-rule="evenodd" clip-rule="evenodd" d="M58.9871 23.1347L102.93 99.1137C103.587 100.251 103.932 101.541 103.931 102.853C103.931 104.166 103.584 105.455 102.927 106.592C102.27 107.728 101.324 108.673 100.186 109.331C99.0475 109.988 97.7557 110.336 96.4402 110.338L8.50706 110.345C7.19034 110.343 5.89716 109.996 4.75741 109.338C3.61766 108.681 2.67145 107.735 2.0138 106.597C1.35615 105.459 1.01022 104.169 1.01074 102.855C1.01126 101.542 1.35822 100.251 2.01677 99.1137L45.9686 23.1347C46.6293 21.9961 47.5785 21.0508 48.721 20.3937C49.8635 19.7365 51.1591 19.3906 52.4778 19.3906C53.7966 19.3906 55.0922 19.7365 56.2347 20.3937C57.3772 21.0508 58.3264 21.9961 58.9871 23.1347ZM52.4715 90.9645C53.2097 90.9645 53.9177 90.6719 54.4397 90.1512C54.9616 89.6304 55.2549 88.9242 55.2549 88.1878C55.2549 87.4513 54.9616 86.745 54.4397 86.2243C53.9177 85.7036 53.2097 85.411 52.4715 85.411C51.7333 85.411 51.0254 85.7036 50.5034 86.2243C49.9814 86.745 49.6882 87.4513 49.6882 88.1878C49.6882 88.9242 49.9814 89.6304 50.5034 90.1512C51.0254 90.6719 51.7333 90.9645 52.4715 90.9645Z" fill="#F7F7FF"/>
<path d="M288.891 89.9177C273.028 86.9201 257.894 96.2285 255.153 110.701C254.221 115.771 254.879 121.002 257.038 125.685L250.188 136.876L263.168 134.238C267.527 138.407 273.013 141.214 278.951 142.311C294.814 145.309 309.948 136.001 312.689 121.53C315.451 107.062 304.796 92.9153 288.891 89.9177Z" fill="#F7F7FF"/>
<path d="M89.5094 186.391C90.2107 186.391 90.8833 186.113 91.3792 185.618C91.875 185.124 92.1536 184.453 92.1536 183.753C92.1536 183.054 91.875 182.383 91.3792 181.888C90.8833 181.393 90.2107 181.115 89.5094 181.115C88.8081 181.115 88.1356 181.393 87.6397 181.888C87.1438 182.383 86.8652 183.054 86.8652 183.753C86.8652 184.453 87.1438 185.124 87.6397 185.618C88.1356 186.113 88.8081 186.391 89.5094 186.391Z" fill="#F7F7FF"/>
<path d="M113.307 206.535C113.307 207.057 113.152 207.567 112.861 208.001C112.571 208.435 112.158 208.773 111.675 208.972C111.191 209.172 110.66 209.224 110.147 209.123C109.634 209.021 109.163 208.77 108.793 208.401C108.423 208.032 108.171 207.562 108.069 207.05C107.967 206.538 108.02 206.008 108.22 205.526C108.42 205.044 108.759 204.632 109.194 204.342C109.629 204.052 110.14 203.897 110.663 203.897C111.362 203.903 112.032 204.183 112.526 204.676C113.021 205.17 113.301 205.837 113.307 206.535Z" fill="#F7F7FF"/>
<path d="M138.024 187.35C138.024 187.872 137.869 188.382 137.578 188.815C137.288 189.249 136.875 189.587 136.391 189.787C135.908 189.987 135.377 190.039 134.864 189.937C134.351 189.835 133.88 189.584 133.51 189.215C133.14 188.846 132.888 188.376 132.786 187.864C132.684 187.353 132.736 186.822 132.937 186.34C133.137 185.858 133.476 185.446 133.911 185.156C134.345 184.867 134.857 184.712 135.38 184.712C136.079 184.718 136.748 184.999 137.242 185.492C137.736 185.985 138.017 186.652 138.024 187.35Z" fill="#F7F7FF"/>
<path d="M165.185 209.89C165.185 210.411 165.03 210.92 164.739 211.354C164.449 211.787 164.037 212.125 163.554 212.325C163.071 212.524 162.54 212.577 162.028 212.475C161.515 212.373 161.045 212.123 160.675 211.754C160.305 211.386 160.054 210.916 159.951 210.405C159.849 209.894 159.901 209.364 160.101 208.882C160.301 208.401 160.639 207.989 161.073 207.699C161.507 207.409 162.018 207.254 162.54 207.254C163.24 207.259 163.909 207.539 164.403 208.032C164.898 208.525 165.179 209.192 165.185 209.89Z" fill="#F7F7FF"/>
<path d="M188.259 187.35C188.258 187.871 188.102 188.381 187.812 188.814C187.522 189.248 187.11 189.587 186.627 189.788C186.266 189.939 185.875 190.007 185.483 189.989C185.092 189.971 184.709 189.866 184.363 189.682C184.017 189.498 183.717 189.24 183.483 188.926C183.249 188.612 183.088 188.25 183.012 187.867C182.935 187.483 182.945 187.088 183.041 186.709C183.136 186.329 183.315 185.976 183.564 185.674C183.813 185.372 184.126 185.129 184.481 184.963C184.836 184.796 185.223 184.711 185.615 184.712C186.314 184.719 186.983 184.999 187.477 185.492C187.971 185.986 188.252 186.652 188.259 187.35Z" fill="#F7F7FF"/>
<path d="M217.103 188.868C217.102 189.39 216.946 189.899 216.656 190.333C216.365 190.767 215.953 191.105 215.471 191.306C215.109 191.457 214.719 191.526 214.327 191.508C213.936 191.489 213.553 191.384 213.207 191.201C212.861 191.017 212.56 190.759 212.327 190.445C212.093 190.131 211.932 189.769 211.856 189.386C211.779 189.002 211.789 188.606 211.884 188.227C211.98 187.848 212.159 187.494 212.408 187.193C212.657 186.891 212.97 186.648 213.325 186.481C213.68 186.315 214.067 186.229 214.459 186.23C215.158 186.237 215.827 186.517 216.321 187.01C216.816 187.504 217.097 188.171 217.103 188.868Z" fill="#F7F7FF"/>
<path d="M246.388 187.35C246.741 187.36 247.093 187.299 247.422 187.171C247.752 187.043 248.052 186.85 248.306 186.605C248.559 186.359 248.761 186.065 248.898 185.74C249.036 185.415 249.107 185.066 249.107 184.713C249.107 184.36 249.036 184.011 248.898 183.686C248.761 183.362 248.559 183.068 248.306 182.822C248.052 182.576 247.752 182.383 247.422 182.255C247.093 182.127 246.741 182.066 246.388 182.076C245.7 182.096 245.046 182.382 244.567 182.874C244.087 183.367 243.818 184.026 243.818 184.713C243.818 185.4 244.087 186.059 244.567 186.552C245.046 187.044 245.7 187.331 246.388 187.35Z" fill="#F7F7FF"/>
<path d="M234.889 213.127C234.888 213.649 234.732 214.158 234.442 214.592C234.152 215.026 233.74 215.364 233.257 215.565C232.896 215.716 232.505 215.785 232.113 215.766C231.722 215.748 231.339 215.643 230.993 215.459C230.647 215.276 230.347 215.017 230.113 214.704C229.879 214.39 229.718 214.028 229.642 213.644C229.565 213.261 229.575 212.865 229.671 212.486C229.766 212.107 229.945 211.753 230.194 211.451C230.443 211.15 230.756 210.907 231.111 210.74C231.466 210.574 231.853 210.488 232.245 210.489C232.593 210.486 232.938 210.552 233.261 210.684C233.583 210.815 233.876 211.01 234.122 211.255C234.368 211.501 234.563 211.793 234.694 212.114C234.826 212.436 234.892 212.78 234.889 213.127Z" fill="#F7F7FF"/>
<path d="M49.5303 174.682V187.629C51.3732 186.87 53.3258 186.07 55.3795 185.231V178.617C53.1989 177.684 51.2144 176.349 49.5303 174.682Z" fill="#4F56B2"/>
<path d="M49.5303 202.858V419.028H55.3795V199.221C53.5366 200.38 51.4154 201.739 49.5303 202.858Z" fill="#4F56B2"/>
<path d="M171.312 158.455L168.109 163.011L168.19 159.135L171.312 158.455Z" fill="#4F56B2"/>
<path d="M252.237 171.476L253.198 170.876C253.409 170.767 261.707 167.889 261.844 167.839C256.401 165.129 251.636 166.328 252.237 171.476Z" fill="#4F56B2"/>
<path d="M269.622 183.273L264.14 185.192C267.825 186.711 271.52 186.505 272.515 183.427L269.622 183.273Z" fill="#4F56B2"/>
<path d="M153.487 413.072C153.023 408.409 152.001 403.818 150.442 399.398C141.893 401.836 132.831 401.836 124.282 399.398C112.947 402.676 100.006 412.706 93.2354 419.021C115.989 419.021 131.053 418.821 148.359 418.781C149.452 418.786 150.519 418.442 151.403 417.799C152.287 417.157 152.942 416.249 153.272 415.209C153.494 414.52 153.568 413.791 153.487 413.072Z" fill="#4F56B2"/>
<path d="M280.48 378.941L273.028 374.944C270.063 384.657 266.537 387.534 257.363 393.529C261.97 400.404 260.888 403.801 260.368 405.798C255.518 410.354 253.078 410.335 249.713 419.05H266.582C268.847 419.1 271.079 418.504 273.017 417.332C274.954 416.16 276.516 414.461 277.519 412.434C280.049 406.965 282.158 395.89 284.528 389.375C285.264 387.444 285.258 385.31 284.511 383.383C283.763 381.456 282.327 379.874 280.48 378.941Z" fill="#4F56B2"/>
<path d="M285.646 125.443C285.628 125.809 285.467 126.152 285.197 126.399C284.927 126.646 284.57 126.777 284.204 126.762C283.976 126.754 283.754 126.689 283.557 126.573C283.361 126.458 283.196 126.296 283.078 126.101C282.96 125.907 282.892 125.686 282.88 125.459C282.868 125.232 282.913 125.005 283.01 124.8C283.147 124.512 283.379 124.281 283.667 124.145C283.955 124.008 284.281 123.975 284.591 124.05C284.901 124.126 285.175 124.306 285.367 124.56C285.559 124.813 285.658 125.126 285.646 125.443Z" fill="#4F56B2"/>
<path d="M49.5703 173.764V110.345L55.4196 110.339V174.124C51.856 173.484 50.1312 173.444 49.5703 173.764Z" fill="#4F56B2"/>
<path d="M210.493 130.246C211.748 129.888 212.833 129.095 213.555 128.011C214.276 126.927 214.587 125.621 214.432 124.329C214.279 123.036 213.67 121.84 212.713 120.955C211.756 120.069 210.515 119.552 209.211 119.497C210.128 118.672 210.741 117.564 210.951 116.35C211.161 115.136 210.957 113.888 210.371 112.803C209.784 111.72 208.849 110.864 207.716 110.374C206.582 109.885 205.317 109.79 204.123 110.105C204.51 109.286 204.688 108.386 204.643 107.482C204.597 106.579 204.329 105.701 203.862 104.925C203.395 104.15 202.743 103.502 201.965 103.037C201.187 102.573 200.306 102.308 199.4 102.264C198.189 102.204 196.991 102.544 195.992 103.23C196.135 101.974 195.839 100.707 195.155 99.6422C194.471 98.5778 193.44 97.781 192.236 97.3859C191.032 96.9908 189.729 97.0216 188.545 97.473C187.361 97.9244 186.369 98.7689 185.736 99.8643C185.493 98.5554 184.8 97.3724 183.775 96.5196C182.751 95.6669 181.459 95.1981 180.125 95.1944C178.791 95.1897 177.497 95.6496 176.466 96.4948C175.435 97.34 174.732 98.5175 174.478 99.8243C173.853 98.726 172.868 97.8758 171.688 97.4161C170.509 96.9565 169.207 96.9155 168.001 97.3001C166.795 97.6853 165.758 98.4715 165.064 99.5274C164.369 100.583 164.059 101.845 164.184 103.102C163.192 102.404 161.997 102.051 160.783 102.098C159.57 102.146 158.406 102.59 157.471 103.363C156.536 104.137 155.883 105.196 155.612 106.376C155.341 107.557 155.467 108.794 155.971 109.896C154.781 109.581 153.52 109.671 152.387 110.152C151.254 110.632 150.315 111.476 149.717 112.55C149.119 113.623 148.897 114.865 149.087 116.078C149.276 117.292 149.866 118.407 150.763 119.249C149.46 119.295 148.215 119.801 147.251 120.677C146.287 121.552 145.665 122.741 145.497 124.031C145.329 125.321 145.625 126.628 146.332 127.721C147.04 128.814 148.113 129.621 149.361 129.998C148.111 130.366 147.032 131.164 146.317 132.251C145.602 133.338 145.296 134.642 145.455 135.933C145.614 137.223 146.226 138.415 147.183 139.297C148.141 140.179 149.381 140.694 150.683 140.749C149.778 141.584 149.18 142.697 148.983 143.91C148.787 145.123 149.003 146.367 149.598 147.443C150.193 148.52 151.132 149.366 152.265 149.848C153.398 150.33 154.661 150.419 155.851 150.102C155.443 150.967 155.269 151.923 155.347 152.876C155.425 153.828 155.752 154.744 156.295 155.531C156.838 156.319 157.578 156.95 158.442 157.363C159.307 157.776 160.264 157.956 161.219 157.885C158.776 155.927 157.894 151.574 161.9 142.34C169.032 125.915 175.56 137.384 175.48 144.058C175.6 145.257 176.281 145.497 178.084 144.018C181.85 140.901 185.135 147.456 177.964 151.211C176.602 151.932 175.68 153.524 176.842 162.359C176.914 162.991 177.019 163.619 177.163 164.238C177.944 164.636 178.809 164.846 179.686 164.849C180.564 164.852 181.43 164.648 182.214 164.255C182.998 163.862 183.679 163.29 184.2 162.586C184.722 161.881 185.069 161.065 185.215 160.201C185.833 161.305 186.813 162.164 187.99 162.633C189.167 163.102 190.47 163.154 191.68 162.78C192.891 162.405 193.936 161.627 194.64 160.575C195.344 159.524 195.664 158.263 195.548 157.004C196.532 157.709 197.722 158.071 198.933 158.034C200.145 157.997 201.31 157.563 202.249 156.799C203.189 156.035 203.849 154.984 204.129 153.807C204.409 152.631 204.293 151.395 203.799 150.291C204.985 150.61 206.244 150.526 207.376 150.051C208.509 149.577 209.451 148.739 210.053 147.671C210.655 146.603 210.883 145.365 210.701 144.153C210.518 142.941 209.936 141.824 209.047 140.979C210.336 140.917 211.563 140.406 212.514 139.536C213.464 138.665 214.079 137.49 214.251 136.214C214.423 134.938 214.141 133.642 213.455 132.551C212.768 131.461 211.72 130.646 210.493 130.246Z" fill="#4F56B2"/>
<path d="M89.5094 186.391C90.2107 186.391 90.8833 186.113 91.3792 185.618C91.875 185.124 92.1536 184.453 92.1536 183.753C92.1536 183.054 91.875 182.383 91.3792 181.888C90.8833 181.393 90.2107 181.115 89.5094 181.115C88.8081 181.115 88.1356 181.393 87.6397 181.888C87.1438 182.383 86.8652 183.054 86.8652 183.753C86.8652 184.453 87.1438 185.124 87.6397 185.618C88.1356 186.113 88.8081 186.391 89.5094 186.391Z" stroke="#252B4A"/>
<path d="M113.307 206.535C113.307 207.057 113.152 207.567 112.861 208.001C112.571 208.435 112.158 208.773 111.675 208.972C111.191 209.172 110.66 209.224 110.147 209.123C109.634 209.021 109.163 208.77 108.793 208.401C108.423 208.032 108.171 207.562 108.069 207.05C107.967 206.538 108.02 206.008 108.22 205.526C108.42 205.044 108.759 204.632 109.194 204.342C109.629 204.052 110.14 203.897 110.663 203.897C111.362 203.903 112.032 204.183 112.526 204.676C113.021 205.17 113.301 205.837 113.307 206.535Z" stroke="#252B4A"/>
<path d="M138.024 187.35C138.024 187.872 137.869 188.382 137.578 188.815C137.288 189.249 136.875 189.587 136.391 189.787C135.908 189.987 135.377 190.039 134.864 189.937C134.351 189.835 133.88 189.584 133.51 189.215C133.14 188.846 132.888 188.376 132.786 187.864C132.684 187.353 132.736 186.822 132.937 186.34C133.137 185.858 133.476 185.446 133.911 185.156C134.345 184.867 134.857 184.712 135.38 184.712C136.079 184.718 136.748 184.999 137.242 185.492C137.736 185.985 138.017 186.652 138.024 187.35Z" stroke="#252B4A"/>
<path d="M165.186 209.89C165.186 210.411 165.031 210.92 164.74 211.354C164.45 211.787 164.038 212.125 163.555 212.325C163.072 212.524 162.541 212.577 162.029 212.475C161.516 212.373 161.046 212.123 160.676 211.754C160.306 211.386 160.055 210.916 159.952 210.405C159.85 209.894 159.902 209.364 160.102 208.882C160.302 208.401 160.64 207.989 161.074 207.699C161.508 207.409 162.019 207.254 162.541 207.254C163.241 207.259 163.91 207.539 164.404 208.032C164.899 208.525 165.179 209.192 165.186 209.89Z" stroke="#252B4A"/>
<path d="M188.259 187.35C188.258 187.871 188.102 188.381 187.812 188.814C187.522 189.248 187.11 189.587 186.627 189.788C186.266 189.939 185.875 190.007 185.483 189.989C185.092 189.971 184.709 189.866 184.363 189.682C184.017 189.498 183.717 189.24 183.483 188.926C183.249 188.612 183.088 188.25 183.012 187.867C182.935 187.483 182.945 187.088 183.041 186.709C183.136 186.329 183.315 185.976 183.564 185.674C183.813 185.372 184.126 185.129 184.481 184.963C184.836 184.796 185.223 184.711 185.615 184.712C186.314 184.719 186.983 184.999 187.477 185.492C187.971 185.986 188.252 186.652 188.259 187.35Z" stroke="#252B4A"/>
<path d="M217.103 188.868C217.102 189.39 216.946 189.899 216.656 190.333C216.365 190.767 215.953 191.105 215.471 191.306C215.109 191.457 214.719 191.526 214.327 191.508C213.936 191.489 213.553 191.384 213.207 191.201C212.861 191.017 212.56 190.759 212.327 190.445C212.093 190.131 211.932 189.769 211.856 189.386C211.779 189.002 211.789 188.606 211.884 188.227C211.98 187.848 212.159 187.494 212.408 187.193C212.657 186.891 212.97 186.648 213.325 186.481C213.68 186.315 214.067 186.229 214.459 186.23C215.158 186.237 215.827 186.517 216.321 187.01C216.816 187.504 217.097 188.171 217.103 188.868Z" stroke="#252B4A"/>
<path d="M246.388 187.35C246.741 187.36 247.093 187.299 247.422 187.171C247.752 187.043 248.052 186.85 248.306 186.605C248.559 186.359 248.761 186.065 248.898 185.74C249.036 185.415 249.107 185.066 249.107 184.713C249.107 184.36 249.036 184.011 248.898 183.686C248.761 183.362 248.559 183.068 248.306 182.822C248.052 182.576 247.752 182.383 247.422 182.255C247.093 182.127 246.741 182.066 246.388 182.076C245.7 182.096 245.046 182.382 244.567 182.874C244.087 183.367 243.818 184.026 243.818 184.713C243.818 185.4 244.087 186.059 244.567 186.552C245.046 187.044 245.7 187.331 246.388 187.35Z" stroke="#252B4A"/>
<path d="M234.889 213.127C234.888 213.649 234.732 214.158 234.442 214.592C234.152 215.026 233.74 215.364 233.257 215.565C232.896 215.716 232.505 215.785 232.113 215.766C231.722 215.748 231.339 215.643 230.993 215.459C230.647 215.276 230.347 215.017 230.113 214.704C229.879 214.39 229.718 214.028 229.642 213.644C229.565 213.261 229.575 212.865 229.671 212.486C229.766 212.107 229.945 211.753 230.194 211.451C230.443 211.15 230.756 210.907 231.111 210.74C231.466 210.574 231.853 210.488 232.245 210.489C232.593 210.486 232.938 210.552 233.261 210.684C233.583 210.815 233.876 211.01 234.122 211.255C234.368 211.501 234.563 211.793 234.694 212.114C234.826 212.436 234.892 212.78 234.889 213.127Z" stroke="#252B4A"/>
<path d="M285.646 125.443C285.628 125.809 285.467 126.152 285.197 126.399C284.927 126.646 284.57 126.777 284.204 126.762C283.976 126.754 283.754 126.689 283.557 126.573C283.361 126.458 283.196 126.296 283.078 126.101C282.96 125.907 282.892 125.686 282.88 125.459C282.868 125.232 282.913 125.005 283.01 124.8C283.147 124.512 283.379 124.281 283.667 124.145C283.955 124.008 284.281 123.975 284.591 124.05C284.901 124.126 285.175 124.306 285.367 124.56C285.559 124.813 285.658 125.126 285.646 125.443Z" stroke="#252B4A"/>
<path d="M49.5303 173.764V110.339" stroke="#252B4A" stroke-linecap="round" stroke-linejoin="round"/>
<path d="M49.5303 187.63V174.723" stroke="#252B4A" stroke-linecap="round" stroke-linejoin="round"/>
<path d="M49.5303 419.067V202.978" stroke="#252B4A" stroke-linecap="round" stroke-linejoin="round"/>
<path d="M55.4189 199.382V419.069" stroke="#252B4A" stroke-linecap="round" stroke-linejoin="round"/>
<path d="M55.4189 178.64V185.272" stroke="#252B4A" stroke-linecap="round" stroke-linejoin="round"/>
<path d="M55.4189 110.339V174.124" stroke="#252B4A" stroke-linecap="round" stroke-linejoin="round"/>
<path d="M268.14 188.469C278.167 211.169 279.401 236.773 271.602 260.328C263.803 283.883 247.525 303.716 225.917 315.992" stroke="#252B4A" stroke-linecap="round" stroke-linejoin="round"/>
<path d="M90.6709 176.562C103.213 156.169 122.655 140.927 145.482 133.592M254.931 166.662C244.22 153.202 230.218 142.717 214.271 136.215" stroke="#252B4A" stroke-linecap="round" stroke-linejoin="round"/>
<path d="M137.464 321.312C119.213 313.678 103.63 300.836 92.6696 284.397C81.7093 267.959 75.8602 248.658 75.8564 228.915C75.8564 219.062 77.2987 209.259 80.1369 199.82" stroke="#252B4A" stroke-linecap="round" stroke-linejoin="round"/>
<path d="M193.147 327.667C187.604 328.831 181.938 329.301 176.278 329.065C173.537 329.065 170.781 328.956 168.067 328.739" stroke="#252B4A" stroke-linecap="round" stroke-linejoin="round"/>
<path d="M271.705 184.873C263.853 192.707 253.468 204.049 242.741 216.965C240.067 220.199 236.257 222.293 232.088 222.82C227.92 223.347 223.706 222.268 220.308 219.803C210.893 212.971 204.523 208.054 194.188 200.501" stroke="#252B4A" stroke-linecap="round" stroke-linejoin="round"/>
<path d="M168.062 163.08L171.313 158.456" stroke="#252B4A" stroke-linecap="round" stroke-linejoin="round"/>
<path d="M253.126 167.781C244.302 175.42 236.394 184.052 229.561 193.505C229.561 193.505 209.569 176.805 195.871 168.488C181.727 159.899 178.4 174.083 176.841 162.293C175.675 153.458 176.601 151.859 177.963 151.144C185.132 147.374 181.837 140.815 178.083 143.949C175.85 145.815 175.599 145.001 175.504 143.257C175.133 136.526 168.814 126.429 161.94 142.271C152.24 164.611 171.313 158.456 171.313 158.456" stroke="#252B4A" stroke-linecap="round" stroke-linejoin="round"/>
<path d="M168.188 159.106C168.426 162.531 167.865 168.049 164.464 167.247C155.735 165.19 151.998 166.557 147.037 170.403C137.168 178.055 117.111 189.385 117.111 189.385C105.215 182.233 96.6009 179.156 85.5054 174.399C79.6278 180.879 76.2135 189.209 75.8564 197.941C91.671 204.695 97.7311 208.568 110.109 214.605C112.881 215.966 115.952 216.609 119.039 216.477C122.126 216.344 125.13 215.439 127.775 213.846C135.553 209.142 142.876 204.815 150.849 200.618" stroke="#252B4A" stroke-linecap="round" stroke-linejoin="round"/>
<path d="M261.85 167.847C257.074 165.464 252.821 166.093 252.25 169.757C251.758 172.913 253.905 176.636 255.946 179.078C258.795 182.652 262.808 185.12 267.288 186.054C268.33 186.344 269.443 186.236 270.409 185.75C271.375 185.264 272.124 184.435 272.509 183.427" stroke="#252B4A" stroke-linecap="round" stroke-linejoin="round"/>
<path d="M148.358 183.873C149.226 197.073 152.612 209.987 158.334 221.92C170.564 225.158 180.487 224.398 192.867 220.641C191.893 211.392 193.115 202.045 196.433 193.354" stroke="#252B4A" stroke-linecap="round" stroke-linejoin="round"/>
<path d="M264.134 185.192C269.815 183.007 275.654 181.258 281.602 179.958C286.931 179.048 292.351 178.78 297.745 179.159C305.68 179.626 306.947 177.836 298.747 175.042C295.738 174.016 280.36 171.845 276.954 171.365C271.506 170.602 263.459 169.808 258.124 169.646C257.72 169.647 257.316 169.673 256.914 169.722" stroke="#252B4A" stroke-linecap="round" stroke-linejoin="round"/>
<path d="M252.236 171.477C252.35 171.405 270.838 164.535 278.195 161.169C286.733 157.257 284.435 160.282 282.242 162.888C280.631 164.802 272.667 170.082 276.953 171.361" stroke="#252B4A" stroke-linecap="round" stroke-linejoin="round"/>
<path d="M269.582 183.257C274.432 182.098 284.005 183.103 288.25 183.345C291.695 183.543 296.703 184.67 300.549 185.028C301.43 185.11 302.392 183.829 297.264 181.751C295.339 180.974 291.946 179.571 290.343 179.079" stroke="#252B4A" stroke-linecap="round" stroke-linejoin="round"/>
<path d="M269.378 183.344C273.367 183.358 277.342 183.79 281.241 184.631C284.404 185.351 289.705 187.347 293.098 188.268C293.941 188.498 295.101 187.389 290.413 184.471C289.82 184.094 289.219 183.729 288.611 183.377" stroke="#252B4A" stroke-linecap="round" stroke-linejoin="round"/>
<path d="M76.2103 194.386C69.7406 193.429 63.1991 193.041 56.6614 193.227C51.2634 193.639 45.9265 194.657 40.7562 196.265C33.1462 198.625 31.4783 197.131 38.7931 192.478C51.1446 186.604 63.9198 181.662 77.0115 177.692C78.8688 177.186 80.8349 177.242 82.6605 177.852" stroke="#252B4A" stroke-linecap="round" stroke-linejoin="round"/>
<path d="M59.2616 183.753C63.1098 181.475 54.0196 178.284 52.0143 176.811C49.2921 174.808 46.2894 172.436 55.5399 174.173C63.2882 175.747 71.1313 176.814 79.0192 177.366" stroke="#252B4A" stroke-linecap="round" stroke-linejoin="round"/>
<path d="M47.8873 194.465C46.2004 195.504 42.8435 197.948 41.8777 198.672C37.4496 201.939 38.6347 202.955 39.4739 202.669C42.8055 201.533 47.9273 199.112 51.0122 198.152C56.0201 196.594 65.6333 193.276 70.2005 193.756" stroke="#252B4A" stroke-linecap="round" stroke-linejoin="round"/>
<path d="M50.7319 198.222C50.0508 198.902 49.53 199.461 49.2095 199.741C45.3634 203.658 46.7192 204.487 47.4868 204.057C50.5485 202.339 55.2211 199.19 58.1437 197.747C61.7146 196.065 65.4276 194.7 69.2391 193.67" stroke="#252B4A" stroke-linecap="round" stroke-linejoin="round"/>
<path d="M153.487 413.072C153.023 408.409 152.001 403.818 150.442 399.398C141.893 401.836 132.831 401.836 124.282 399.398C112.947 402.676 100.006 412.706 93.2354 419.021C115.987 419.021 131.053 418.821 148.359 418.781C149.084 418.783 149.801 418.631 150.463 418.335C151.127 418.042 151.72 417.612 152.205 417.073C152.689 416.534 153.054 415.899 153.274 415.209C153.495 414.519 153.571 413.791 153.487 413.072Z" stroke="#252B4A" stroke-linecap="round" stroke-linejoin="round"/>
<path d="M164.143 336.851C164.407 348.01 155.486 370.138 150.438 399.445" stroke="#252B4A" stroke-linecap="round" stroke-linejoin="round"/>
<path d="M124.282 399.406L137.305 332.291" stroke="#252B4A" stroke-linecap="round" stroke-linejoin="round"/>
<path d="M181.287 287.464L165.544 336.62C155.17 338.442 144.485 336.545 135.378 331.265L158.334 221.963" stroke="#252B4A" stroke-linecap="round" stroke-linejoin="round"/>
<path d="M280.52 378.982L273.068 374.985C270.103 384.695 266.531 387.573 257.363 393.568C261.97 400.443 260.888 403.84 260.368 405.836C255.518 410.393 253.078 410.334 249.713 419.047H266.582C268.847 419.097 271.079 418.501 273.017 417.329C274.954 416.157 276.516 414.458 277.519 412.431C280.049 406.962 282.158 395.886 284.528 389.372C285.266 387.452 285.264 385.328 284.524 383.409C283.784 381.49 282.357 379.913 280.52 378.982Z" stroke="#252B4A" stroke-linecap="round" stroke-linejoin="round"/>
<path d="M257.403 393.57L209.131 341.656" stroke="#252B4A" stroke-linecap="round" stroke-linejoin="round"/>
<path d="M230.121 325.229C236.91 330.801 243.052 337.115 248.43 344.053C255.795 354.127 273.067 374.976 273.067 374.976" stroke="#252B4A" stroke-linecap="round" stroke-linejoin="round"/>
<path d="M171.312 249.577L189.742 319.716C191.141 325.039 193.999 329.869 197.995 333.663L207.178 342.384C216.964 339.238 225.336 332.773 230.843 324.111L222.552 310.437L217.303 257.124C215.376 237.267 203.494 223.574 192.867 220.636" stroke="#252B4A" stroke-linecap="round" stroke-linejoin="round"/>
<path d="M185.615 165.608C178.863 174.079 173.495 183.561 169.712 193.704C164.384 184.951 159.169 166.357 159.169 166.357" stroke="#252B4A" stroke-linecap="round" stroke-linejoin="round"/>
<path d="M8.34668 419.067H326.989" stroke="#252B4A" stroke-linecap="round" stroke-linejoin="round"/>
<path d="M288.891 89.9177C273.028 86.9201 257.894 96.2285 255.153 110.701C254.221 115.771 254.879 121.002 257.038 125.685L250.188 136.876L263.168 134.238C267.527 138.407 273.013 141.214 278.951 142.311C294.814 145.309 309.948 136.001 312.689 121.53C315.451 107.062 304.796 92.9153 288.891 89.9177Z" stroke="#252B4A" stroke-linecap="round" stroke-linejoin="round"/>
<path d="M284.244 119.369C284.284 117.571 284.975 116.258 287.208 113.294C292.027 106.901 289.106 102.497 285.005 102.303C284.271 102.27 283.539 102.398 282.861 102.679C282.183 102.961 281.576 103.388 281.082 103.93C280.589 104.473 280.222 105.117 280.007 105.818C279.792 106.518 279.734 107.258 279.839 107.983" stroke="#252B4A" stroke-linecap="round" stroke-linejoin="round"/>
<path d="M266.857 313.081H275.511" stroke="#252B4A" stroke-linecap="round" stroke-linejoin="round"/>
<path d="M290.854 313.041H299.507" stroke="#252B4A" stroke-linecap="round" stroke-linejoin="round"/>
<path d="M283.183 296.773V305.407" stroke="#252B4A" stroke-linecap="round" stroke-linejoin="round"/>
<path d="M283.223 320.715V329.346" stroke="#252B4A" stroke-linecap="round" stroke-linejoin="round"/>
<path d="M271.625 301.569L277.755 307.644" stroke="#252B4A" stroke-linecap="round" stroke-linejoin="round"/>
<path d="M288.65 318.477L294.78 324.55" stroke="#252B4A" stroke-linecap="round" stroke-linejoin="round"/>
<path d="M294.74 301.53L288.61 307.645" stroke="#252B4A" stroke-linecap="round" stroke-linejoin="round"/>
<path d="M277.795 318.477L271.665 324.59" stroke="#252B4A" stroke-linecap="round" stroke-linejoin="round"/>
<path d="M8.50677 110.338C7.19122 110.336 5.89948 109.988 4.76098 109.331C3.62249 108.673 2.67722 107.728 2.01988 106.592C1.36254 105.455 1.01622 104.166 1.01563 102.853C1.01503 101.541 1.36017 100.251 2.01647 99.1137L45.9641 23.1347C46.6248 21.9961 47.574 21.0508 48.7165 20.3937C49.859 19.7365 51.1546 19.3906 52.4733 19.3906C53.7921 19.3906 55.0877 19.7365 56.2302 20.3937C57.3727 21.0508 58.3219 21.9961 58.9826 23.1347L102.93 99.1137C103.589 100.251 103.936 101.542 103.936 102.855C103.937 104.169 103.591 105.459 102.933 106.597C102.276 107.735 101.329 108.681 100.19 109.338C99.0498 109.996 97.7566 110.343 96.4399 110.345L8.50677 110.338Z" stroke="#252B4A" stroke-linecap="round" stroke-linejoin="round"/>
<path d="M114.988 66.4177C115.035 66.9423 114.978 67.4711 114.82 67.9737C114.663 68.4764 114.407 68.9432 114.069 69.3475C113.385 70.1639 112.405 70.676 111.343 70.7711C110.817 70.8182 110.287 70.7615 109.783 70.6043C109.279 70.447 108.811 70.1923 108.406 69.8547C107.588 69.1728 107.074 68.1945 106.979 67.1351C106.884 66.0756 107.214 65.0217 107.898 64.2053C108.581 63.3889 109.562 62.8768 110.624 62.7817C111.686 62.6866 112.742 63.0162 113.56 63.6981C114.379 64.38 114.892 65.3583 114.988 66.4177Z" stroke="#252B4A" stroke-linecap="round" stroke-linejoin="round"/>
<path d="M82.3994 357.441V373.588" stroke="#252B4A" stroke-linecap="round" stroke-linejoin="round"/>
<path d="M90.5107 365.515H74.2871" stroke="#252B4A" stroke-linecap="round" stroke-linejoin="round"/>
<path d="M177.162 164.17C177.935 164.585 178.797 164.81 179.675 164.825C180.553 164.841 181.422 164.647 182.21 164.26C182.997 163.873 183.681 163.304 184.204 162.6C184.726 161.896 185.073 161.078 185.215 160.214C185.833 161.318 186.812 162.176 187.989 162.645C189.166 163.115 190.469 163.167 191.68 162.792C192.89 162.417 193.935 161.639 194.639 160.588C195.343 159.536 195.664 158.275 195.547 157.016C196.531 157.722 197.721 158.084 198.933 158.047C200.144 158.01 201.31 157.576 202.249 156.812C203.188 156.047 203.849 154.996 204.129 153.819C204.409 152.643 204.293 151.407 203.798 150.304C205.044 150.65 206.372 150.547 207.55 150.013C208.727 149.479 209.678 148.548 210.236 147.384C210.737 146.329 210.891 145.143 210.678 143.995C210.464 142.848 209.893 141.796 209.046 140.991C210.489 140.951 211.857 140.345 212.854 139.305C213.852 138.265 214.398 136.875 214.375 135.436C214.354 134.273 213.968 133.145 213.271 132.213C212.573 131.281 211.6 130.591 210.489 130.24C211.648 129.9 212.665 129.195 213.388 128.229C214.11 127.263 214.499 126.089 214.495 124.884C214.476 123.479 213.917 122.136 212.932 121.132C211.948 120.128 210.614 119.54 209.207 119.49C210.038 118.741 210.621 117.756 210.877 116.668C211.134 115.579 211.051 114.439 210.64 113.398C210.232 112.357 209.516 111.465 208.588 110.839C207.659 110.214 206.561 109.886 205.441 109.898C204.993 109.908 204.549 109.975 204.119 110.098C204.636 109.002 204.777 107.767 204.52 106.584C204.262 105.4 203.621 104.334 202.695 103.551C201.769 102.768 200.609 102.312 199.397 102.252C198.184 102.193 196.986 102.534 195.988 103.223C196.128 101.968 195.831 100.703 195.146 99.64C194.462 98.5773 193.432 97.7818 192.229 97.3871C191.026 96.9924 189.724 97.0225 188.541 97.4724C187.358 97.9223 186.366 98.7645 185.731 99.8577C184.837 93.7132 175.437 93.5701 174.474 99.8178C174.007 98.9969 173.336 98.3097 172.526 97.8219C171.716 97.3342 170.794 97.0624 169.849 97.0326C168.903 97.0028 167.966 97.2161 167.126 97.6519C166.287 98.0877 165.575 98.7314 165.057 99.5212C164.363 100.577 164.053 101.839 164.179 103.095C163.187 102.399 161.992 102.048 160.78 102.096C159.567 102.144 158.404 102.589 157.47 103.361C156.536 104.134 155.883 105.192 155.611 106.372C155.339 107.551 155.464 108.788 155.966 109.89C154.775 109.568 153.511 109.654 152.374 110.133C151.237 110.612 150.294 111.457 149.695 112.533C149.096 113.609 148.875 114.855 149.068 116.071C149.26 117.286 149.855 118.403 150.758 119.242C149.451 119.282 148.202 119.785 147.233 120.661C146.264 121.537 145.639 122.728 145.471 124.021C145.302 125.315 145.6 126.626 146.312 127.72C147.024 128.814 148.103 129.619 149.356 129.991C148.101 130.354 147.017 131.151 146.297 132.239C145.577 133.327 145.27 134.635 145.429 135.929C145.588 137.222 146.203 138.417 147.165 139.3C148.127 140.182 149.372 140.693 150.678 140.743C149.772 141.577 149.172 142.69 148.974 143.904C148.776 145.118 148.992 146.363 149.587 147.44C150.183 148.517 151.123 149.364 152.257 149.846C153.392 150.327 154.656 150.415 155.846 150.095C155.429 150.972 155.254 151.944 155.338 152.911C155.422 153.878 155.763 154.805 156.325 155.598C156.887 156.39 157.65 157.019 158.536 157.42C159.422 157.82 160.399 157.979 161.367 157.879" stroke="#252B4A" stroke-linecap="round" stroke-linejoin="round"/>
<path d="M222.311 333.982L211.854 321.552" stroke="#252B4A" stroke-linecap="round" stroke-linejoin="round"/>
<path d="M154.047 336.819L158.334 321.312" stroke="#252B4A" stroke-linecap="round" stroke-linejoin="round"/>
<path d="M185.615 234.549C191.344 241.461 197.714 244.379 204.563 244.299" stroke="#252B4A" stroke-linecap="round" stroke-linejoin="round"/>
<path d="M49.6885 88.1898C49.6885 88.9262 49.9817 89.6325 50.5037 90.1532C51.0257 90.674 51.7336 90.9665 52.4718 90.9665C53.21 90.9665 53.918 90.674 54.44 90.1532C54.9619 89.6325 55.2552 88.9262 55.2552 88.1898C55.2552 87.4534 54.9619 86.7471 54.44 86.2264C53.918 85.7056 53.21 85.4131 52.4718 85.4131C51.7336 85.4131 51.0257 85.7056 50.5037 86.2264C49.9817 86.7471 49.6885 87.4534 49.6885 88.1898Z" stroke="#252B4A"/>
<path d="M52.4316 48.6152V75.5116" stroke="#252B4A" stroke-linecap="round"/>
<mask id="path-84-outside-1_800_42200" maskUnits="userSpaceOnUse" x="138" y="17" width="160" height="63" fill="black">
<rect fill="white" x="138" y="17" width="160" height="63"/>
<path d="M139.835 66.7727V57.0852L164.125 18.8182H172.477V32.2273H167.534L152.222 56.4602V56.9148H186.739V66.7727H139.835ZM167.761 77V63.8182L167.989 59.5284V18.8182H179.523V77H167.761ZM217.747 78.2784C212.861 78.2595 208.656 77.0568 205.134 74.6705C201.63 72.2841 198.931 68.8277 197.037 64.3011C195.162 59.7746 194.234 54.3295 194.253 47.9659C194.253 41.6212 195.19 36.214 197.065 31.7443C198.959 27.2746 201.658 23.875 205.162 21.5455C208.685 19.197 212.88 18.0227 217.747 18.0227C222.615 18.0227 226.8 19.197 230.304 21.5455C233.827 23.8939 236.535 27.303 238.429 31.7727C240.323 36.2235 241.26 41.6212 241.241 47.9659C241.241 54.3485 240.295 59.803 238.401 64.3295C236.526 68.8561 233.836 72.3125 230.332 74.6989C226.829 77.0852 222.634 78.2784 217.747 78.2784ZM217.747 68.0795C221.08 68.0795 223.741 66.4034 225.73 63.0511C227.719 59.6989 228.704 54.6705 228.685 47.9659C228.685 43.553 228.23 39.8788 227.321 36.9432C226.431 34.0076 225.162 31.8011 223.514 30.3239C221.885 28.8466 219.963 28.108 217.747 28.108C214.433 28.108 211.781 29.7652 209.793 33.0795C207.804 36.3939 206.8 41.3561 206.781 47.9659C206.781 52.4356 207.226 56.1667 208.116 59.1591C209.026 62.1326 210.304 64.3674 211.952 65.8636C213.599 67.3409 215.531 68.0795 217.747 68.0795ZM249.132 66.7727V57.0852L273.422 18.8182H281.774V32.2273H276.831L261.518 56.4602V56.9148H296.036V66.7727H249.132ZM277.058 77V63.8182L277.286 59.5284V18.8182H288.82V77H277.058Z"/>
</mask>
<path d="M139.835 66.7727V57.0852L164.125 18.8182H172.477V32.2273H167.534L152.222 56.4602V56.9148H186.739V66.7727H139.835ZM167.761 77V63.8182L167.989 59.5284V18.8182H179.523V77H167.761ZM217.747 78.2784C212.861 78.2595 208.656 77.0568 205.134 74.6705C201.63 72.2841 198.931 68.8277 197.037 64.3011C195.162 59.7746 194.234 54.3295 194.253 47.9659C194.253 41.6212 195.19 36.214 197.065 31.7443C198.959 27.2746 201.658 23.875 205.162 21.5455C208.685 19.197 212.88 18.0227 217.747 18.0227C222.615 18.0227 226.8 19.197 230.304 21.5455C233.827 23.8939 236.535 27.303 238.429 31.7727C240.323 36.2235 241.26 41.6212 241.241 47.9659C241.241 54.3485 240.295 59.803 238.401 64.3295C236.526 68.8561 233.836 72.3125 230.332 74.6989C226.829 77.0852 222.634 78.2784 217.747 78.2784ZM217.747 68.0795C221.08 68.0795 223.741 66.4034 225.73 63.0511C227.719 59.6989 228.704 54.6705 228.685 47.9659C228.685 43.553 228.23 39.8788 227.321 36.9432C226.431 34.0076 225.162 31.8011 223.514 30.3239C221.885 28.8466 219.963 28.108 217.747 28.108C214.433 28.108 211.781 29.7652 209.793 33.0795C207.804 36.3939 206.8 41.3561 206.781 47.9659C206.781 52.4356 207.226 56.1667 208.116 59.1591C209.026 62.1326 210.304 64.3674 211.952 65.8636C213.599 67.3409 215.531 68.0795 217.747 68.0795ZM249.132 66.7727V57.0852L273.422 18.8182H281.774V32.2273H276.831L261.518 56.4602V56.9148H296.036V66.7727H249.132ZM277.058 77V63.8182L277.286 59.5284V18.8182H288.82V77H277.058Z" fill="#4F56B2"/>
<path d="M139.835 66.7727H138.835V67.7727H139.835V66.7727ZM139.835 57.0852L138.991 56.5493L138.835 56.7947V57.0852H139.835ZM164.125 18.8182V17.8182H163.575L163.281 18.2823L164.125 18.8182ZM172.477 18.8182H173.477V17.8182H172.477V18.8182ZM172.477 32.2273V33.2273H173.477V32.2273H172.477ZM167.534 32.2273V31.2273H166.983L166.689 31.6931L167.534 32.2273ZM152.222 56.4602L151.376 55.926L151.222 56.1708V56.4602H152.222ZM152.222 56.9148H151.222V57.9148H152.222V56.9148ZM186.739 56.9148H187.739V55.9148H186.739V56.9148ZM186.739 66.7727V67.7727H187.739V66.7727H186.739ZM167.761 77H166.761V78H167.761V77ZM167.761 63.8182L166.763 63.7653L166.761 63.7917V63.8182H167.761ZM167.989 59.5284L168.987 59.5813L168.989 59.5549V59.5284H167.989ZM167.989 18.8182V17.8182H166.989V18.8182H167.989ZM179.523 18.8182H180.523V17.8182H179.523V18.8182ZM179.523 77V78H180.523V77H179.523ZM140.835 66.7727V57.0852H138.835V66.7727H140.835ZM140.68 57.6211L164.969 19.3541L163.281 18.2823L138.991 56.5493L140.68 57.6211ZM164.125 19.8182H172.477V17.8182H164.125V19.8182ZM171.477 18.8182V32.2273H173.477V18.8182H171.477ZM172.477 31.2273H167.534V33.2273H172.477V31.2273ZM166.689 31.6931L151.376 55.926L153.067 56.9944L168.379 32.7614L166.689 31.6931ZM151.222 56.4602V56.9148H153.222V56.4602H151.222ZM152.222 57.9148H186.739V55.9148H152.222V57.9148ZM185.739 56.9148V66.7727H187.739V56.9148H185.739ZM186.739 65.7727H139.835V67.7727H186.739V65.7727ZM168.761 77V63.8182H166.761V77H168.761ZM168.76 63.8711L168.987 59.5813L166.99 59.4755L166.763 63.7653L168.76 63.8711ZM168.989 59.5284V18.8182H166.989V59.5284H168.989ZM167.989 19.8182H179.523V17.8182H167.989V19.8182ZM178.523 18.8182V77H180.523V18.8182H178.523ZM179.523 76H167.761V78H179.523V76ZM217.747 78.2784L217.743 79.2784H217.747V78.2784ZM205.134 74.6705L204.571 75.497L204.573 75.4984L205.134 74.6705ZM197.037 64.3011L196.113 64.6838L196.114 64.6871L197.037 64.3011ZM194.253 47.9659L195.253 47.9689V47.9659H194.253ZM197.065 31.7443L196.145 31.3542L196.143 31.3575L197.065 31.7443ZM205.162 21.5455L205.716 22.3782L205.717 22.3775L205.162 21.5455ZM230.304 21.5455L229.747 22.3761L229.749 22.3775L230.304 21.5455ZM238.429 31.7727L237.508 32.1629L237.509 32.1643L238.429 31.7727ZM241.241 47.9659L240.241 47.9629V47.9659H241.241ZM238.401 64.3295L237.478 63.9436L237.477 63.9469L238.401 64.3295ZM230.332 74.6989L230.895 75.5254L230.332 74.6989ZM225.73 63.0511L226.59 63.5613L225.73 63.0511ZM228.685 47.9659H227.685L227.685 47.9687L228.685 47.9659ZM227.321 36.9432L226.364 37.2334L226.366 37.239L227.321 36.9432ZM223.514 30.3239L222.842 31.0646L222.847 31.0684L223.514 30.3239ZM209.793 33.0795L208.935 32.565L209.793 33.0795ZM206.781 47.9659L205.781 47.963V47.9659H206.781ZM208.116 59.1591L207.158 59.4442L207.16 59.4515L208.116 59.1591ZM211.952 65.8636L211.279 66.604L211.284 66.6082L211.952 65.8636ZM217.751 77.2784C213.033 77.2601 209.029 76.1016 205.694 73.8425L204.573 75.4984C208.283 78.012 212.689 79.2588 217.743 79.2784L217.751 77.2784ZM205.696 73.8439C202.377 71.5829 199.791 68.2919 197.959 63.9151L196.114 64.6871C198.071 69.3634 200.883 72.9853 204.571 75.497L205.696 73.8439ZM197.961 63.9184C196.149 59.5448 195.234 54.2379 195.253 47.9689L193.253 47.9629C193.234 54.4212 194.175 60.0045 196.113 64.6838L197.961 63.9184ZM195.253 47.9659C195.253 41.715 196.177 36.4468 197.987 32.1311L196.143 31.3575C194.204 35.9812 193.253 41.5274 193.253 47.9659H195.253ZM197.986 32.1345C199.816 27.8166 202.399 24.5834 205.716 22.3782L204.608 20.7127C200.917 23.1666 198.103 26.7326 196.145 31.3542L197.986 32.1345ZM205.717 22.3775C209.052 20.1542 213.047 19.0227 217.747 19.0227V17.0227C212.713 17.0227 208.318 18.2397 204.607 20.7134L205.717 22.3775ZM217.747 19.0227C222.448 19.0227 226.432 20.1543 229.747 22.3761L230.861 20.7148C227.168 18.2396 222.781 17.0227 217.747 17.0227V19.0227ZM229.749 22.3775C233.087 24.6024 235.679 27.846 237.508 32.1629L239.35 31.3826C237.391 26.7601 234.567 23.1855 230.859 20.7134L229.749 22.3775ZM237.509 32.1643C239.336 36.4579 240.26 41.7136 240.241 47.9629L242.241 47.9689C242.261 41.5289 241.31 35.989 239.349 31.3812L237.509 32.1643ZM240.241 47.9659C240.241 54.254 239.308 59.5701 237.478 63.9436L239.323 64.7155C241.281 60.036 242.241 54.443 242.241 47.9659H240.241ZM237.477 63.9469C235.664 68.3222 233.088 71.6119 229.769 73.8724L230.895 75.5254C234.584 73.0131 237.387 69.39 239.324 64.7122L237.477 63.9469ZM229.769 73.8724C226.456 76.1291 222.464 77.2784 217.747 77.2784V79.2784C222.803 79.2784 227.201 78.0413 230.895 75.5254L229.769 73.8724ZM217.747 69.0795C221.499 69.0795 224.458 67.1564 226.59 63.5613L224.87 62.5409C223.025 65.6505 220.662 67.0795 217.747 67.0795V69.0795ZM226.59 63.5613C228.715 59.9786 229.704 54.7341 229.685 47.9631L227.685 47.9687C227.703 54.6068 226.722 59.4191 224.87 62.5409L226.59 63.5613ZM229.685 47.9659C229.685 43.4925 229.225 39.7105 228.276 36.6474L226.366 37.239C227.235 40.0471 227.685 43.6136 227.685 47.9659H229.685ZM228.278 36.653C227.354 33.6071 226.009 31.2171 224.182 29.5793L222.847 31.0684C224.315 32.3852 225.507 34.4081 226.364 37.2334L228.278 36.653ZM224.186 29.5831C222.372 27.9376 220.209 27.108 217.747 27.108V29.108C219.717 29.108 221.399 29.7556 222.842 31.0646L224.186 29.5831ZM217.747 27.108C214.018 27.108 211.069 29.0087 208.935 32.565L210.65 33.594C212.494 30.5216 214.848 29.108 217.747 29.108V27.108ZM208.935 32.565C206.809 36.1082 205.8 41.2855 205.781 47.963L207.781 47.9688C207.8 41.4266 208.799 36.6797 210.65 33.594L208.935 32.565ZM205.781 47.9659C205.781 52.4943 206.231 56.3288 207.158 59.4442L209.075 58.874C208.221 56.0045 207.781 52.377 207.781 47.9659H205.781ZM207.16 59.4515C208.102 62.5319 209.456 64.9479 211.279 66.604L212.624 65.1233C211.152 63.7869 209.949 61.7332 209.073 58.8667L207.16 59.4515ZM211.284 66.6082C213.116 68.2502 215.285 69.0795 217.747 69.0795V67.0795C215.777 67.0795 214.083 66.4316 212.619 65.1191L211.284 66.6082ZM249.132 66.7727H248.132V67.7727H249.132V66.7727ZM249.132 57.0852L248.288 56.5493L248.132 56.7947V57.0852H249.132ZM273.422 18.8182V17.8182H272.872L272.578 18.2823L273.422 18.8182ZM281.774 18.8182H282.774V17.8182H281.774V18.8182ZM281.774 32.2273V33.2273H282.774V32.2273H281.774ZM276.831 32.2273V31.2273H276.28L275.986 31.6931L276.831 32.2273ZM261.518 56.4602L260.673 55.926L260.518 56.1708V56.4602H261.518ZM261.518 56.9148H260.518V57.9148H261.518V56.9148ZM296.036 56.9148H297.036V55.9148H296.036V56.9148ZM296.036 66.7727V67.7727H297.036V66.7727H296.036ZM277.058 77H276.058V78H277.058V77ZM277.058 63.8182L276.06 63.7653L276.058 63.7917V63.8182H277.058ZM277.286 59.5284L278.284 59.5813L278.286 59.5549V59.5284H277.286ZM277.286 18.8182V17.8182H276.286V18.8182H277.286ZM288.82 18.8182H289.82V17.8182H288.82V18.8182ZM288.82 77V78H289.82V77H288.82ZM250.132 66.7727V57.0852H248.132V66.7727H250.132ZM249.976 57.6211L274.266 19.3541L272.578 18.2823L248.288 56.5493L249.976 57.6211ZM273.422 19.8182H281.774V17.8182H273.422V19.8182ZM280.774 18.8182V32.2273H282.774V18.8182H280.774ZM281.774 31.2273H276.831V33.2273H281.774V31.2273ZM275.986 31.6931L260.673 55.926L262.364 56.9944L277.676 32.7614L275.986 31.6931ZM260.518 56.4602V56.9148H262.518V56.4602H260.518ZM261.518 57.9148H296.036V55.9148H261.518V57.9148ZM295.036 56.9148V66.7727H297.036V56.9148H295.036ZM296.036 65.7727H249.132V67.7727H296.036V65.7727ZM278.058 77V63.8182H276.058V77H278.058ZM278.057 63.8711L278.284 59.5813L276.287 59.4755L276.06 63.7653L278.057 63.8711ZM278.286 59.5284V18.8182H276.286V59.5284H278.286ZM277.286 19.8182H288.82V17.8182H277.286V19.8182ZM287.82 18.8182V77H289.82V18.8182H287.82ZM288.82 76H277.058V78H288.82V76Z" fill="#252B4A" mask="url(#path-84-outside-1_800_42200)"/>
</svg>
