<svg width="100" height="100" viewBox="0 0 100 100" fill="none" xmlns="http://www.w3.org/2000/svg">
<rect width="100" height="100" rx="12" fill="#F7F7FF"/>
<path d="M35.1309 34.5459C35.1309 32.6598 36.6598 31.1309 38.5459 31.1309H64.2446C66.1307 31.1309 67.6597 32.6598 67.6597 34.5459V69.3527C67.6597 71.2388 66.1307 72.7678 64.2446 72.7678H38.5459C36.6598 72.7678 35.1309 71.2388 35.1309 69.3527V34.5459Z" fill="#4F56B2"/>
<path d="M32.8535 32.2686C32.8535 30.3825 34.3825 28.8535 36.2686 28.8535H61.9673C63.8534 28.8535 65.3824 30.3825 65.3824 32.2686V67.0754C65.3824 68.9615 63.8534 70.4905 61.9673 70.4905H36.2686C34.3825 70.4905 32.8535 68.9615 32.8535 67.0754V32.2686Z" fill="white"/>
<path fill-rule="evenodd" clip-rule="evenodd" d="M36.2689 28H61.9676C64.3252 28 66.2364 29.9112 66.2364 32.2689V67.0756C66.2364 69.4333 64.3252 71.3445 61.9676 71.3445H36.2689C33.9112 71.3445 32 69.4333 32 67.0756V32.2689C32 29.9112 33.9112 28 36.2689 28ZM36.2689 28.8538C34.3828 28.8538 32.8538 30.3828 32.8538 32.2689V67.0756C32.8538 68.9617 34.3828 70.4907 36.2689 70.4907H61.9676C63.8536 70.4907 65.3826 68.9617 65.3826 67.0756V32.2689C65.3826 30.3828 63.8536 28.8538 61.9676 28.8538H36.2689Z" fill="#4F56B2"/>
<path d="M36.7988 34.3843C36.7988 33.4413 37.5633 32.6768 38.5064 32.6768H60.1792C61.1222 32.6768 61.8867 33.4413 61.8867 34.3843V38.3855C61.8867 39.3285 61.1222 40.093 60.1792 40.093H38.5064C37.5633 40.093 36.7988 39.3285 36.7988 38.3855V34.3843Z" fill="#4F56B2"/>
<path fill-rule="evenodd" clip-rule="evenodd" d="M38.3013 43.1094H41.961C42.9041 43.1094 43.6686 43.8739 43.6686 44.8169V45.5824C43.6686 46.5254 42.9041 47.2899 41.961 47.2899H38.3013C37.3582 47.2899 36.5938 46.5254 36.5938 45.5824V44.8169C36.5938 43.8739 37.3582 43.1094 38.3013 43.1094ZM38.3013 43.9631C37.8298 43.9631 37.4475 44.3454 37.4475 44.8169V45.5824C37.4475 46.0539 37.8298 46.4362 38.3013 46.4362H41.961C42.4325 46.4362 42.8148 46.0539 42.8148 45.5824V44.8169C42.8148 44.3454 42.4325 43.9631 41.961 43.9631H38.3013Z" fill="#4F56B2"/>
<path fill-rule="evenodd" clip-rule="evenodd" d="M38.3013 49.127H41.961C42.9041 49.127 43.6686 49.8914 43.6686 50.8345V51.6C43.6686 52.543 42.9041 53.3075 41.961 53.3075H38.3013C37.3582 53.3075 36.5938 52.543 36.5938 51.6V50.8345C36.5938 49.8914 37.3582 49.127 38.3013 49.127ZM38.3013 49.9807C37.8298 49.9807 37.4475 50.363 37.4475 50.8345V51.6C37.4475 52.0715 37.8298 52.4537 38.3013 52.4537H41.961C42.4325 52.4537 42.8148 52.0715 42.8148 51.6V50.8345C42.8148 50.363 42.4325 49.9807 41.961 49.9807H38.3013Z" fill="#4F56B2"/>
<path fill-rule="evenodd" clip-rule="evenodd" d="M38.3013 55.4697H41.961C42.9041 55.4697 43.6686 56.2342 43.6686 57.1773V57.9427C43.6686 58.8858 42.9041 59.6503 41.961 59.6503H38.3013C37.3582 59.6503 36.5938 58.8858 36.5938 57.9427V57.1773C36.5938 56.2342 37.3582 55.4697 38.3013 55.4697ZM38.3013 56.3235C37.8298 56.3235 37.4475 56.7057 37.4475 57.1773V57.9427C37.4475 58.4143 37.8298 58.7965 38.3013 58.7965H41.961C42.4325 58.7965 42.8148 58.4143 42.8148 57.9427V57.1773C42.8148 56.7057 42.4325 56.3235 41.961 56.3235H38.3013Z" fill="#4F56B2"/>
<path fill-rule="evenodd" clip-rule="evenodd" d="M38.3013 61.8135H41.961C42.9041 61.8135 43.6686 62.578 43.6686 63.521V64.2865C43.6686 65.2295 42.9041 65.994 41.961 65.994H38.3013C37.3582 65.994 36.5938 65.2295 36.5938 64.2865V63.521C36.5938 62.578 37.3582 61.8135 38.3013 61.8135ZM38.3013 62.6672C37.8298 62.6672 37.4475 63.0495 37.4475 63.521V64.2865C37.4475 64.758 37.8298 65.1403 38.3013 65.1403H41.961C42.4325 65.1403 42.8148 64.758 42.8148 64.2865V63.521C42.8148 63.0495 42.4325 62.6672 41.961 62.6672H38.3013Z" fill="#4F56B2"/>
<path fill-rule="evenodd" clip-rule="evenodd" d="M47.7368 43.1094H51.3966C52.3396 43.1094 53.1041 43.8739 53.1041 44.8169V45.5824C53.1041 46.5254 52.3396 47.2899 51.3966 47.2899H47.7368C46.7938 47.2899 46.0293 46.5254 46.0293 45.5824V44.8169C46.0293 43.8739 46.7938 43.1094 47.7368 43.1094ZM47.7368 43.9631C47.2653 43.9631 46.8831 44.3454 46.8831 44.8169V45.5824C46.8831 46.0539 47.2653 46.4362 47.7368 46.4362H51.3966C51.8681 46.4362 52.2503 46.0539 52.2503 45.5824V44.8169C52.2503 44.3454 51.8681 43.9631 51.3966 43.9631H47.7368Z" fill="#4F56B2"/>
<path fill-rule="evenodd" clip-rule="evenodd" d="M47.7368 49.127H51.3966C52.3396 49.127 53.1041 49.8914 53.1041 50.8345V51.6C53.1041 52.543 52.3396 53.3075 51.3966 53.3075H47.7368C46.7938 53.3075 46.0293 52.543 46.0293 51.6V50.8345C46.0293 49.8914 46.7938 49.127 47.7368 49.127ZM47.7368 49.9807C47.2653 49.9807 46.8831 50.363 46.8831 50.8345V51.6C46.8831 52.0715 47.2653 52.4537 47.7368 52.4537H51.3966C51.8681 52.4537 52.2503 52.0715 52.2503 51.6V50.8345C52.2503 50.363 51.8681 49.9807 51.3966 49.9807H47.7368Z" fill="#4F56B2"/>
<path fill-rule="evenodd" clip-rule="evenodd" d="M47.7368 55.4697H51.3966C52.3396 55.4697 53.1041 56.2342 53.1041 57.1773V57.9427C53.1041 58.8858 52.3396 59.6503 51.3966 59.6503H47.7368C46.7938 59.6503 46.0293 58.8858 46.0293 57.9427V57.1773C46.0293 56.2342 46.7938 55.4697 47.7368 55.4697ZM47.7368 56.3235C47.2653 56.3235 46.8831 56.7057 46.8831 57.1773V57.9427C46.8831 58.4143 47.2653 58.7965 47.7368 58.7965H51.3966C51.8681 58.7965 52.2503 58.4143 52.2503 57.9427V57.1773C52.2503 56.7057 51.8681 56.3235 51.3966 56.3235H47.7368Z" fill="#4F56B2"/>
<path fill-rule="evenodd" clip-rule="evenodd" d="M47.7368 61.8135H51.3966C52.3396 61.8135 53.1041 62.578 53.1041 63.521V64.2865C53.1041 65.2295 52.3396 65.994 51.3966 65.994H47.7368C46.7938 65.994 46.0293 65.2295 46.0293 64.2865V63.521C46.0293 62.578 46.7938 61.8135 47.7368 61.8135ZM47.7368 62.6672C47.2653 62.6672 46.8831 63.0495 46.8831 63.521V64.2865C46.8831 64.758 47.2653 65.1403 47.7368 65.1403H51.3966C51.8681 65.1403 52.2503 64.758 52.2503 64.2865V63.521C52.2503 63.0495 51.8681 62.6672 51.3966 62.6672H47.7368Z" fill="#4F56B2"/>
<path fill-rule="evenodd" clip-rule="evenodd" d="M56.9243 43.1094H60.5841C61.5271 43.1094 62.2916 43.8739 62.2916 44.8169V45.5824C62.2916 46.5254 61.5271 47.2899 60.5841 47.2899H56.9243C55.9813 47.2899 55.2168 46.5254 55.2168 45.5824V44.8169C55.2168 43.8739 55.9813 43.1094 56.9243 43.1094ZM56.9243 43.9631C56.4528 43.9631 56.0706 44.3454 56.0706 44.8169V45.5824C56.0706 46.0539 56.4528 46.4362 56.9243 46.4362H60.5841C61.0556 46.4362 61.4378 46.0539 61.4378 45.5824V44.8169C61.4378 44.3454 61.0556 43.9631 60.5841 43.9631H56.9243Z" fill="#4F56B2"/>
<path fill-rule="evenodd" clip-rule="evenodd" d="M56.438 49.127H60.0977C61.0408 49.127 61.8053 49.8914 61.8053 50.8345V64.2861C61.8053 65.2291 61.0408 65.9936 60.0977 65.9936H56.438C55.495 65.9936 54.7305 65.2291 54.7305 64.2861V50.8345C54.7305 49.8914 55.495 49.127 56.438 49.127ZM56.438 49.9807C55.9665 49.9807 55.5842 50.363 55.5842 50.8345V64.2861C55.5842 64.7576 55.9665 65.1398 56.438 65.1398H60.0977C60.5693 65.1398 60.9515 64.7576 60.9515 64.2861V50.8345C60.9515 50.363 60.5693 49.9807 60.0977 49.9807H56.438Z" fill="#4F56B2"/>
<path fill-rule="evenodd" clip-rule="evenodd" d="M56.9453 56.6827C56.9453 56.447 57.1364 56.2559 57.3722 56.2559H59.1613C59.397 56.2559 59.5882 56.447 59.5882 56.6827C59.5882 56.9185 59.397 57.1096 59.1613 57.1096H57.3722C57.1364 57.1096 56.9453 56.9185 56.9453 56.6827Z" fill="#4F56B2"/>
<path fill-rule="evenodd" clip-rule="evenodd" d="M56.9453 58.2687C56.9453 58.0329 57.1364 57.8418 57.3722 57.8418H59.1613C59.397 57.8418 59.5882 58.0329 59.5882 58.2687C59.5882 58.5044 59.397 58.6956 59.1613 58.6956H57.3722C57.1364 58.6956 56.9453 58.5044 56.9453 58.2687Z" fill="#4F56B2"/>
<path fill-rule="evenodd" clip-rule="evenodd" d="M56.9453 35.2297C56.9453 34.5696 57.4805 34.0344 58.1406 34.0344H58.5149C59.175 34.0344 59.7102 34.5696 59.7102 35.2297V37.3321C59.7102 37.9922 59.175 38.5274 58.5149 38.5274H58.1406C57.4805 38.5274 56.9453 37.9922 56.9453 37.3321V35.2297ZM58.1406 34.8882C57.952 34.8882 57.7991 35.0411 57.7991 35.2297V37.3321C57.7991 37.5207 57.952 37.6736 58.1406 37.6736H58.5149C58.7035 37.6736 58.8564 37.5207 58.8564 37.3321V35.2297C58.8564 35.0411 58.7035 34.8882 58.5149 34.8882H58.1406Z" fill="white"/>
</svg>
