<svg width="100" height="100" viewBox="0 0 100 100" fill="none" xmlns="http://www.w3.org/2000/svg">
<rect width="100" height="100" rx="12" fill="#F7F7FF"/>
<g clip-path="url(#clip0_3968_67915)">
<path d="M54.8669 31.9862C54.6936 31.9862 54.5209 31.9164 54.3963 31.7792C54.1629 31.523 54.1844 31.129 54.4438 30.8989C54.4912 30.8566 55.6227 29.8553 56.4133 29.2949L56.5392 29.2076C57.0553 28.8516 57.9199 28.255 58.1255 28.0361C58.3627 27.783 58.763 27.7681 59.0192 28.0018C59.2753 28.2356 59.2911 28.6303 59.054 28.8828C58.7782 29.1764 58.1097 29.6458 57.2647 30.2294L57.1457 30.311C56.4171 30.8285 55.3008 31.816 55.2894 31.826C55.1686 31.9332 55.0174 31.9856 54.8669 31.9856V31.9862Z" fill="#4F56B2"/>
<path d="M52.4973 30.6882C52.4682 30.6882 52.4391 30.6864 52.4094 30.682C52.0634 30.6346 51.8218 30.3198 51.8692 29.9794C51.8705 29.9713 51.9843 29.1527 52.107 27.659C52.2367 26.0786 52.2999 25.4745 52.4707 24.5156C52.5314 24.1771 52.8565 23.9502 53.2031 24.0094C53.5472 24.0692 53.7768 24.3922 53.7167 24.7313C53.5535 25.6472 53.4954 26.1995 53.3676 27.7587C53.2417 29.2924 53.1272 30.1153 53.1222 30.1496C53.0779 30.4613 52.8072 30.687 52.4967 30.687L52.4973 30.6882Z" fill="#4F56B2"/>
<path d="M50.2828 32.0285L49.8546 31.6095C49.7692 31.5241 49.7142 31.4206 49.6889 31.3115C49.6212 31.2006 49.4757 30.9736 49.1677 30.5229C48.231 29.1532 47.5498 28.3565 47.0021 27.7168L46.9198 27.6208C46.6953 27.3577 46.7295 26.9643 46.9964 26.7424C47.2633 26.5205 47.6611 26.5541 47.8875 26.8178L47.9685 26.9132C48.5352 27.5759 49.2411 28.4014 50.2164 29.8265C50.9804 30.9443 51.2106 31.2816 50.7293 31.6694L50.2828 32.0285Z" fill="#4F56B2"/>
<path d="M45.6279 76.9723C42.1429 76.5502 37.0033 70.1887 35.8066 67.3115L36.8812 67.6158L40.9829 72.0465L46.7455 67.9194C48.2369 72.8775 49.1123 77.3943 45.6279 76.9723Z" fill="#4F56B2"/>
<path d="M41.1705 72.6171C41.1572 72.6171 41.1452 72.6171 41.1326 72.6171C39.4944 72.5672 36.831 69.2674 35.9968 67.9002L35.8931 67.73C35.0506 66.3516 33.4826 63.7862 33.0747 61.9146L33.002 61.5804L33.248 61.3404C33.7533 60.8473 36.5217 58.2968 37.3895 57.5319C38.3022 56.7276 39.7778 54.8873 40.046 53.4926C40.151 52.9446 40.1845 52.4153 40.2231 51.8031C40.2945 50.6697 40.3837 49.2589 40.9808 47.0233C41.2047 46.1854 41.4874 45.3468 41.76 44.5351C42.6082 42.0152 43.4095 39.6349 42.6474 37.1518L41.3381 34.2055C41.297 34.0995 40.6392 32.3271 41.686 31.1176C42.2318 30.5104 43.7144 29.6718 45.4702 30.7797L45.5467 30.8364C47.0716 32.1581 47.5435 33.1132 48.4669 35.1487C49.0753 36.491 49.4416 37.7522 49.6269 38.6724C51.2935 37.4211 54.9081 34.7266 56.5811 33.6325C60.6233 30.9873 63.2336 30.1425 64.7983 30.973C65.5972 31.3975 65.871 31.9854 65.9596 32.4031C66.112 33.1244 65.854 33.9523 65.2316 34.7354C64.6744 35.4367 64.0583 35.8912 63.2785 36.4667C62.7737 36.8395 62.2013 37.2615 61.4942 37.8557C61.0736 38.1929 59.6986 39.3288 58.2913 40.4947C58.9542 40.6381 59.6486 40.9965 60.0705 41.5402C60.4278 42.0003 60.8851 42.9784 59.9339 44.3537C59.8789 44.4335 59.8226 44.5139 59.765 44.5931C59.8365 44.5869 59.9054 44.5856 59.9706 44.5894C60.9206 44.5912 61.6682 44.9267 62.1463 45.5495C62.6453 46.1991 62.7586 47.0962 62.4657 48.0762C62.4518 48.1242 62.4322 48.1766 62.4082 48.2321C62.5309 48.2065 62.6466 48.1934 62.751 48.1972C63.4657 48.2171 64.0425 48.6373 64.3328 49.3512C64.83 50.5706 64.4618 52.502 63.5599 53.4035L63.0419 53.9228C62.2823 54.6853 61.9977 54.9708 61.0376 55.8299C60.5347 56.28 59.7087 56.9751 58.6632 57.8554C57.3603 58.9527 55.7386 60.318 54.213 61.659C52.9107 62.7226 46.0944 69.288 46.0261 69.354C45.2589 70.1184 42.6347 72.6171 41.1731 72.6171H41.1705ZM34.3947 61.9813C34.8697 63.639 36.277 65.9414 36.9765 67.086L37.0809 67.2568C38.17 69.0417 40.464 71.3484 41.1718 71.3702H41.1819C41.6828 71.3702 43.326 70.268 45.1324 68.4694C45.4221 68.1907 52.0626 61.7943 53.387 60.7133C54.905 59.3785 56.5324 58.0082 57.8403 56.9078C58.8365 56.0687 59.6973 55.3442 60.1862 54.9072C61.1198 54.0724 61.3968 53.7938 62.1381 53.05L62.658 52.5288C63.2013 51.9852 63.4632 50.5662 63.1583 49.8169C63.0097 49.4528 62.8104 49.4472 62.7143 49.4441H62.7067C62.3816 49.4441 61.3854 50.0058 60.3051 50.7695C59.5411 51.4964 58.803 52.07 58.5215 52.0887L58.0775 52.1186L57.8947 51.7152C57.705 51.2876 57.9839 51.027 58.4071 50.6329C58.6278 50.4559 58.9921 50.1697 59.4273 49.8555C60.2292 49.1049 61.123 48.1691 61.2488 47.7315C61.4297 47.1255 61.3899 46.6336 61.1356 46.3026C60.9047 46.0021 60.4955 45.8369 59.9807 45.8369C59.9718 45.8369 59.963 45.8369 59.9535 45.8369H59.9181L59.8826 45.8338C59.5025 45.7951 58.3242 46.5058 57.0497 47.4865C56.3837 48.0719 55.8898 48.4422 55.8436 48.4759L55.0422 47.5127C55.2927 47.2932 55.7266 46.9235 56.2465 46.5189C57.0592 45.8013 58.1288 44.7577 58.8839 43.6542C59.4646 42.8151 59.1622 42.4254 59.0629 42.2976C58.6632 41.7827 57.7404 41.6019 57.4881 41.6879C56.9239 41.8806 55.4458 42.9117 54.6463 43.5164L53.8538 42.5451C54.0935 42.3463 59.7359 37.6562 60.6821 36.8981C61.4082 36.2877 62.0236 35.8339 62.5176 35.4692C63.2778 34.9087 63.7794 34.5377 64.2335 33.9667C64.6162 33.4854 64.7933 33.0085 64.7193 32.6581C64.6693 32.4231 64.4985 32.231 64.1962 32.0708C63.5884 31.7479 61.8838 31.6581 57.2787 34.6712C55.1485 36.0645 49.5851 40.2715 49.5295 40.3139L48.5422 41.0607L48.5118 39.8344C48.4985 39.3076 48.188 37.5932 47.3101 35.6574C46.4138 33.6805 46.0318 32.9274 44.7472 31.8052C43.4759 31.0309 42.672 31.8975 42.6385 31.9349C42.0946 32.5633 42.5044 33.726 42.5089 33.7373L43.8447 36.7503C44.7434 39.6262 43.8365 42.3207 42.9592 44.9267C42.6923 45.719 42.4165 46.5395 42.2027 47.3393C41.6373 49.4565 41.5563 50.7433 41.4849 51.8786C41.445 52.5057 41.4077 53.098 41.2875 53.7227C40.9435 55.5151 39.2307 57.5792 38.2314 58.4595C37.4211 59.1734 35.2213 61.2008 34.3941 61.9794L34.3947 61.9813Z" fill="#4F56B2"/>
</g>
<defs>
<clipPath id="clip0_3968_67915">
<rect width="33" height="53" fill="white" transform="translate(33 24)"/>
</clipPath>
</defs>
</svg>
