<svg width="100" height="100" viewBox="0 0 100 100" fill="none" xmlns="http://www.w3.org/2000/svg">
<rect width="100" height="100" rx="12" fill="#F7F7FF"/>
<g clip-path="url(#clip0_3968_67922)">
<path d="M40.6071 64.5322C40.6071 64.5322 37.4175 72.9378 37.4676 73.1889C37.5672 73.4408 33.9297 73.1889 33.9297 73.1889C33.9297 73.1889 36.7703 64.9346 36.9696 64.6328L40.6071 64.5322Z" fill="#4F56B2"/>
<path d="M58.8457 64.5322C58.8457 64.5322 62.0353 72.9378 61.9852 73.1889C61.935 73.4408 65.5238 73.1889 65.5238 73.1889C65.5238 73.1889 62.6832 64.9346 62.4839 64.6328L58.8457 64.5322Z" fill="#4F56B2"/>
<path d="M66.8172 64.8875H33.1828C29.774 64.8875 27 62.0859 27 58.6432V37.3313C27 33.888 29.774 31.087 33.1828 31.087H66.8172C70.2267 31.087 73 33.8886 73 37.3313V58.6432C73 62.0859 70.2267 64.8875 66.8172 64.8875ZM33.1828 32.4747C30.5311 32.4747 28.374 34.6532 28.374 37.3313V58.6432C28.374 61.3213 30.5311 63.4999 33.1828 63.4999H66.8172C69.4683 63.4999 71.626 61.3213 71.626 58.6432V37.3313C71.626 34.6532 69.4683 32.4747 66.8172 32.4747H33.1828Z" fill="#4F56B2"/>
<path d="M48.834 31.7547V28.2537C48.834 27.6258 49.3822 26.6934 50.5782 26.6934C51.7742 26.6934 52.3225 27.8007 52.3225 28.5556C52.3225 29.3104 52.4221 31.7547 52.4221 31.7547" fill="#4F56B2"/>
<path d="M52.4209 32.449C52.0547 32.449 51.7504 32.1569 51.7353 31.7843C51.7311 31.6837 51.635 29.3164 51.635 28.556C51.635 28.1904 51.3684 27.3876 50.5777 27.3876C49.787 27.3876 49.5204 27.9822 49.5204 28.2542V31.7552C49.5204 32.1382 49.2134 32.449 48.8335 32.449C48.4536 32.449 48.1465 32.1382 48.1465 31.7552V28.2542C48.1465 27.1705 49.0767 26 50.5777 26C52.0787 26 53.0089 27.3266 53.0089 28.556C53.0089 29.288 53.1078 31.7024 53.1085 31.7267C53.1236 32.1097 52.8296 32.433 52.4504 32.449C52.4408 32.449 52.4312 32.449 52.4209 32.449Z" fill="#4F56B2"/>
<path d="M36.9294 74.0006C36.3503 74.0006 35.5238 73.9659 34.3285 73.882L33.4375 73.8195L33.726 72.9655C36.5578 64.5898 36.7893 64.3094 36.8882 64.1894C37.1314 63.8952 37.5642 63.855 37.8555 64.1006C38.1275 64.3296 38.1804 64.7264 37.988 65.0178C37.7387 65.5146 36.3283 69.5824 35.3184 72.5526C36.1366 72.5956 36.9363 72.6199 37.3698 72.604C37.6391 71.7173 38.3906 69.613 40.4131 64.2845C40.5491 63.9265 40.9482 63.7482 41.3 63.8848C41.6551 64.0215 41.8317 64.4232 41.6957 64.7812C40.5745 67.7362 38.7684 72.5783 38.6008 73.2458C38.5898 73.4019 38.5294 73.5503 38.4229 73.6724C38.2683 73.8494 38.1364 74.0006 36.9294 74.0006ZM37.2715 72.9585C37.2379 73.0459 37.2214 73.1451 37.2296 73.2492C37.2269 73.193 37.2344 73.1125 37.2715 72.9585Z" fill="#4F56B2"/>
<path d="M63.2707 74.0004C62.0616 74.0004 61.9304 73.8484 61.7758 73.6708L61.5519 73.4127L61.591 73.1782C61.4056 72.4455 59.8908 68.3791 58.5058 64.7838C58.3684 64.4265 58.5436 64.0247 58.8967 63.8853C59.2491 63.7465 59.6483 63.9227 59.7857 64.2801C61.8067 69.5246 62.5762 71.6622 62.8413 72.603C63.281 72.619 64.0703 72.594 64.881 72.551C63.8711 69.5808 62.4614 65.5137 62.2107 65.0162C62.019 64.7255 62.0705 64.3286 62.3426 64.0997C62.6339 63.8541 63.0667 63.8936 63.3099 64.1871C63.4095 64.3071 63.641 64.5881 66.4727 72.9638L66.7612 73.8179L65.8702 73.8803C64.6756 73.9643 63.8491 73.999 63.27 73.999L63.2707 74.0004ZM62.9327 72.9707C62.9657 73.1331 62.9712 73.2316 62.9629 73.3031C62.9822 73.1831 62.9684 73.0707 62.9327 72.9707Z" fill="#4F56B2"/>
<g clip-path="url(#clip1_3968_67922)">
<path fill-rule="evenodd" clip-rule="evenodd" d="M44.8052 44.8872C44.8052 43.4305 45.3782 42.0334 46.3981 41.0033C47.4181 39.9732 48.8014 39.3945 50.2438 39.3945C51.6862 39.3945 53.0695 39.9732 54.0894 41.0033C55.1094 42.0334 55.6824 43.4305 55.6824 44.8872H56.5888C57.0696 44.8872 57.5307 45.0801 57.8707 45.4235C58.2106 45.7668 58.4016 46.2325 58.4016 46.7181V55.8726C58.4016 56.3582 58.2106 56.8238 57.8707 57.1672C57.5307 57.5106 57.0696 57.7035 56.5888 57.7035H43.8988C43.418 57.7035 42.9569 57.5106 42.6169 57.1672C42.2769 56.8238 42.0859 56.3582 42.0859 55.8726V46.7181C42.0859 46.2325 42.2769 45.7668 42.6169 45.4235C42.9569 45.0801 43.418 44.8872 43.8988 44.8872H44.8052ZM50.2438 41.2254C51.2054 41.2254 52.1276 41.6112 52.8076 42.2979C53.4875 42.9847 53.8695 43.916 53.8695 44.8872H46.6181C46.6181 43.916 47.0001 42.9847 47.68 42.2979C48.36 41.6112 49.2822 41.2254 50.2438 41.2254ZM52.0566 50.3799C52.0566 50.7013 51.9729 51.017 51.8138 51.2953C51.6547 51.5736 51.4258 51.8048 51.1502 51.9654V53.1262C51.1502 53.369 51.0547 53.6019 50.8847 53.7735C50.7147 53.9452 50.4842 54.0417 50.2438 54.0417C50.0034 54.0417 49.7728 53.9452 49.6029 53.7735C49.4329 53.6019 49.3374 53.369 49.3374 53.1262V51.9654C48.9918 51.7639 48.7217 51.4528 48.569 51.0805C48.4163 50.7081 48.3895 50.2953 48.4928 49.906C48.5961 49.5167 48.8237 49.1727 49.1402 48.9274C49.4568 48.682 49.8447 48.549 50.2438 48.549C50.7246 48.549 51.1857 48.7419 51.5257 49.0853C51.8657 49.4286 52.0566 49.8943 52.0566 50.3799Z" fill="#4F56B2"/>
</g>
</g>
<defs>
<clipPath id="clip0_3968_67922">
<rect width="46" height="48" fill="white" transform="translate(27 26)"/>
</clipPath>
<clipPath id="clip1_3968_67922">
<rect width="21.7543" height="21.9707" fill="white" transform="translate(39.3652 37.5635)"/>
</clipPath>
</defs>
</svg>
