<svg width="333" height="362" viewBox="0 0 333 362" fill="none" xmlns="http://www.w3.org/2000/svg">
<path d="M206.064 0.748962L205.666 36.943L228.442 76.3095L228.839 40.1154L206.064 0.748962Z" fill="#F7F7FF"/>
<path d="M215.11 53.4047L203.18 65.2291L199.89 104.992L228.486 76.4747L215.11 53.4047Z" fill="#F7F7FF"/>
<path fill-rule="evenodd" clip-rule="evenodd" d="M215.024 162.757C239.242 141.065 262.201 118.015 283.791 93.7198C277.862 83.474 270.342 76.2641 260.834 72.7388C233.086 104.073 202.981 133.251 170.78 160.017C165.376 170.978 161.451 176.196 148.768 176.718C148.514 183.971 147.607 191.186 146.056 198.276C146.056 198.276 151.473 207.751 166.37 209.17C180.575 210.525 221.61 193.705 221.61 193.705C241.34 198.868 260.482 206.053 278.729 215.145C285.345 207.07 290.623 198.598 290.985 187.892C271.495 177.491 250.907 169.282 229.599 163.416C224.862 162.045 219.866 161.819 215.024 162.757ZM164.707 196.536C164.707 196.768 164.661 196.998 164.572 197.212C164.483 197.427 164.353 197.621 164.188 197.786C164.024 197.95 163.828 198.08 163.613 198.168C163.398 198.257 163.168 198.303 162.935 198.302C162.585 198.303 162.242 198.2 161.95 198.006C161.658 197.812 161.431 197.536 161.297 197.213C161.163 196.89 161.128 196.534 161.197 196.192C161.265 195.849 161.435 195.534 161.683 195.287C161.931 195.04 162.246 194.871 162.59 194.802C162.934 194.734 163.29 194.769 163.614 194.902C163.938 195.036 164.215 195.263 164.409 195.554C164.604 195.844 164.707 196.186 164.707 196.536ZM190.614 178.283C190.779 178.119 190.909 177.925 190.998 177.71C191.087 177.496 191.133 177.267 191.133 177.035C191.134 176.803 191.088 176.573 190.999 176.359C190.91 176.144 190.78 175.95 190.615 175.785C190.451 175.621 190.255 175.491 190.041 175.402C189.826 175.313 189.595 175.268 189.363 175.268C189.13 175.268 188.9 175.313 188.685 175.402C188.47 175.491 188.275 175.621 188.11 175.784C187.946 175.948 187.815 176.143 187.726 176.357C187.637 176.572 187.592 176.801 187.592 177.033C187.592 177.265 187.637 177.494 187.726 177.709C187.815 177.923 187.946 178.117 188.11 178.281C188.275 178.445 188.47 178.575 188.685 178.664C188.899 178.753 189.13 178.799 189.362 178.799C189.595 178.799 189.825 178.753 190.04 178.664C190.255 178.575 190.45 178.447 190.614 178.283ZM222.694 188.172C222.694 188.404 222.648 188.634 222.559 188.848C222.47 189.063 222.339 189.257 222.175 189.421C222.011 189.585 221.815 189.716 221.601 189.805C221.386 189.894 221.155 189.94 220.923 189.94C220.69 189.94 220.46 189.894 220.245 189.805C220.03 189.716 219.835 189.585 219.671 189.421C219.506 189.257 219.375 189.063 219.285 188.848C219.196 188.634 219.15 188.404 219.15 188.172C219.15 187.94 219.196 187.711 219.285 187.496C219.375 187.282 219.506 187.088 219.671 186.924C219.835 186.759 220.03 186.629 220.245 186.54C220.46 186.451 220.69 186.405 220.923 186.405C221.155 186.405 221.386 186.451 221.601 186.54C221.815 186.629 222.011 186.759 222.175 186.924C222.339 187.088 222.47 187.282 222.559 187.496C222.648 187.711 222.694 187.94 222.694 188.172ZM255.687 180.048C255.852 179.884 255.982 179.689 256.071 179.475C256.16 179.261 256.206 179.031 256.206 178.799C256.206 178.568 256.16 178.338 256.071 178.124C255.982 177.91 255.852 177.715 255.687 177.551C255.523 177.387 255.328 177.257 255.113 177.168C254.898 177.079 254.668 177.034 254.435 177.034C254.203 177.034 253.973 177.079 253.758 177.168C253.543 177.257 253.348 177.387 253.183 177.551C253.019 177.715 252.888 177.91 252.8 178.124C252.711 178.338 252.665 178.568 252.665 178.799C252.665 179.031 252.711 179.261 252.8 179.475C252.888 179.689 253.019 179.884 253.183 180.048C253.348 180.212 253.543 180.342 253.758 180.431C253.973 180.519 254.203 180.565 254.435 180.565C254.668 180.565 254.898 180.519 255.113 180.431C255.328 180.342 255.523 180.212 255.687 180.048ZM274.861 204.683C274.861 204.915 274.815 205.145 274.726 205.359C274.637 205.573 274.506 205.768 274.342 205.932C274.178 206.096 273.982 206.227 273.768 206.316C273.553 206.405 273.322 206.451 273.09 206.451C272.857 206.451 272.627 206.405 272.412 206.316C272.197 206.227 272.002 206.096 271.838 205.932C271.673 205.768 271.542 205.574 271.452 205.359C271.363 205.145 271.317 204.915 271.317 204.683C271.317 204.451 271.363 204.221 271.452 204.007C271.542 203.793 271.673 203.598 271.838 203.435C272.002 203.27 272.197 203.14 272.412 203.051C272.627 202.961 272.857 202.916 273.09 202.916C273.322 202.916 273.553 202.961 273.768 203.051C273.982 203.14 274.178 203.27 274.342 203.435C274.506 203.598 274.637 203.793 274.726 204.007C274.815 204.222 274.861 204.451 274.861 204.683ZM183.311 160.835C183.476 160.671 183.607 160.477 183.696 160.262C183.785 160.048 183.831 159.818 183.831 159.586C183.831 159.354 183.785 159.125 183.696 158.91C183.607 158.696 183.477 158.501 183.312 158.337C183.148 158.173 182.953 158.043 182.738 157.954C182.523 157.865 182.293 157.82 182.06 157.819C181.828 157.819 181.597 157.865 181.382 157.954C181.167 158.042 180.972 158.172 180.808 158.336C180.643 158.5 180.513 158.695 180.424 158.909C180.335 159.123 180.289 159.353 180.289 159.585C180.289 159.817 180.335 160.046 180.424 160.26C180.513 160.475 180.643 160.669 180.808 160.833C180.972 160.997 181.167 161.127 181.382 161.216C181.597 161.305 181.827 161.35 182.06 161.35C182.292 161.35 182.522 161.305 182.737 161.216C182.952 161.127 183.147 160.999 183.311 160.835ZM216.006 152.086C216.007 152.436 215.903 152.778 215.709 153.069C215.514 153.36 215.237 153.586 214.913 153.72C214.59 153.854 214.233 153.889 213.889 153.82C213.546 153.752 213.23 153.583 212.983 153.335C212.818 153.171 212.688 152.976 212.599 152.762C212.51 152.548 212.464 152.318 212.464 152.086C212.464 151.855 212.51 151.625 212.599 151.411C212.688 151.197 212.818 151.002 212.983 150.838C213.147 150.674 213.342 150.544 213.557 150.455C213.772 150.367 214.002 150.321 214.235 150.321C214.467 150.321 214.697 150.367 214.912 150.455C215.127 150.544 215.322 150.674 215.487 150.838C215.651 151.002 215.782 151.196 215.871 151.411C215.96 151.625 216.006 151.855 216.006 152.086ZM222.175 124.243C222.339 124.079 222.469 123.884 222.558 123.67C222.647 123.456 222.693 123.226 222.693 122.994C222.693 122.762 222.647 122.533 222.558 122.319C222.469 122.104 222.339 121.91 222.175 121.746C222.01 121.582 221.815 121.452 221.6 121.363C221.385 121.274 221.155 121.229 220.923 121.229C220.69 121.229 220.46 121.274 220.245 121.363C220.03 121.452 219.835 121.582 219.671 121.746C219.506 121.91 219.376 122.104 219.287 122.319C219.198 122.533 219.152 122.762 219.152 122.994C219.152 123.226 219.198 123.456 219.287 123.67C219.376 123.884 219.506 124.079 219.671 124.243C219.835 124.407 220.03 124.537 220.245 124.625C220.46 124.714 220.69 124.76 220.923 124.76C221.155 124.76 221.385 124.714 221.6 124.625C221.815 124.537 222.01 124.407 222.175 124.243ZM256.207 113.91C256.207 114.259 256.104 114.601 255.909 114.892C255.715 115.183 255.438 115.41 255.114 115.543C254.79 115.677 254.434 115.712 254.09 115.643C253.746 115.575 253.431 115.406 253.183 115.158C253.019 114.994 252.888 114.799 252.8 114.585C252.711 114.371 252.665 114.141 252.665 113.91C252.665 113.678 252.711 113.448 252.8 113.234C252.888 113.02 253.019 112.825 253.183 112.661C253.348 112.497 253.543 112.367 253.758 112.278C253.973 112.19 254.203 112.144 254.435 112.144C254.668 112.144 254.898 112.19 255.113 112.278C255.328 112.367 255.523 112.497 255.687 112.661C255.852 112.825 255.983 113.02 256.072 113.234C256.161 113.448 256.207 113.678 256.207 113.91ZM263.976 84.343C264.308 84.0119 264.494 83.5628 264.494 83.0946C264.494 82.6263 264.308 82.1772 263.976 81.8461C263.811 81.6822 263.616 81.5521 263.401 81.4634C263.186 81.3746 262.956 81.329 262.724 81.329C262.254 81.329 261.804 81.515 261.472 81.8461C261.14 82.1772 260.953 82.6263 260.953 83.0946C260.953 83.5628 261.14 84.0119 261.472 84.343C261.804 84.6741 262.254 84.8602 262.724 84.8602C263.193 84.8602 263.644 84.6741 263.976 84.343Z" fill="#F7F7FF"/>
<path d="M166.36 128.654C166.035 129.267 164.635 131.755 163.225 134.346C159.573 130.781 161.191 128.15 166.36 128.654Z" fill="#4F56B2"/>
<path d="M178.335 133.99L176.208 140.082C178.11 140.191 180.525 139.783 180.628 137.918C180.53 137.143 180.277 136.395 179.883 135.72C179.489 135.046 178.962 134.457 178.335 133.99Z" fill="#4F56B2"/>
<path d="M155.777 104.249C156.319 106.844 156.823 109.08 157.109 110.305C158.699 109.476 159.704 108.467 159.675 107.385C159.655 105.977 158.201 104.898 155.777 104.249Z" fill="#4F56B2"/>
<path d="M143.413 111.639C137.556 110.233 137.376 106.737 143.052 104.718C143.331 107.014 143.451 109.328 143.413 111.639Z" fill="#4F56B2"/>
<path d="M328.148 211.425C328.004 210.127 322.039 207.496 315.098 204.864C308.59 202.377 297.058 196.895 290.334 193.544C288.975 199.524 286.363 205.15 282.669 210.052C287.948 212.575 293.009 215.567 296.082 215.82C298.115 215.939 300.151 215.67 302.083 215.026C310.253 212.435 328.616 216.076 328.148 211.425Z" fill="#4F56B2"/>
<path d="M294.558 41.5231C293.257 41.3789 289.421 46.6782 285.376 52.8788C281.833 58.3223 273.41 69.1373 267.734 76.167C272.609 79.3264 276.831 83.3894 280.17 88.1356C284.219 82.5118 291.052 77.3567 292.136 73.7156C292.669 71.7556 292.827 69.7122 292.606 67.6953C291.817 59.1894 299.228 42.0278 294.558 41.5231Z" fill="#4F56B2"/>
<path d="M116.552 126.672C117.576 125.996 118.343 124.998 118.732 123.836C119.12 122.675 119.108 121.417 118.696 120.264C118.284 119.111 117.497 118.128 116.459 117.473C115.422 116.818 114.195 116.528 112.973 116.65C113.65 115.657 113.979 114.469 113.909 113.27C113.84 112.071 113.375 110.929 112.588 110.021C111.801 109.112 110.735 108.489 109.555 108.246C108.376 108.004 107.149 108.157 106.066 108.681C107.86 103.33 100.428 99.0954 96.524 103.814C96.4937 102.491 95.9994 101.22 95.1269 100.222C94.2544 99.2245 93.059 98.5632 91.7484 98.3532C90.4377 98.1433 89.0947 98.3979 87.9528 99.0728C86.8108 99.7478 85.9422 100.8 85.4977 102.048C83.3476 96.4106 74.9052 97.9437 74.9052 103.706C74.0435 102.86 72.9248 102.324 71.7243 102.18C70.5239 102.036 69.3096 102.294 68.2717 102.912C67.2338 103.531 66.4309 104.475 65.9889 105.597C65.547 106.719 65.4908 107.956 65.8293 109.113C64.7114 108.615 63.4584 108.505 62.2702 108.8C61.082 109.095 60.0272 109.778 59.2742 110.741C58.5211 111.704 58.1133 112.89 58.1157 114.111C58.1182 115.332 58.5308 116.517 59.2877 117.477C58.0024 117.332 56.7069 117.644 55.6307 118.36C54.5545 119.076 53.767 120.148 53.4076 121.387C53.0482 122.626 53.1402 123.952 53.6672 125.13C54.1942 126.308 55.1223 127.262 56.2871 127.823C55.0068 127.998 53.8301 128.62 52.966 129.579C52.102 130.537 51.6064 131.769 51.5674 133.058C51.5284 134.346 51.9485 135.606 52.7529 136.614C53.5574 137.623 54.6943 138.314 55.9617 138.566C51.0641 141.777 54.2607 149.396 59.5769 148.516C58.9081 149.517 58.5882 150.71 58.6667 151.911C58.7452 153.112 59.2177 154.253 60.0112 155.16C60.8048 156.066 61.8754 156.687 63.0578 156.926C64.2403 157.166 65.4689 157.011 66.5542 156.485C64.7466 161.883 72.386 166.021 76.0982 161.28C76.1048 162.573 76.5721 163.822 77.4167 164.804C78.2613 165.786 79.4283 166.437 80.7094 166.641C81.9906 166.844 83.3026 166.587 84.4114 165.916C85.5202 165.244 86.3536 164.201 86.763 162.974C87.0638 163.806 87.5639 164.552 88.2198 165.147C88.8757 165.742 89.6676 166.169 90.5265 166.389C91.3855 166.609 92.2854 166.617 93.1479 166.411C94.0105 166.206 94.8095 165.793 95.4756 165.209C93.7211 159.903 92.2845 154.498 91.1735 149.023C87.8362 134.512 88.6486 139.817 87.0522 133.449C82.4971 132.476 83.907 127.104 87.0884 128.799C88.6106 129.628 89.149 129.52 89.149 128.546C89.5829 120.543 95.584 118.056 100.031 125.951C103.501 132.115 105.815 143.291 99.4884 144.877C98.8299 145.061 98.1476 145.146 97.4639 145.129C97.4639 146.797 101.167 152.028 101.874 152.908C104.047 152.553 106.268 152.614 108.418 153.089L113.803 151.466C113.981 150.832 114.005 150.164 113.873 149.518C113.74 148.872 113.455 148.267 113.042 147.753C114.325 147.907 115.621 147.603 116.7 146.895C117.78 146.186 118.572 145.119 118.938 143.882C119.303 142.646 119.216 141.321 118.694 140.142C118.172 138.963 117.248 138.007 116.086 137.443C117.367 137.277 118.548 136.665 119.421 135.715C120.295 134.766 120.804 133.54 120.86 132.253C120.915 130.966 120.514 129.7 119.726 128.679C118.938 127.658 117.814 126.947 116.552 126.672Z" fill="#4F56B2"/>
<path d="M97.6074 145.165C95.9913 145.044 94.4049 144.667 92.9077 144.048L99.1277 148.662C98.393 147.609 97.8748 146.42 97.6074 145.165Z" fill="#4F56B2"/>
<path d="M148.764 176.781C141.694 177.364 134.596 177.532 127.506 177.286L148.583 181.937C148.733 180.223 148.792 178.502 148.764 176.781Z" fill="#4F56B2"/>
<path d="M81.8463 52.843C81.8443 55.3877 81.0217 57.8643 79.5001 59.9071C77.9784 61.9499 75.8383 63.4506 73.3958 64.1876C70.9532 64.9246 68.3378 64.8588 65.9356 64C63.5335 63.1411 61.472 61.5347 60.0555 59.418C58.639 57.3013 57.9427 54.7865 58.0694 52.245C58.196 49.7034 59.1389 47.2698 60.7588 45.3036C62.3787 43.3373 64.5898 41.9427 67.0655 41.3255C69.5412 40.7084 72.1503 40.9015 74.5075 41.8763C76.6826 42.7738 78.5412 44.2954 79.8478 46.2478C81.1544 48.2003 81.85 50.4958 81.8463 52.843Z" fill="#4F56B2"/>
<path d="M157.657 228.872C157.162 221.819 158.122 214.74 160.477 208.071" stroke="#252B4A" stroke-linecap="round" stroke-linejoin="round"/>
<path d="M161.019 131.106L159.681 107.385" stroke="#252B4A" stroke-linecap="round" stroke-linejoin="round"/>
<path d="M141.208 148.121L138.894 108.466" stroke="#252B4A" stroke-linecap="round" stroke-linejoin="round"/>
<path d="M99.1997 148.806L92.7646 143.975" stroke="#252B4A" stroke-linecap="round" stroke-linejoin="round"/>
<path d="M92.7642 143.975C107.08 149.491 104.51 133.739 100.139 125.986C95.6887 118.093 89.6913 120.579 89.2575 128.582C89.2575 129.555 88.719 129.656 87.1968 128.834C84.025 127.127 82.6056 132.511 87.1607 133.485C87.7753 135.972 88.289 137.34 88.896 139.325C89.5562 141.486 90.7987 146.861 91.282 149.058C93.5462 159.416 95.6887 167.95 100.035 174.618C111.919 192.866 127.076 198.987 146.056 198.335C147.606 191.244 148.514 184.029 148.767 176.777C162.216 175.659 165.545 172.762 176.676 147.252C177.793 144.691 178.959 141.953 180.255 138.924" stroke="#252B4A" stroke-linecap="round" stroke-linejoin="round"/>
<path d="M102.019 152.952C100.072 150.658 98.576 148.019 97.6084 145.172" stroke="#252B4A" stroke-linecap="round" stroke-linejoin="round"/>
<path d="M161.019 131.098C158.343 137.587 152.22 151.05 146.956 154.638C140.325 159.158 110.587 153.485 110.587 153.485C105.743 152.475 101.44 151.934 97.6084 154.89" stroke="#252B4A" stroke-linecap="round" stroke-linejoin="round"/>
<path d="M108.528 153.096L140.918 143.254" stroke="#252B4A" stroke-linecap="round" stroke-linejoin="round"/>
<path d="M173.527 109.115C176.094 106.808 181.519 100.434 184.59 97.002C186.003 95.4196 186.683 99.6697 178.299 109.511" stroke="#252B4A" stroke-linecap="round" stroke-linejoin="round"/>
<path d="M176.208 110.986C179.136 109.039 182.913 105.95 186.438 103.235C188.092 101.962 189.367 104.389 180.73 112.464" stroke="#252B4A" stroke-linecap="round" stroke-linejoin="round"/>
<path d="M178.335 133.989C181.189 136.646 180.729 138.135 180.251 138.922C177.606 142.44 163.707 137.53 161.475 131.946C160.571 129.688 162.457 128.271 166.359 128.648" stroke="#252B4A" stroke-linecap="round" stroke-linejoin="round"/>
<path d="M176.208 140.081L178.34 133.989C180.22 128.257 180.654 126.851 179.642 123.282C178.847 120.47 178.055 119.142 179.823 118.091C189.42 112.387 189.658 109.767 187.776 110.412C183.765 111.79 181.269 112.323 178.594 113.008" stroke="#252B4A" stroke-linecap="round" stroke-linejoin="round"/>
<path d="M167.056 121.624C165.968 117.966 164.298 114.507 162.109 111.378C160.807 109.575 162.109 107.809 167.676 113.901" stroke="#252B4A" stroke-linecap="round" stroke-linejoin="round"/>
<path d="M143.052 104.724C137.388 106.715 137.506 110.274 143.414 111.646C148.005 112.672 152.806 112.208 157.113 110.318C161.166 108.206 160.158 105.491 155.782 104.261" stroke="#252B4A" stroke-linecap="round" stroke-linejoin="round"/>
<path d="M148.942 98.7681C148.402 97.4703 147.968 96.3888 147.534 95.4155C145.1 90.2269 142.067 85.3391 138.496 80.8513C134.147 75.996 133.226 77.4209 135.928 82.762C140.342 91.4898 143.786 101.912 143.413 111.638" stroke="#252B4A" stroke-linecap="round" stroke-linejoin="round"/>
<path d="M139.761 82.3658C139.503 79.9613 139.601 77.5321 140.05 75.1559C140.231 74.507 141.165 73.896 142.003 77.9317C142.181 78.7969 143.017 82.51 143.376 83.8135C143.992 86.48 144.777 89.1049 145.726 91.6724" stroke="#252B4A" stroke-linecap="round" stroke-linejoin="round"/>
<path d="M147.535 95.4165C149.306 97.8679 150.851 91.3751 151.837 88.7112C152.733 86.2921 154.691 83.9545 154.259 91.0184C153.958 95.9933 155.829 104.85 157.113 110.305" stroke="#252B4A" stroke-linecap="round" stroke-linejoin="round"/>
<path d="M171.178 173.644L213.439 163.163C218.755 161.834 224.327 161.921 229.599 163.416C250.907 169.282 271.495 177.491 290.984 187.892C290.623 198.599 285.345 207.07 278.729 215.145C260.482 206.053 241.34 198.868 221.609 193.705C221.609 193.705 180.575 210.525 166.369 209.171C151.473 207.751 146.01 198.248 146.01 198.248" stroke="#252B4A" stroke-linecap="round" stroke-linejoin="round"/>
<path d="M215.024 162.757C239.241 141.065 262.201 118.015 283.79 93.7198C277.861 83.474 270.342 76.2641 260.834 72.7388C233.086 104.073 202.98 133.251 170.78 160.017" stroke="#252B4A" stroke-linecap="round" stroke-linejoin="round"/>
<path d="M328.148 211.425C328.004 210.127 322.039 207.495 315.098 204.864C308.59 202.376 297.058 196.895 290.334 193.544C288.975 199.524 286.363 205.149 282.669 210.051C287.948 212.575 293.009 215.567 296.082 215.819C298.115 215.938 300.151 215.669 302.083 215.026C310.253 212.434 328.616 216.075 328.148 211.425Z" stroke="#252B4A" stroke-linecap="round" stroke-linejoin="round"/>
<path d="M294.558 41.5209C293.257 41.3767 289.421 46.6761 285.375 52.8767C281.833 58.3202 273.409 69.1352 267.733 76.1649C272.608 79.3243 276.83 83.3873 280.17 88.1334C284.219 82.5097 291.051 77.3545 292.136 73.7135C292.669 71.7535 292.827 69.71 292.606 67.6932C291.816 59.1873 299.227 42.0256 294.558 41.5209Z" stroke="#252B4A" stroke-linecap="round" stroke-linejoin="round"/>
<path d="M113.914 151.474C114.032 150.533 113.971 149.58 113.733 148.662C113.577 148.341 113.385 148.039 113.162 147.761C114.447 147.921 115.748 147.62 116.832 146.912C117.915 146.203 118.711 145.134 119.077 143.895C119.443 142.656 119.355 141.327 118.829 140.147C118.303 138.966 117.374 138.011 116.206 137.45C117.499 137.289 118.692 136.673 119.57 135.713C120.448 134.754 120.955 133.513 120.998 132.215C121.042 130.916 120.62 129.645 119.808 128.629C118.996 127.613 117.847 126.919 116.568 126.671C117.503 126.062 118.228 125.182 118.648 124.149C119.068 123.117 119.161 121.981 118.915 120.894C118.67 119.807 118.098 118.821 117.275 118.068C116.452 117.314 115.418 116.829 114.311 116.678C113.87 116.615 113.423 116.603 112.979 116.642C113.461 115.956 113.77 115.165 113.883 114.335C113.982 113.625 113.94 112.902 113.759 112.208C113.578 111.515 113.261 110.863 112.828 110.292C112.394 109.72 111.852 109.239 111.232 108.876C110.612 108.513 109.926 108.276 109.214 108.178C108.138 108.026 107.042 108.202 106.069 108.683C106.396 107.474 106.298 106.189 105.789 105.044C105.279 103.899 104.391 102.963 103.273 102.394C102.154 101.824 100.873 101.656 99.6444 101.916C98.4159 102.176 97.3144 102.85 96.5246 103.823C96.531 102.503 96.0589 101.226 95.1953 100.225C94.3317 99.2252 93.1347 98.5697 91.8248 98.3799L91.4633 98.3078C90.1858 98.1347 88.888 98.4155 87.7973 99.1011C86.7067 99.7866 85.8928 100.833 85.4983 102.057C85.0721 100.919 84.2776 99.9549 83.2405 99.3176C82.2033 98.6802 80.9827 98.4058 79.7717 98.5377C78.5606 98.6696 77.4282 99.2003 76.5535 100.046C75.6788 100.892 75.1117 102.004 74.942 103.207C74.912 103.373 74.8999 103.542 74.9058 103.711C74.0744 102.886 72.9955 102.353 71.8329 102.194C71.1211 102.093 70.3964 102.133 69.7003 102.313C69.0043 102.492 68.3507 102.807 67.777 103.239C67.2034 103.671 66.7211 104.212 66.3579 104.831C65.9947 105.45 65.7577 106.134 65.6605 106.844C65.5558 107.607 65.6224 108.385 65.8508 109.121C65.3814 108.903 64.8817 108.757 64.3685 108.688C63.4717 108.563 62.5577 108.661 61.7083 108.974C60.859 109.288 60.101 109.807 59.5024 110.484C58.9037 111.162 58.4832 111.977 58.2784 112.857C58.0737 113.737 58.0912 114.653 58.3293 115.524C58.5196 116.236 58.8545 116.902 59.3073 117.484C58.0184 117.33 56.7166 117.638 55.6344 118.353C54.5522 119.068 53.76 120.143 53.3994 121.386C53.0387 122.63 53.1331 123.961 53.6657 125.141C54.1983 126.322 55.1344 127.275 56.3067 127.831C55.0207 127.998 53.8366 128.617 52.9664 129.576C52.0962 130.535 51.5968 131.771 51.5577 133.064C51.5185 134.357 51.9422 135.621 52.7527 136.631C53.5633 137.64 54.7078 138.329 55.9813 138.574C55.3334 138.998 54.7849 139.556 54.3731 140.211C53.9613 140.866 53.696 141.602 53.5953 142.368C53.4007 143.797 53.7794 145.244 54.6492 146.396C55.5189 147.547 56.8093 148.31 58.2399 148.518C58.6813 148.588 59.1303 148.588 59.5718 148.518C59.1172 149.214 58.821 150.002 58.7041 150.825C58.5678 151.808 58.7024 152.81 59.0934 153.723C59.4845 154.636 60.1173 155.425 60.924 156.007C61.7308 156.589 62.6811 156.94 63.673 157.024C64.6649 157.109 65.6611 156.922 66.5548 156.485C66.4886 156.697 66.4403 156.914 66.4102 157.134C66.3069 157.844 66.3459 158.568 66.5248 159.264C66.7038 159.959 67.0192 160.612 67.4529 161.186C67.8865 161.759 68.4298 162.241 69.0513 162.603C69.6728 162.966 70.3602 163.202 71.0737 163.298C72.0156 163.436 72.9772 163.321 73.8601 162.966C74.743 162.612 75.5156 162.029 76.0988 161.279C76.097 162.578 76.56 163.834 77.4045 164.822C78.2489 165.811 79.4194 166.466 80.7053 166.67C81.9911 166.874 83.3078 166.614 84.4185 165.937C85.5291 165.259 86.3607 164.208 86.7636 162.974C87.0643 163.806 87.5645 164.552 88.2204 165.147C88.8763 165.742 89.6682 166.168 90.5271 166.389C91.386 166.609 92.2859 166.617 93.1485 166.411C94.011 166.205 94.8101 165.793 95.4762 165.209" stroke="#252B4A" stroke-linecap="round" stroke-linejoin="round"/>
<path d="M91.5342 150.14L99.1983 148.806" stroke="#252B4A" stroke-linecap="round" stroke-linejoin="round"/>
<path d="M299.371 314.13C296.633 313.199 294.125 311.699 292.012 309.729C289.9 307.759 288.231 305.364 287.116 302.702L282.524 291.815L300.166 284.749L301.829 288.643C303.614 292.886 306.966 296.283 311.193 298.13L330.859 306.782C331.125 306.894 331.366 307.059 331.567 307.266C331.768 307.473 331.926 307.719 332.03 307.988C332.135 308.256 332.184 308.543 332.176 308.832C332.167 309.12 332.1 309.403 331.98 309.666C330.309 313.38 327.306 316.338 323.561 317.959C319.815 319.58 315.597 319.746 311.735 318.426L299.371 314.13Z" stroke="#252B4A" stroke-linecap="round" stroke-linejoin="round"/>
<path d="M282.526 291.816L300.168 284.75L294.528 271.484C294.366 271.118 294.07 270.827 293.7 270.673C293.33 270.519 292.914 270.512 292.54 270.655L277.79 276.536C277.507 276.654 277.265 276.852 277.096 277.107C276.926 277.361 276.836 277.66 276.836 277.965C276.838 278.168 276.879 278.368 276.958 278.555L282.526 291.816Z" stroke="#252B4A" stroke-linecap="round" stroke-linejoin="round"/>
<path d="M157.549 138.892C159.915 141.611 162.86 143.769 166.168 145.211C169.476 146.652 173.065 147.341 176.673 147.225" stroke="#252B4A" stroke-linecap="round" stroke-linejoin="round"/>
<path d="M139.364 116.396C142.678 117.77 146.25 118.415 149.837 118.287C153.423 118.16 156.94 117.263 160.148 115.658" stroke="#252B4A" stroke-linecap="round" stroke-linejoin="round"/>
<path d="M43.5259 236.083L206.606 315.104" stroke="#252B4A" stroke-linecap="round" stroke-linejoin="round"/>
<path d="M240.119 318.06C241.079 316.085 241.214 313.812 240.496 311.737C239.778 309.663 238.264 307.957 236.287 306.993L222.911 300.542C220.93 299.585 218.65 299.45 216.57 300.166C214.49 300.882 212.779 302.392 211.812 304.363L193.05 342.865C192.09 344.84 191.954 347.113 192.673 349.188C193.391 351.262 194.905 352.968 196.882 353.932L210.258 360.421C212.238 361.378 214.519 361.513 216.599 360.797C218.679 360.081 220.39 358.571 221.356 356.6L240.119 318.06Z" stroke="#252B4A" stroke-linecap="round" stroke-linejoin="round"/>
<path d="M38.2109 211.028L43.7421 199.708C46.4594 194.137 51.2824 189.87 57.1522 187.842C63.0221 185.814 69.4589 186.192 75.0496 188.893L224.284 261.182C229.87 263.892 234.15 268.701 236.183 274.555C238.217 280.408 237.838 286.827 235.129 292.402L229.598 303.757" stroke="#252B4A" stroke-linecap="round" stroke-linejoin="round"/>
<path d="M18.8711 267.698L196.917 353.93" stroke="#252B4A" stroke-linecap="round" stroke-linejoin="round"/>
<path d="M297.817 118.993L300.709 137.45" stroke="#252B4A" stroke-linecap="round" stroke-linejoin="round"/>
<path d="M308.518 126.779L290.008 129.663" stroke="#252B4A" stroke-linecap="round" stroke-linejoin="round"/>
<path d="M81.8463 52.8409C81.8443 55.3856 81.0217 57.8622 79.5001 59.905C77.9784 61.9478 75.8383 63.4485 73.3958 64.1855C70.9532 64.9225 68.3378 64.8567 65.9356 63.9978C63.5335 63.139 61.472 61.5326 60.0555 59.4159C58.639 57.2992 57.9427 54.7844 58.0694 52.2428C58.196 49.7013 59.1389 47.2677 60.7588 45.3014C62.3787 43.3352 64.5898 41.9405 67.0655 41.3234C69.5412 40.7062 72.1503 40.8993 74.5075 41.8741C76.6826 42.7717 78.5412 44.2932 79.8478 46.2457C81.1544 48.1982 81.85 50.4936 81.8463 52.8409Z" stroke="#252B4A" stroke-linecap="round" stroke-linejoin="round"/>
<path d="M67.7529 32.5807C69.2604 35.1171 70.0226 38.0251 69.9524 40.9727C67.2524 39.7959 64.936 37.8901 63.2643 35.4704C61.7535 32.9323 60.9893 30.0215 61.0591 27.0707C63.7621 28.2488 66.0807 30.1573 67.7529 32.5807Z" stroke="#252B4A" stroke-linecap="round" stroke-linejoin="round"/>
<path d="M148.554 181.93L127.506 177.249" stroke="#252B4A" stroke-linecap="round" stroke-linejoin="round"/>
<path d="M148.764 176.78C136.038 177.914 123.221 177.527 110.587 175.627" stroke="#252B4A" stroke-linecap="round" stroke-linejoin="round"/>
<path d="M17.1709 157.746L18.0032 162.361" stroke="#252B4A" stroke-linecap="round" stroke-linejoin="round"/>
<path d="M14.3872 167.48L9.75977 168.308" stroke="#252B4A" stroke-linecap="round" stroke-linejoin="round"/>
<path d="M27.7637 165.172L23.1362 165.965" stroke="#252B4A" stroke-linecap="round" stroke-linejoin="round"/>
<path d="M20.3172 175.699L19.521 171.085" stroke="#252B4A" stroke-linecap="round" stroke-linejoin="round"/>
<path d="M23.1358 165.965C22.561 166.067 21.9717 166.054 21.4018 165.927C20.832 165.801 20.2929 165.563 19.8155 165.228C19.338 164.893 18.9317 164.467 18.6199 163.975C18.3081 163.483 18.0969 162.934 17.9985 162.36C18.1001 162.934 18.0871 163.521 17.9602 164.09C17.8333 164.658 17.5951 165.195 17.2591 165.671C16.9231 166.148 16.4961 166.553 16.0026 166.864C15.509 167.175 14.9587 167.385 14.3833 167.483C14.9582 167.382 15.5475 167.395 16.1173 167.521C16.6871 167.648 17.2263 167.886 17.7037 168.221C18.1811 168.556 18.5874 168.981 18.8992 169.474C19.211 169.966 19.4222 170.514 19.5207 171.088C19.419 170.515 19.432 169.927 19.5589 169.359C19.6858 168.791 19.9241 168.253 20.26 167.777C20.596 167.301 21.023 166.896 21.5166 166.585C22.0101 166.274 22.5604 166.064 23.1358 165.965Z" stroke="#252B4A" stroke-linecap="round" stroke-linejoin="round"/>
<path d="M271.607 211.713C274.784 225.071 273.055 239.122 266.735 251.317C260.414 263.513 249.919 273.047 237.154 278.189" stroke="#252B4A" stroke-linecap="round" stroke-linejoin="round"/>
<path d="M163.224 134.35C164.634 131.755 166.333 128.69 166.333 128.69C167.128 127.068 166.938 114.195 168.176 111.424C168.5 110.704 174.545 103.645 177.395 100.213C179.821 97.2967 182.059 96.9685 176.021 106.594" stroke="#252B4A" stroke-linecap="round" stroke-linejoin="round"/>
<path d="M48.7258 225.339C49.686 223.364 49.8219 221.09 49.1035 219.016C48.3852 216.941 46.8713 215.235 44.8937 214.272L31.5538 207.821C29.5733 206.863 27.2929 206.728 25.2125 207.444C23.132 208.161 21.4213 209.67 20.4552 211.642L1.65627 250.143C0.696056 252.118 0.560226 254.392 1.27855 256.467C1.99688 258.541 3.51076 260.247 5.48835 261.211L18.8645 267.7C20.845 268.657 23.1253 268.793 25.2058 268.076C27.2862 267.36 28.997 265.85 29.9631 263.878L48.7258 225.339Z" stroke="#252B4A" stroke-linecap="round" stroke-linejoin="round"/>
<path d="M206.064 0.748962L205.666 36.943L228.442 76.3095L228.839 40.1154L206.064 0.748962Z" stroke="#252B4A" stroke-linejoin="round"/>
<path d="M215.11 53.4047L203.18 65.2291L199.89 104.992L228.486 76.4747L215.11 53.4047Z" stroke="#252B4A" stroke-linejoin="round"/>
</svg>
