<svg width="400" height="378" viewBox="0 0 400 378" fill="none" xmlns="http://www.w3.org/2000/svg">
<path d="M234.701 178.551C208.793 170.469 202.582 145.175 202.582 145.175C203.452 143.973 204.301 142.757 205.129 141.528L205.967 128.479C192.434 124.86 200.116 108.922 200.116 108.922C193.91 100.149 188.73 90.7365 184.672 80.858C177.158 81.5661 169.96 84.138 163.775 88.3247C168.947 105.027 177.683 125.648 196.246 153.122C188.258 162.767 175.22 178.016 168.939 185.947L118.87 164.266L107.457 187.098L163.656 214.931C167.537 216.687 171.931 217.079 176.079 216.039C180.227 214.999 183.871 212.592 186.381 209.233L198.681 192.832C203.616 200.147 207.398 206.153 221.097 211.697C235.669 205.355 241.979 197.673 247.444 187.098C242.715 184.988 238.402 182.096 234.701 178.551Z" fill="#F7F7FF"/>
<path d="M235.378 277.216L233.348 266.475L280.789 258.007L282.819 268.746L235.378 277.216Z" fill="#F7F7FF"/>
<path d="M276.891 268.17L269.447 260.01L309.527 225.825L316.969 233.985L276.891 268.17Z" fill="#F7F7FF"/>
<path d="M94.6808 104.907C92.9973 104.861 91.3637 105.464 90.1395 106.582C88.9153 107.701 88.2007 109.244 88.1529 110.873C88.1052 112.501 88.7281 114.081 89.8847 115.265C91.0414 116.449 92.6369 117.14 94.3204 117.186C96.0039 117.233 97.6374 116.63 98.8616 115.511C100.086 114.393 100.8 112.849 100.848 111.221C100.896 109.593 100.273 108.013 99.1164 106.829C97.9598 105.645 96.3643 104.953 94.6808 104.907Z" fill="#F7F7FF"/>
<path d="M99.8549 76.6503C101.554 74.1554 102.593 71.295 102.881 68.3207C103.168 65.3463 102.697 62.3491 101.506 59.5925C100.316 56.836 98.4436 54.4044 96.0541 52.5117C93.6645 50.619 90.8308 49.323 87.802 48.7378C84.7733 48.1525 81.6422 48.2959 78.6842 49.1553C75.7262 50.0147 73.0317 51.5638 70.8377 53.6665C68.6437 55.7691 67.0174 58.3608 66.1016 61.2139C65.1859 64.0669 65.0089 67.0938 65.5861 70.0285C65.6342 70.3406 65.6992 70.6486 65.7851 70.9525L74.9378 69.2991C74.5593 68.0923 74.4394 66.8234 74.5857 65.5702C74.732 64.317 75.1412 63.1059 75.7885 62.0111C76.4357 60.9163 77.3072 59.9608 78.3496 59.2032C79.392 58.4456 80.5834 57.9019 81.8507 57.6053C83.118 57.3087 84.4346 57.2655 85.7198 57.4783C87.005 57.6912 88.2317 58.1556 89.3248 58.8431C90.4179 59.5306 91.3543 60.4268 92.0768 61.4767C92.7992 62.5265 93.2924 63.708 93.5261 64.9487C94.3641 69.368 91.8816 72.7599 88.7895 76.4983C86.7594 78.8393 85.6469 81.7971 85.6471 84.8526C85.6597 89.4157 86.2211 93.9646 87.323 98.402L96.7502 96.6696C95.7388 92.5878 95.297 88.3933 95.4367 84.1981C96.0338 81.2701 98.223 79.0372 99.8549 76.6503Z" fill="#F7F7FF"/>
<path fill-rule="evenodd" clip-rule="evenodd" d="M75.6669 1.60655C90.9516 -0.201037 106.457 2.04952 120.519 8.11687C147.578 19.7759 164.199 42.5144 169.157 67.3541C169.157 67.3541 169.279 70.7015 169.541 73.2809C167.888 74.2454 164.634 71.5647 161.792 69.2203C159.227 67.1069 156.996 65.2691 156.577 66.6328C156.175 67.9438 157.143 69.348 158.681 71.5768C160.744 74.5676 163.83 79.0415 166.005 86.7676L163.91 88.4149C164.544 90.8707 166.046 95.0002 167.812 99.8632L168.537 101.863C165.022 116.566 157.239 130.567 144.942 142.017C134.439 151.843 121.489 158.879 107.349 162.442C107.034 162.523 104.893 161.177 102.348 159.579C98.8683 157.39 94.6323 154.73 93.2706 154.584C91.1108 154.351 96.2182 160.723 98.4242 163.479C98.6253 163.726 98.8013 163.945 98.9437 164.128C87.8148 165.81 76.451 165.331 65.5153 162.72C54.5797 160.108 44.2912 155.417 35.2502 148.919C26.2093 142.42 18.5968 134.246 12.8571 124.872C7.11738 115.497 3.36532 105.112 1.81984 94.32C0.274373 83.5284 0.966438 72.5471 3.85566 62.0169C6.74488 51.4867 11.7734 41.6185 18.6478 32.9881C25.5222 24.3577 34.1048 17.1379 43.8949 11.7499C53.685 6.36196 64.4844 2.91377 75.6669 1.60655ZM77.9001 19.168C89.8572 17.7535 101.987 19.5138 112.988 24.26C156.336 42.9379 165.435 97.9666 132.094 129.007C124.529 136.085 115.333 141.321 105.263 144.283C95.1935 147.245 84.5399 147.848 74.1819 146.042C63.8239 144.236 54.0586 140.073 45.6922 133.896C37.3259 127.72 30.5985 119.707 26.0655 110.52C21.5325 101.332 19.324 91.234 19.6222 81.0582C19.9204 70.8824 22.7168 60.9212 27.7806 51.9969C32.8444 43.0727 40.0303 35.4414 48.7449 29.7332C57.4595 24.025 67.453 20.4036 77.9001 19.168Z" fill="#4F56B2"/>
<path d="M317.089 248.884L321.945 241.762L314.462 236.064L310.523 239.49L317.089 248.884Z" fill="#4F56B2"/>
<path d="M342.802 257.518L336.517 271.499C334.622 275.758 331.355 279.311 327.203 281.63L358.568 305.282L377.037 283.263L342.802 257.518Z" fill="#4F56B2"/>
<path d="M309.727 150.949C314.953 151.656 320.259 150.373 324.528 147.372C328.796 144.37 331.694 139.884 332.612 134.857C326.17 132.853 319.379 132.117 312.639 132.692C305.899 133.267 299.346 135.142 293.367 138.206C294.653 141.559 296.852 144.514 299.732 146.757C302.612 149 306.065 150.449 309.727 150.949Z" fill="#4F56B2"/>
<path d="M189.806 143.253L160.831 121.465C156.665 130.005 150.637 137.572 143.16 143.644L180.45 172.092L196.292 153.115L189.806 143.253Z" fill="#4F56B2"/>
<path d="M213.05 173.896L198.727 192.991C199.735 194.782 200.907 196.482 202.229 198.071L213.05 173.896Z" fill="#4F56B2"/>
<path d="M205.727 132.474L211.416 128.587C209.613 128.701 207.802 128.662 206.005 128.472L205.727 132.474Z" fill="#4F56B2"/>
<path d="M243.577 152.532C243.996 149.428 243.267 146.28 241.52 143.646C239.772 141.011 237.118 139.059 234.026 138.133C234.422 137.034 234.544 135.86 234.385 134.707C231.758 116.152 227.777 104.718 221.21 98.1755C216.752 93.6691 207.639 94.4026 202.225 100.984C196.85 107.575 198.201 116.27 198.165 116.991C198.71 110.514 201.836 104.496 206.882 100.206C208.295 99.0842 209.956 98.2936 211.736 97.8959C211.458 103.75 216.274 113.026 222.085 110.716C225.971 109.182 226.438 115.984 218.782 115.984C216.712 132.036 217.349 150.43 224.991 165.414L226.225 167.684C229.981 174.301 235.351 179.931 241.868 184.084C246.196 184.303 250.436 182.85 253.657 180.045C256.877 177.24 258.814 173.313 259.042 169.126C259.267 164.941 257.765 160.84 254.865 157.725C251.965 154.61 247.905 152.737 243.577 152.517V152.532Z" fill="#4F56B2"/>
<path d="M317.089 248.882L321.945 241.76L314.462 236.062L310.523 239.489L317.089 248.882Z" stroke="#252B4A" stroke-linejoin="round"/>
<path d="M342.802 257.518L336.517 271.499C334.622 275.758 331.355 279.311 327.203 281.63L358.568 305.282L377.037 283.263L342.802 257.518Z" stroke="#252B4A"/>
<path d="M189.804 143.249L160.829 121.461C156.663 130.001 150.635 137.568 143.158 143.64L180.448 172.088L196.29 153.111L189.804 143.249Z" stroke="#252B4A"/>
<path d="M199.516 108.105C193.506 99.6049 188.537 90.4586 184.709 80.8495C177.194 81.5548 169.995 84.1307 163.814 88.3263C168.989 105.033 177.704 125.63 196.286 153.116" stroke="#252B4A" stroke-linecap="round" stroke-linejoin="round"/>
<path d="M170.184 76.6897C169.068 71.0736 168.641 65.3498 168.91 59.6369C168.792 56.6848 169.002 53.729 169.539 50.8207C171.005 42.8433 173.014 43.6214 173.678 51.3211C175.302 70.1814 179.963 76.4202 181.677 81.2711" stroke="#252B4A" stroke-linecap="round" stroke-linejoin="round"/>
<path d="M169.185 53.2459C167.851 50.5236 166.122 47.9991 164.051 45.7488C163.422 45.1653 161.956 45.1065 163.772 49.9837C164.162 51.0252 165.718 55.5275 166.2 57.1444C167.317 60.3702 168.221 63.6614 168.907 66.9981" stroke="#252B4A" stroke-linecap="round" stroke-linejoin="round"/>
<path d="M169.468 72.1836C169.189 75.9949 163.103 70.1006 160.233 67.8717C157.65 65.8657 153.948 64.5912 159.159 71.8756C162.246 76.5229 164.582 81.5991 166.084 86.9285" stroke="#252B4A" stroke-linecap="round" stroke-linejoin="round"/>
<path d="M319.915 252.89L310.523 239.492" stroke="#252B4A" stroke-linecap="round" stroke-linejoin="round"/>
<path d="M206.057 128.368C206.057 128.368 205.617 133.701 205.179 141.516C204.301 142.721 203.438 143.937 202.592 145.164" stroke="#252B4A" stroke-linecap="round" stroke-linejoin="round"/>
<path d="M211.417 128.697L205.742 132.421" stroke="#252B4A" stroke-linecap="round" stroke-linejoin="round"/>
<path d="M271.438 258.277L239.637 224.361" stroke="#252B4A" stroke-linecap="round" stroke-linejoin="round"/>
<path d="M213.007 173.853L202.223 198.028" stroke="#252B4A" stroke-linecap="round" stroke-linejoin="round"/>
<path d="M294.999 238.18C282.643 218.972 264.699 203.72 243.418 194.334" stroke="#252B4A" stroke-linecap="round" stroke-linejoin="round"/>
<path d="M236.657 265.886L221.207 211.657" stroke="#252B4A" stroke-linecap="round" stroke-linejoin="round"/>
<path d="M281.864 263.937L282.819 268.749L235.378 277.219L233.348 266.477L269.447 260.05" stroke="#252B4A" stroke-linecap="round" stroke-linejoin="round"/>
<path d="M241.825 184.133C246.089 184.243 250.228 182.739 253.362 179.94C256.496 177.142 258.378 173.272 258.606 169.152C258.834 165.033 257.39 160.99 254.583 157.884C251.775 154.779 247.826 152.855 243.574 152.524C243.993 149.42 243.264 146.273 241.517 143.638C239.769 141.004 237.115 139.051 234.023 138.126C235.312 134.513 231.327 111.809 224.152 101.673C217.419 92.1622 207.577 94.3891 202.183 100.976C196.788 107.564 198.158 116.26 198.123 116.984" stroke="#252B4A" stroke-linecap="round" stroke-linejoin="round"/>
<path d="M317.089 248.881L344.195 208.999C349.367 200.953 349.168 198.412 351.477 192.87C362.303 187.172 386.86 180.473 399 178.933C390.084 192.408 369.189 200.375 360.95 217.084L336.473 271.44C335.027 274.659 332.795 277.492 329.97 279.695C327.145 281.899 323.809 283.407 320.25 284.092C316.69 284.776 313.012 284.616 309.53 283.626C306.047 282.637 302.865 280.846 300.254 278.408L283.377 262.664" stroke="#252B4A" stroke-linecap="round" stroke-linejoin="round"/>
<path d="M276.891 268.169L269.447 260.009L309.527 225.824L316.969 233.984L276.891 268.169Z" stroke="#252B4A" stroke-linecap="round" stroke-linejoin="round"/>
<path d="M98.377 167.307C102.716 166.883 95.5028 160.229 94.3171 158.189C92.7144 155.423 91.0155 152.22 98.4964 157.303C104.557 161.003 110.844 164.345 117.321 167.311" stroke="#252B4A" stroke-linecap="round" stroke-linejoin="round"/>
<path d="M243.02 275.831L246.321 287.303C248.475 294.675 253.515 300.945 260.372 304.78C267.218 308.63 329.745 337.656 329.745 337.656C346.423 346.774 353.228 367.452 366.522 376.999C365.766 365.18 360.512 341.005 355.377 330.193C349.899 327.62 347.232 327.609 339.617 322.341L279.874 281.727L276.453 269.87" stroke="#252B4A" stroke-linecap="round" stroke-linejoin="round"/>
<path d="M213.008 173.855C210.741 176.704 197.147 194.897 186.381 209.271C183.867 212.627 180.224 215.03 176.077 216.069C171.929 217.108 167.538 216.718 163.656 214.965L107.457 187.137L118.839 164.309L168.908 185.943" stroke="#252B4A" stroke-linecap="round" stroke-linejoin="round"/>
<path d="M234.7 178.552C238.428 182.084 242.739 184.989 247.457 187.145C242.177 198.898 233.144 206.506 221.127 211.736C207.391 206.174 203.631 200.225 198.672 192.878" stroke="#252B4A" stroke-linecap="round" stroke-linejoin="round"/>
<path d="M307.219 227.749C282.562 195.783 256.434 190.724 247.457 187.143" stroke="#252B4A" stroke-linecap="round" stroke-linejoin="round"/>
<path d="M202.582 145.173C202.582 145.173 208.792 170.465 234.702 178.549C230.707 174.738 227.409 170.299 224.95 165.421C217.289 150.457 216.671 132.045 218.741 115.993H219.775C226.06 115.647 225.943 109.175 222.044 110.725C216.231 113.029 211.419 103.757 211.697 97.9067C209.918 98.3076 208.257 99.097 206.841 100.215C203.898 102.707 201.59 105.824 200.097 109.321C198.603 112.819 197.966 116.603 198.233 120.378C198.975 125.271 202.459 129.182 211.419 128.704" stroke="#252B4A" stroke-linecap="round" stroke-linejoin="round"/>
<path d="M202.582 145.175C198.84 150.646 169.666 184.095 165.766 190.216" stroke="#252B4A" stroke-linecap="round" stroke-linejoin="round"/>
<path d="M83.5356 171.698C81.625 171.929 77.6865 172.701 76.5301 172.929C71.2781 173.975 71.9548 175.316 72.7907 175.393C76.1719 175.703 81.6648 175.665 84.8093 176.048C89.8643 176.666 99.6162 177.549 103.437 179.744" stroke="#252B4A" stroke-linecap="round" stroke-linejoin="round"/>
<path d="M84.5294 176.01C83.6915 176.318 82.9373 176.587 82.579 176.741C77.5638 178.589 78.4814 179.831 79.3151 179.781C82.7006 179.588 88.1139 178.628 91.2961 178.51C95.1231 178.441 98.9483 178.725 102.72 179.357" stroke="#252B4A" stroke-linecap="round" stroke-linejoin="round"/>
<path d="M229.925 65.4105C229.863 66.4009 229.499 67.3514 228.878 68.1412C228.257 68.9309 227.407 69.5243 226.437 69.8459C225.712 70.0869 224.94 70.1694 224.179 70.0875C223.417 70.0056 222.683 69.7613 222.03 69.3722C221.378 68.9831 220.823 68.4589 220.405 67.8374C219.987 67.2158 219.717 66.5124 219.614 65.7777C219.51 65.043 219.577 64.2954 219.809 63.5886C220.04 62.8817 220.431 62.2334 220.952 61.6902C221.474 61.1469 222.114 60.7223 222.826 60.447C223.537 60.1716 224.303 60.0523 225.069 60.0976C226.439 60.1847 227.718 60.7919 228.627 61.787C229.537 62.7821 230.003 64.0845 229.925 65.4105Z" stroke="#252B4A" stroke-linecap="round" stroke-linejoin="round"/>
<path d="M367.517 186.521C368.674 175.673 366.056 164.762 360.079 155.515C354.102 146.268 345.107 139.213 334.518 135.468C325.718 132.357 316.198 131.668 307.017 133.476C297.836 135.284 289.353 139.52 282.511 145.712C275.67 151.903 270.737 159.809 268.262 168.549C265.787 177.289 265.867 186.523 268.492 195.222" stroke="#252B4A" stroke-linecap="round" stroke-linejoin="round"/>
<path d="M313.666 230.362C319.362 230.753 325.083 230.192 330.583 228.707" stroke="#252B4A" stroke-linecap="round" stroke-linejoin="round"/>
<path d="M315.377 111.877C312.394 111.479 309.357 111.726 306.485 112.599C303.612 113.472 300.975 114.95 298.764 116.926C296.552 118.903 294.821 121.329 293.695 124.029C292.568 126.73 292.075 129.639 292.249 132.547C292.486 136.435 293.909 140.169 296.338 143.276C298.767 146.383 302.094 148.724 305.898 150.004C309.701 151.283 313.812 151.444 317.71 150.465C321.609 149.487 325.12 147.413 327.8 144.505C330.48 141.597 332.208 137.985 332.765 134.127C333.504 128.947 332.088 123.696 328.828 119.524C325.568 115.353 320.731 112.603 315.377 111.877Z" stroke="#252B4A" stroke-linecap="round" stroke-linejoin="round"/>
<path d="M164.892 53.1304C159.816 40.6088 151.637 29.4853 141.074 20.7379C130.512 11.9906 117.889 5.88742 104.315 2.96511C90.7421 0.0427968 76.6343 0.390869 63.2328 3.97872C49.8312 7.56657 37.5463 14.2843 27.4584 23.5411C17.3705 32.798 9.78863 44.3104 5.37952 57.0659C0.970414 69.8215 -0.130866 83.4295 2.17253 96.6933C4.47592 109.957 10.1134 122.47 18.5893 133.133C27.0651 143.795 38.1197 152.28 50.7809 157.841C65.8676 164.35 82.567 166.541 98.9014 164.154" stroke="#252B4A" stroke-linecap="round" stroke-linejoin="round"/>
<path d="M168.474 101.712C165.895 112.498 161.08 122.665 154.32 131.598C147.561 140.531 138.997 148.045 129.148 153.684C122.342 157.57 114.999 160.499 107.34 162.384" stroke="#252B4A" stroke-linecap="round" stroke-linejoin="round"/>
<path d="M112.988 24.2581C101.987 19.5118 89.8573 17.7514 77.9005 19.1655C65.9438 20.5796 54.6104 25.1149 45.1159 32.2851C35.6214 39.4554 28.3239 48.99 24.0058 59.8666C19.6878 70.7432 18.5121 82.5515 20.6049 94.0253C22.6977 105.499 27.98 116.205 35.8854 124.996C43.7908 133.787 54.0211 140.331 65.4791 143.926C76.9372 147.521 89.1909 148.031 100.926 145.403C112.661 142.774 123.436 137.106 132.093 129.005C165.434 97.9648 156.336 42.936 112.988 24.2581Z" stroke="#252B4A" stroke-linecap="round" stroke-linejoin="round"/>
<path d="M52.5703 217.548L70.2431 231.098L88.2721 204.343" stroke="#252B4A" stroke-linecap="round" stroke-linejoin="round"/>
<path d="M207.318 229.444L190.123 231.56" stroke="#252B4A" stroke-linecap="round" stroke-linejoin="round"/>
<path d="M199.795 238.835L197.605 222.167" stroke="#252B4A" stroke-linecap="round" stroke-linejoin="round"/>
<path d="M100.85 111.222C100.814 112.437 100.407 113.614 99.6803 114.605C98.9532 115.596 97.9386 116.356 96.7648 116.789C95.5911 117.223 94.3108 117.309 93.086 117.039C91.8612 116.768 90.7469 116.153 89.884 115.269C89.021 114.386 88.4482 113.276 88.238 112.078C88.0278 110.88 88.1896 109.648 88.703 108.539C89.2163 107.43 90.0582 106.493 91.1221 105.847C92.186 105.201 93.4242 104.874 94.68 104.908C96.3623 104.959 97.9555 105.651 99.1115 106.834C100.268 108.017 100.892 109.595 100.85 111.222Z" fill="#4F56B2" stroke="#4F56B2" stroke-linecap="round" stroke-linejoin="round"/>
<path d="M99.8159 76.6495C101.515 74.1545 102.554 71.2941 102.841 68.3198C103.129 65.3455 102.657 62.3483 101.467 59.5917C100.277 56.8351 98.4046 54.4036 96.015 52.5108C93.6254 50.6181 90.7917 49.3222 87.7629 48.7369C84.7342 48.1517 81.6032 48.2951 78.6451 49.1545C75.6871 50.0139 72.9926 51.563 70.7986 53.6656C68.6046 55.7682 66.9783 58.36 66.0626 61.213C65.1469 64.066 64.9698 67.093 65.547 70.0277C65.5931 70.3397 65.6601 70.6477 65.746 70.9517L74.9009 69.2982C74.5195 68.0907 74.3974 66.8206 74.5421 65.5658C74.6867 64.311 75.095 63.098 75.7418 62.0014C76.3887 60.9047 77.2605 59.9475 78.3037 59.1886C79.347 58.4297 80.5395 57.885 81.8083 57.588C83.077 57.291 84.3952 57.2481 85.6817 57.4617C86.9683 57.6753 88.1961 58.141 89.2898 58.8303C90.3835 59.5195 91.32 60.4177 92.0418 61.4697C92.7636 62.5217 93.2554 63.7054 93.4871 64.9479C94.325 69.3671 91.8426 72.7591 88.7504 76.4975C86.7204 78.8385 85.6078 81.7963 85.608 84.8517C85.562 86.493 85.6374 88.1362 85.8301 89.7694C86.0626 91.9172 87.3196 98.4012 87.3196 98.4012L96.7468 96.6688C96.6274 96.6688 95.4731 89.433 95.3935 88.6246C95.1746 87.1564 95.1746 85.6654 95.3935 84.1972C95.9947 81.2693 98.1839 79.0364 99.8159 76.6495Z" fill="#4F56B2" stroke="#4F56B2" stroke-linecap="round" stroke-linejoin="round"/>
<path d="M109.406 183.209C103.832 179.65 97.9302 176.597 91.7748 174.091C86.8329 172.344 81.7027 171.143 76.4818 170.511C68.7997 169.599 67.9219 167.599 76.2827 166.507C79.3592 166.146 82.4599 166.018 85.557 166.122C91.4291 166.195 97.276 166.892 102.991 168.201" stroke="#252B4A" stroke-linecap="round" stroke-linejoin="round"/>
</svg>
